<?xml version="1.0" encoding="UTF-8"?>
<svg width="240px" height="48px" viewBox="0 0 240 48" version="1.1" xmlns="http://www.w3.org/2000/svg" xmlns:xlink="http://www.w3.org/1999/xlink">
    <!-- Generator: Sketch 52.1 (67048) - http://www.bohemiancoding.com/sketch -->
    <title>populstay-logo-full-colour</title>
    <desc>Created with Sketch.</desc>
    <g id="Page-1" stroke="none" stroke-width="1" fill="none" fill-rule="evenodd">
        <g id="Demo---Homepage" transform="translate(-50.000000, -26.000000)" fill-rule="nonzero">
            <g id="Hero">
                <g id="Nav-Bar">
                    <g id="populstay-logo-full-colour" transform="translate(50.000000, 26.000000)">
                        <path d="M67.1,16.6 C66.2,15.7 65.1,15.3 64,15.3 L54.1,15.3 L54.1,30.7 C54,31.5 54.5,32 55.3,32.1 C56.1,32.2 56.6,31.7 56.7,30.9 C56.7,30.8 56.7,30.8 56.7,30.7 L56.7,24.9 L64,24.9 C64.5,24.9 65.2,24.8 65.7,24.6 C66.2,24.4 66.7,24.1 67.1,23.7 C67.4,23.4 67.8,22.8 68,22.3 C68.3,21.8 68.3,21.2 68.3,20.7 L68.3,19.8 C68.3,19.3 68.2,18.6 68,18.2 C67.9,17.6 67.5,17.1 67.1,16.6 Z M65.8,20.5 C65.8,21.5 64.9,22.2 64.1,22.2 L56.8,22.2 L56.8,17.7 L64,17.7 C64.4,17.7 64.9,17.9 65.3,18.2 C65.6,18.5 65.8,19.1 65.8,19.5 L65.8,20.5 Z" id="Shape" fill="#F4436C"></path>
                        <path d="M90.1,16.9 C89.7,16.5 89.1,16 88.6,15.8 C87.9,15.5 87.3,15.5 86.6,15.5 L80.1,15.5 C78.8,15.5 77.5,16 76.6,17 C75.7,17.9 75.1,19.2 75.1,20.5 L75.1,27 C75.1,27.7 75.2,28.4 75.4,29 C75.7,29.5 76.1,30.1 76.5,30.5 C76.9,30.9 77.5,31.4 78,31.6 C78.7,31.9 79.3,31.9 80,31.9 L86.5,31.9 C87.2,31.9 87.8,31.8 88.5,31.6 C89.7,31.2 90.6,30.1 91.2,28.9 C91.5,28.2 91.5,27.6 91.5,26.9 L91.5,20.4 C91.5,19.2 91.1,17.9 90.1,16.9 Z M88.9,27.1 C88.9,27.4 88.8,27.8 88.7,28 C88.4,28.5 87.9,29 87.4,29.3 C87.1,29.4 86.7,29.5 86.5,29.5 L80,29.5 C79.7,29.5 79.3,29.4 79.1,29.3 C78.6,29 78,28.5 77.8,28 C77.7,27.7 77.6,27.3 77.6,27.1 L77.6,20.6 C77.6,20.3 77.7,19.9 77.8,19.7 C78.1,19.2 78.6,18.7 79.1,18.4 C79.4,18.3 79.8,18.2 80,18.2 L86.5,18.2 C86.8,18.2 87.2,18.3 87.4,18.4 C87.9,18.7 88.4,19.2 88.7,19.7 C88.8,20 88.9,20.4 88.9,20.6 L88.9,27.1 Z" id="Shape" fill="#F4436C"></path>
                        <path d="M111.2,16.6 C110.3,15.7 109.2,15.3 108,15.3 L98.1,15.3 L98.1,30.7 C98.1,31.5 98.6,32 99.4,32 C100.2,32 100.7,31.5 100.7,30.7 L100.7,24.9 L108,24.9 C108.5,24.9 109.2,24.8 109.7,24.6 C110.2,24.4 110.7,24.1 111.1,23.7 C111.4,23.4 111.9,22.8 112,22.3 C112.3,21.8 112.3,21.2 112.3,20.7 L112.3,19.8 C112.3,19.3 112.2,18.6 112,18.1 C111.9,17.6 111.6,16.9 111.2,16.6 Z M109.9,20.5 C109.9,20.9 109.7,21.4 109.4,21.8 C109.1,22.1 108.5,22.3 108.1,22.3 L100.9,22.3 L100.9,17.9 L108.1,17.9 C108.5,17.9 109,18.1 109.4,18.4 C109.7,18.7 109.9,19.3 109.9,19.7 L109.9,20.5 Z" id="Shape" fill="#F4436C"></path>
                        <path d="M134.4,15.7 C133.6,15.7 133.1,16.2 133.1,17 L133.1,27 C133.1,27.7 132.8,28.3 132.3,28.7 C131.9,29.1 131.2,29.5 130.6,29.5 L124.1,29.5 C122.8,29.4 121.7,28.4 121.7,27 L121.7,17 C121.7,16.2 121.2,15.7 120.4,15.7 C119.6,15.7 119.1,16.2 119.1,17 L119.1,27 C119.1,27.7 119.2,28.3 119.4,29 C119.7,29.5 120.1,30.1 120.5,30.5 C121.4,31.4 122.7,32 124,32 L130.5,32 C131.2,32 131.8,31.9 132.5,31.7 C133.2,31.4 133.6,31 134,30.6 C134.4,30.2 134.9,29.6 135.1,29.1 C135.4,28.4 135.4,27.8 135.4,27.1 L135.4,17.1 C135.6,16.3 135.1,15.7 134.4,15.7 Z" id="Shape" fill="#F4436C"></path>
                        <path d="M153.9,29.4 L146.7,29.4 C146.3,29.4 145.8,29.2 145.4,28.9 C145.1,28.6 144.9,28 144.9,27.6 L144.9,17.4 C144.9,16.6 144.4,16.1 143.6,16.1 C142.8,16.1 142.3,16.6 142.3,17.4 L142.3,27.5 C142.3,28 142.4,28.7 142.6,29.2 C142.8,29.7 143.1,30.2 143.5,30.6 C143.8,30.9 144.4,31.4 144.9,31.5 C145.4,31.8 146,31.8 146.6,31.8 L153.8,31.8 C154.6,31.8 155.1,31.3 155.1,30.5 C155.2,29.9 154.6,29.4 153.9,29.4 Z" id="Shape" fill="#F4436C"></path>
                        <path d="M175.9,23.6 C175.6,23.3 175,22.8 174.4,22.7 C173.9,22.5 173.3,22.4 172.7,22.4 L164.9,22.4 C164.5,22.4 164,22.2 163.6,21.9 C163.3,21.6 163.1,21 163.1,20.6 L163.1,19.7 C163.1,19.3 163.3,18.8 163.6,18.4 C163.9,18.1 164.5,17.9 164.9,17.9 L174.5,17.9 C175.3,18 175.8,17.5 175.9,16.7 C176,15.9 175.5,15.4 174.7,15.3 C174.6,15.3 174.6,15.3 174.5,15.3 L164.9,15.3 C164.4,15.3 163.7,15.4 163.2,15.6 C162.7,15.8 162.2,16.1 161.8,16.5 C161.5,16.8 161,17.4 160.9,17.9 C160.6,18.4 160.6,19 160.6,19.6 L160.6,20.5 C160.6,21 160.7,21.7 160.9,22.1 C161.1,22.6 161.4,23.1 161.8,23.5 C162.1,23.8 162.7,24.3 163.2,24.4 C163.7,24.7 164.3,24.7 164.9,24.7 L172.6,24.7 C173.6,24.7 174.5,25.5 174.5,26.4 L174.5,27.3 C174.5,27.7 174.3,28.2 174,28.6 C173.7,28.9 173.1,29.1 172.7,29.1 L163.1,29.1 C162.3,29.1 161.8,29.6 161.8,30.4 C161.8,31.2 162.3,31.7 163.1,31.7 L172.7,31.7 C173.2,31.7 173.9,31.6 174.4,31.4 C174.9,31.2 175.4,30.9 175.8,30.5 C176.1,30.2 176.6,29.6 176.7,29.1 C176.9,28.6 177,28 177,27.5 L177,26.7 C177.2,25.6 176.8,24.5 175.9,23.6 Z" id="Shape" fill="#F4436C"></path>
                        <path d="M195.5,15.3 L184,15.3 C183.2,15.4 182.8,16 182.8,16.7 C182.9,17.4 183.3,17.8 184,17.9 L188.5,17.9 L188.5,30.8 C188.4,31.6 188.9,32.1 189.7,32.2 C190.5,32.3 191,31.8 191.1,31 C191.1,30.9 191.1,30.9 191.1,30.8 L191.1,17.9 L195.6,17.9 C196.4,17.8 196.8,17.2 196.8,16.5 C196.6,15.9 196.2,15.4 195.5,15.3 Z" id="Shape" fill="#F4436C"></path>
                        <circle id="Oval" fill="#F4436C" cx="209.5" cy="25.6" r="2.1"></circle>
                        <path d="M238.9,15.5 C238.1,15.5 237.6,16 237.6,16.8 L237.6,21.5 C237.6,22.2 237.3,22.8 236.8,23.2 C236.4,23.6 235.7,24 235.1,24 L228.6,24 C227.9,24 227.3,23.7 226.9,23.2 C226.5,22.7 226.1,22.1 226.1,21.5 L226.1,16.8 C226.1,16 225.6,15.5 224.8,15.5 C224,15.5 223.5,16 223.5,16.8 L223.5,21.5 C223.5,22.2 223.6,22.9 223.8,23.5 C224.1,24.2 224.5,24.6 224.9,25 C225.3,25.4 225.9,25.9 226.4,26.1 C227.1,26.4 227.7,26.4 228.4,26.4 L230.4,26.4 L230.4,30.5 C230.5,31.3 231.1,31.8 231.8,31.7 C232.5,31.6 232.9,31.2 233,30.5 L233,26.4 L235,26.4 C235.7,26.4 236.3,26.3 237,26.1 C237.7,25.8 238.1,25.4 238.5,25 C238.9,24.6 239.4,24 239.6,23.5 C239.9,22.8 239.9,22.2 239.9,21.5 L239.9,16.8 C240.2,16.1 239.6,15.5 238.9,15.5 Z" id="Shape" fill="#F4436C"></path>
                        <path d="M213.8,17.8 C213,16.2 211.4,15.1 209.5,15.1 C207.6,15.1 206,16.2 205.2,17.8 L199.9,30.2 C199.6,30.9 199.9,31.6 200.6,31.8 C201.3,32.1 202,31.8 202.2,31.1 L207.5,18.8 C207.8,18 208.5,17.6 209.4,17.6 C210.3,17.6 210.9,18 211.3,18.8 L216.6,31.1 C216.9,31.8 217.6,32.1 218.3,31.8 C219,31.5 219.3,30.8 219,30.1 L213.8,17.8 Z" id="Shape" fill="#F4436C"></path>
                        <circle id="Oval" fill="#111C4E" cx="20.3" cy="20.3" r="5"></circle>
                        <path d="M40.5,19.4 C40.4,16.8 39.8,14.2 38.6,11.7 C37.4,9.2 35.8,7.1 33.9,5.3 C34.2,5.8 34.5,6.4 34.8,6.9 C35.7,8.8 36.2,10.7 36.4,12.7 C37.1,19.9 33.2,27.1 26.3,30.3 C25.6,30.6 24.9,30.9 24.1,31.1 C23.3,31.4 22.5,31.6 21.7,31.7 C21.7,31.7 21.7,31.7 21.7,31.7 C21.2,31.8 20.7,31.8 20.2,31.9 L24,40.1 C24,40.1 24,40.1 24,40.1 L25.2,42.8 C25,43.2 25,43.7 25.2,44.1 C25.5,44.8 26.4,45.1 27.1,44.8 C27.8,44.5 28.1,43.6 27.8,42.9 C27.6,42.4 27,42.1 26.5,42.1 L25.5,39.9 C26.6,39.6 27.7,39.2 28.8,38.7 C36.5,35.1 40.9,27.4 40.5,19.4 Z" id="Shape" fill="#111C4E"></path>
                        <path d="M36.4,12.8 C36.2,10.8 35.7,8.9 34.8,7 C34.5,6.4 34.2,5.9 33.9,5.4 C28,-7.99360578e-15 19.3,-1.6 11.7,2 C6.7,4.3 3.1,8.4 1.3,13.2 C-0.5,18 -0.5,23.7 1.9,28.8 C4.3,34 8.6,37.7 13.6,39.4 C11.2,37.7 9.2,35.4 7.9,32.5 C7,30.6 6.5,28.7 6.3,26.7 C5.7,20.7 8.3,14.8 13.1,11.1 C13.8,10.6 14.5,10.1 15.3,9.7 C21.1,7 28,9.5 30.7,15.3 C33.4,21.1 30.9,28 25.1,30.7 C24.8,30.9 24.4,31 24.1,31.1 C24.8,30.9 25.6,30.6 26.3,30.3 C33.2,27.1 37.1,20 36.4,12.8 Z" id="Shape" fill="#F4436C"></path>
                        <path d="M20,45.2 C19.8,44.7 19.3,44.4 18.8,44.4 L16.9,40.2 C16.9,40.2 16.9,40.2 16.9,40.2 L12.5,30.7 L9.9,25.1 C7.6,20.1 9.1,14.3 13.3,11.1 C8.5,14.8 5.9,20.7 6.5,26.7 C6.7,28.7 7.2,30.6 8.1,32.5 C9.4,35.4 11.4,37.7 13.8,39.4 C14.2,39.6 14.7,39.7 15.2,39.8 L17.6,45.1 C17.4,45.5 17.3,46 17.5,46.5 C17.8,47.2 18.7,47.5 19.4,47.2 C20,46.8 20.3,46 20,45.2 Z" id="Shape" fill="#111C4E"></path>
                    </g>
                </g>
            </g>
        </g>
    </g>
</svg>