<?xml version="1.0" encoding="UTF-8"?>
<svg width="41px" height="48px" viewBox="0 0 41 48" version="1.1" xmlns="http://www.w3.org/2000/svg" xmlns:xlink="http://www.w3.org/1999/xlink">
    <!-- Generator: Sketch 52.1 (67048) - http://www.bohemiancoding.com/sketch -->
    <title>populstay-logomark</title>
    <desc>Created with Sketch.</desc>
    <g id="Page-1" stroke="none" stroke-width="1" fill="none" fill-rule="evenodd">
        <g id="Demo---Scroll-&amp;-Drop-Down" transform="translate(-50.000000, -26.000000)" fill-rule="nonzero">
            <g id="Nav-bar">
                <g id="populstay-logomark" transform="translate(50.000000, 26.000000)">
                    <circle id="Oval" fill="#111C4E" cx="20.3" cy="20.3" r="5"></circle>
                    <path d="M40.5,19.4 C40.4,16.8 39.8,14.2 38.6,11.7 C37.4,9.2 35.8,7.1 33.9,5.3 C34.2,5.8 34.5,6.4 34.8,6.9 C35.7,8.8 36.2,10.7 36.4,12.7 C37.1,19.9 33.2,27.1 26.3,30.3 C25.6,30.6 24.9,30.9 24.1,31.1 C23.3,31.4 22.5,31.6 21.7,31.7 C21.7,31.7 21.7,31.7 21.7,31.7 C21.2,31.8 20.7,31.8 20.2,31.9 L24,40.1 C24,40.1 24,40.1 24,40.1 L25.2,42.8 C25,43.2 25,43.7 25.2,44.1 C25.5,44.8 26.4,45.1 27.1,44.8 C27.8,44.5 28.1,43.6 27.8,42.9 C27.6,42.4 27,42.1 26.5,42.1 L25.5,39.9 C26.6,39.6 27.7,39.2 28.8,38.7 C36.5,35.1 40.9,27.4 40.5,19.4 Z" id="Shape" fill="#111C4E"></path>
                    <path d="M36.4,12.8 C36.2,10.8 35.7,8.9 34.8,7 C34.5,6.4 34.2,5.9 33.9,5.4 C28,-8.8817842e-16 19.3,-1.6 11.7,2 C6.7,4.3 3.1,8.4 1.3,13.2 C-0.5,18 -0.5,23.7 1.9,28.8 C4.3,34 8.6,37.7 13.6,39.4 C11.2,37.7 9.2,35.4 7.9,32.5 C7,30.6 6.5,28.7 6.3,26.7 C5.7,20.7 8.3,14.8 13.1,11.1 C13.8,10.6 14.5,10.1 15.3,9.7 C21.1,7 28,9.5 30.7,15.3 C33.4,21.1 30.9,28 25.1,30.7 C24.8,30.9 24.4,31 24.1,31.1 C24.8,30.9 25.6,30.6 26.3,30.3 C33.2,27.1 37.1,20 36.4,12.8 Z" id="Shape" fill="#F4436C"></path>
                    <path d="M20,45.2 C19.8,44.7 19.3,44.4 18.8,44.4 L16.9,40.2 C16.9,40.2 16.9,40.2 16.9,40.2 L12.5,30.7 L9.9,25.1 C7.6,20.1 9.1,14.3 13.3,11.1 C8.5,14.8 5.9,20.7 6.5,26.7 C6.7,28.7 7.2,30.6 8.1,32.5 C9.4,35.4 11.4,37.7 13.8,39.4 C14.2,39.6 14.7,39.7 15.2,39.8 L17.6,45.1 C17.4,45.5 17.3,46 17.5,46.5 C17.8,47.2 18.7,47.5 19.4,47.2 C20,46.8 20.3,46 20,45.2 Z" id="Shape" fill="#111C4E"></path>
                </g>
            </g>
        </g>
    </g>
</svg>