<?xml version="1.0" encoding="UTF-8"?>
<svg width="45px" height="52px" viewBox="0 0 45 52" version="1.1" xmlns="http://www.w3.org/2000/svg" xmlns:xlink="http://www.w3.org/1999/xlink">
    <!-- Generator: Sketch 52.1 (67048) - http://www.bohemiancoding.com/sketch -->
    <title>cancellation</title>
    <desc>Created with Sketch.</desc>
    <g id="Page-1" stroke="none" stroke-width="1" fill="none" fill-rule="evenodd">
        <g id="Demo---Listing-Details---Book" transform="translate(-1195.000000, -579.000000)" fill="#F4436C" fill-rule="nonzero">
            <g id="Group-14" transform="translate(870.000000, 161.000000)">
                <g id="Group-4" transform="translate(30.000000, 415.000000)">
                    <g id="cancellation" transform="translate(295.000000, 3.000000)">
                        <path d="M44.2,10.9859155 C44.0544919,9.99092189 43.2520795,9.22169195 42.251831,9.11830986 C41.8709859,9.0743662 41.5194366,9.05971831 41.1092958,9.00112676 C39.8936607,8.78224622 38.7150584,8.3926664 37.6084507,7.84394366 C35.9064285,7.019399 34.2599365,6.08483743 32.6794366,5.04619718 C30.689216,3.71054474 28.6091526,2.51389653 26.4540845,1.46478873 C25.5194977,0.99555908 24.5612168,0.575088867 23.5830986,0.205070423 C22.9008231,-0.0511637045 22.1487544,-0.0511637045 21.4664789,0.205070423 C20.8952113,0.424788732 20.3092958,0.622535211 19.7526761,0.893521127 C18.4490141,1.52338028 17.1233803,2.13859155 15.8709859,2.86366197 C14.1864789,3.83774648 12.5605634,4.90704225 10.9053521,5.93239437 C9.43647438,6.86393482 7.89032675,7.66763755 6.28394366,8.33464789 C5.34555562,8.7117562 4.35981837,8.95819051 3.3543662,9.06704225 C3.07495169,9.07658628 2.79624556,9.10103419 2.51943662,9.14028169 C1.41344196,9.34666433 0.642047828,10.3551673 0.732394366,11.4766197 C0.776338028,12.4214085 0.827605634,13.3588732 0.915492958,14.296338 C1.04732394,15.7025352 1.19380282,17.1160563 1.37690141,18.5222535 C1.59661972,20.2287324 1.90422535,21.9278873 2.27774648,23.6490141 C2.82330376,26.1640385 3.55778145,28.6343318 4.47492958,31.0388732 C6.00755932,35.1277682 8.20774136,38.9341574 10.9859155,42.3030986 C12.4917926,44.1092783 14.1695272,45.7649374 15.995493,47.2467606 C17.699941,48.6251656 19.5123402,49.8644548 21.4152113,50.9526761 C22.0836696,51.3854643 22.9439361,51.3854643 23.6123944,50.9526761 C24.6157746,50.3374648 25.6191549,49.7369014 26.5932394,49.0704225 C29.418218,47.1464528 31.9577744,44.8337305 34.1369014,42.2005634 C35.8695971,40.0953752 37.3699346,37.8092635 38.611831,35.3819718 C39.8606458,32.9307083 40.8852859,30.3715593 41.6732394,27.7357746 C42.3312999,25.4461141 42.844986,23.1174038 43.2112676,20.7633803 C43.4016901,19.6061972 43.5628169,18.4416901 43.7166197,17.2771831 C43.8338028,16.3616901 43.9216901,15.4388732 44.0022535,14.5160563 C44.0828169,13.5932394 44.1340845,12.7070423 44.2073239,11.6743662 C44.2165653,11.444907 44.2141208,11.2151261 44.2,10.9859155 Z M12.0112676,28.3949296 C10.3449755,24.8184919 10.6196429,20.6389052 12.7396445,17.311289 C14.859646,13.9836728 18.5316243,11.9684897 22.4771831,11.9673239 C25.3590692,11.9646827 28.1381033,13.0381629 30.2698592,14.9774648 C30.4509842,15.2653209 30.6148412,15.5636873 30.7605634,15.8709859 C31.2480275,16.906593 31.5504324,18.019542 31.6540845,19.1594366 C31.9554166,22.4013141 30.6603563,25.5870532 28.1825352,27.6991549 C30.1130343,25.1060776 30.0288524,21.5313511 27.9784313,19.0320213 C25.9280102,16.5326914 22.4386651,15.7515211 19.5183099,17.1380282 C19.1094545,17.3276952 18.7195351,17.5557613 18.3538028,17.8191549 L18.1487324,17.9729577 C15.2832939,20.1911076 13.745612,23.7164573 14.0692958,27.3256338 C14.2956351,29.722315 15.3284585,31.971288 16.9988732,33.7047887 C14.8001557,32.5282126 13.0480607,30.6629133 12.0112676,28.3949296 Z M21.5909859,39.2270423 C21.2569305,39.3947036 20.8521454,39.3199227 20.6000436,39.0439734 C20.3479417,38.7680241 20.3099521,38.3581462 20.5070423,38.0405634 L18.8738028,34.4957746 L18.7273239,34.451831 C17.3429129,33.4512946 16.238396,32.1122569 15.5194366,30.5628169 C15.0395584,29.5258127 14.7446049,28.4129207 14.6478873,27.2743662 C14.4804892,25.4517622 14.8148056,23.6180873 15.6146479,21.971831 C15.2728349,23.4915552 15.4481072,25.0818941 16.1126761,26.4907042 L19.9723944,34.8033803 L21.2833803,37.6304225 C21.6722188,37.6425917 22.001125,37.9216938 22.0764095,38.3033688 C22.151694,38.6850437 21.9534038,39.0681341 21.5983099,39.2270423 L21.5909859,39.2270423 Z M19.8625352,24.7476056 C19.1872556,23.2996611 19.813567,21.5784451 21.2614711,20.9030789 C22.7093752,20.2277126 24.4306287,20.8539211 25.1060815,22.3017848 C25.7815344,23.7496484 25.1554289,25.4709394 23.7076056,26.1464789 C22.2586659,26.8007414 20.5523422,26.1799646 19.8625352,24.7476056 Z M27.3622535,34.0050704 C26.827169,34.2484765 26.2737148,34.4492873 25.7070423,34.6056338 L26.4833803,36.275493 C26.7971526,36.2852891 27.0794383,36.4687748 27.2157746,36.7515493 C27.4085231,37.1743793 27.2257959,37.673616 26.8056338,37.8721127 C26.6027075,37.9667371 26.3704556,37.9766669 26.1601934,37.8997082 C25.9499311,37.8227494 25.7789654,37.6652367 25.6850704,37.4619718 C25.5688732,37.2316667 25.5688732,36.9598826 25.6850704,36.7295775 L24.9014085,34.8326761 L22.9239437,30.5701408 C23.0923944,30.5701408 23.2608451,30.5701408 23.4219718,30.5042254 C23.9207578,30.4400773 24.4116106,30.3247269 24.8867606,30.16 C25.3297427,30.0208839 25.7628381,29.8520501 26.1830986,29.6546479 C31.2070661,27.3254369 33.5739674,21.5073378 31.6028169,16.3323944 C32.1412173,17.0496708 32.5958145,17.826172 32.9577465,18.6467606 C33.6039853,20.0254695 33.9675665,21.5196388 34.0270423,23.0411268 C34.2324613,27.7086747 31.6003433,32.0386534 27.3622535,34.0050704 Z" id="Shape"></path>
                    </g>
                </g>
            </g>
        </g>
    </g>
</svg>