<svg xmlns="http://www.w3.org/2000/svg" viewBox="0 0 143.14 173"><defs><style>.cls-1{fill:#f4436c;}</style></defs><title>Asset 17</title><g id="Layer_2" data-name="Layer 2"><g id="Layer_1-2" data-name="Layer 1"><path class="cls-1" d="M76.75,93.87A1.9,1.9,0,0,1,76,92.55q-.06-21.4,0-42.8a3.15,3.15,0,0,1,.62-1.44c.78-1.3,1.65-2.55,2.39-3.87.34-.6.11-1.11-.59-1.47a15.19,15.19,0,0,0-14.16-.21c-.7.34-1,.83-.65,1.46.74,1.37,1.59,2.67,2.37,4a2.68,2.68,0,0,1,.54,1.2c0,14,0,28,0,42a3.05,3.05,0,0,1-1.39,3,7.71,7.71,0,0,0-3.46,6.14,21.84,21.84,0,0,1,19.29.53c-.1-.61-.14-1-.24-1.44A10.13,10.13,0,0,0,76.75,93.87ZM68.92,59h4.77v5.74H68.92Zm0,9.14h4.81V73.8H68.9Zm4.81,9.1V83H68.92V77.19Zm0,15.18H68.88v-6h4.84Zm0-36.78H68.92V50.16h4.81Z"/><path class="cls-1" d="M70.44,24.48c-.33,2.66-.74,5.65-1,8.66a2,2,0,0,1-1.34,1.94,7.57,7.57,0,0,0-4.45,5.44,17.93,17.93,0,0,1,15.58.22A8,8,0,0,0,74.51,35a1.56,1.56,0,0,1-1.1-1.41c-.34-3.13-.73-6.26-1.07-9.11a30.39,30.39,0,0,0,2.13-2.32c.43-.57.32-1.12-.47-1.43a6.76,6.76,0,0,0-5.24.07c-.78.33-.91.83-.45,1.42S69.59,23.59,70.44,24.48Z"/><path class="cls-1" d="M72,15.15c-.19-4.68-.4-9.91-.62-15.15h-.14c0,.61-.09,1.21-.11,1.82-.15,4.34-.28,8.68-.44,13,0,.37,0,.92-.24,1.08-1.36,1-1.26,2.73-2.34,3.63h6.48Z"/><path class="cls-1" d="M95.59,60.25h17.73a2.25,2.25,0,1,0,.12-4.49l-.28,0a2.94,2.94,0,0,1-.44,0,.75.75,0,0,1-.52-.36.81.81,0,0,1-.08-.65,1,1,0,0,1,1-.71h2.37a2.52,2.52,0,0,0,1.79-.69,2.16,2.16,0,0,0,.61-1.59,2.23,2.23,0,0,0-2.41-2.2h-15a2.56,2.56,0,0,0-1.86.71A2.12,2.12,0,0,0,98,51.8,2.25,2.25,0,0,0,100.45,54h1.66c.86,0,1.31.29,1.32.87a.72.72,0,0,1-.18.55,1.61,1.61,0,0,1-1.15.34H95.58a2.41,2.41,0,0,0-1.86.81,2.27,2.27,0,0,0,1.87,3.7Zm0-2.93h6.32c.26,0,.56,0,.85,0a2.43,2.43,0,0,0,0-4.85h-2.32a.83.83,0,0,1-.6-.25.6.6,0,0,1-.17-.47c0-.38.34-.63.81-.63h14.76c1.14,0,1.15.47,1.15.64a.61.61,0,0,1-.15.43,1.5,1.5,0,0,1-1,.28h-2.08A2.53,2.53,0,0,0,110.52,55a2.36,2.36,0,0,0,2.55,2.35,2.24,2.24,0,0,1,.49,0,.61.61,0,0,1,.47.68.58.58,0,0,1-.55.59,2.33,2.33,0,0,1-.48,0H95.59c-.48,0-.8-.25-.82-.63S95.08,57.35,95.56,57.32Z"/><path class="cls-1" d="M37.62,36.57H62.37a2.92,2.92,0,0,0,3.06-2.77,2.88,2.88,0,0,0-2.91-2.91l-.38,0a4.31,4.31,0,0,1-.64,0,1.23,1.23,0,0,1-.86-.57,1.16,1.16,0,0,1-.1-.93,1.53,1.53,0,0,1,1.55-1h3.3a3.42,3.42,0,0,0,2.44-.92,2.71,2.71,0,0,0,.76-2,2.92,2.92,0,0,0-3.2-2.79H44.45a3.5,3.5,0,0,0-2.53.95,2.68,2.68,0,0,0-.75,2c0,1.61,1.36,2.75,3.23,2.76h2.32c.9,0,2,.22,2,1.28a1,1,0,0,1-.28.8,2.46,2.46,0,0,1-1.74.51H37.6A3.18,3.18,0,0,0,35.09,32a2.8,2.8,0,0,0-.58,2.32A3,3,0,0,0,37.62,36.57Zm-.06-3.87h8.83c.4,0,.8,0,1.19,0a3.08,3.08,0,0,0-.06-6.15c-.37,0-.74,0-1.12,0H44.29a1.4,1.4,0,0,1-1-.39.92.92,0,0,1-.24-.69c0-.58.55-1,1.29-1H65c1.75,0,1.76.74,1.76,1a.82.82,0,0,1-.23.64,2.18,2.18,0,0,1-1.54.43H62a3.3,3.3,0,0,0-3.42,3.21c0,1.74,1.39,2.94,3.41,3a3.21,3.21,0,0,1,.73.06,1,1,0,0,1,.76,1.05.93.93,0,0,1-.89.9,4.9,4.9,0,0,1-.7,0H37.62c-.75,0-1.28-.39-1.31-1S36.81,32.74,37.56,32.7Z"/><path class="cls-1" d="M25.73,98.82H43.46a2.25,2.25,0,0,0,.12-4.5H43.3a3.15,3.15,0,0,1-.44,0,.78.78,0,0,1-.52-.36.81.81,0,0,1-.07-.65,1,1,0,0,1,1-.71h2.36a2.47,2.47,0,0,0,1.8-.69A2.21,2.21,0,0,0,48,90.28a2.25,2.25,0,0,0-2.41-2.21h-15a2.6,2.6,0,0,0-1.86.71,2.2,2.2,0,0,0-.6,1.59,2.24,2.24,0,0,0,2.43,2.18h1.66c.86,0,1.31.3,1.33.88a.77.77,0,0,1-.19.55,1.61,1.61,0,0,1-1.15.33H25.72a2.38,2.38,0,0,0-1.86.81,2.27,2.27,0,0,0,1.87,3.7Zm0-2.93H32c.29,0,.57,0,.86,0A2.43,2.43,0,0,0,32.83,91L32,91H30.51a.8.8,0,0,1-.6-.24.65.65,0,0,1-.17-.47c0-.38.34-.63.81-.63H45.31c1.14,0,1.15.46,1.15.64a.61.61,0,0,1-.15.43,1.47,1.47,0,0,1-1,.28H43.22a2.53,2.53,0,0,0-2.56,2.53,2.36,2.36,0,0,0,2.55,2.35,2.25,2.25,0,0,1,.49,0,.62.62,0,0,1,.47.69.58.58,0,0,1-.55.59,2.33,2.33,0,0,1-.48,0H25.73c-.48,0-.8-.25-.82-.63S25.22,95.92,25.7,95.89Z"/><path class="cls-1" d="M55,107.05h1.65a1.91,1.91,0,0,0,1.34-.52,1.63,1.63,0,0,0,.46-1.2,1.67,1.67,0,0,0-1.8-1.66H46.17a1.93,1.93,0,0,0-1.39.53,1.66,1.66,0,0,0-.45,1.2,1.7,1.7,0,0,0,1.82,1.65h1.16c.78,0,.79.35.8.49a.35.35,0,0,1-.1.29,1,1,0,0,1-.71.2H42.75a1.79,1.79,0,0,0-1.4.6,1.71,1.71,0,0,0,1.41,2.79H55.14a1.7,1.7,0,0,0,.09-3.39H55a1.28,1.28,0,0,1-.29,0,.4.4,0,0,1-.28-.19.43.43,0,0,1,0-.35A.55.55,0,0,1,55,107.05Zm0,2.33a1.37,1.37,0,0,1,.31,0,.31.31,0,0,1,.24.35.29.29,0,0,1-.29.3,1.56,1.56,0,0,1-.31,0H42.75c-.2,0-.43-.09-.44-.32s.16-.36.43-.38h5a1.81,1.81,0,0,0,1.69-1.81,1.76,1.76,0,0,0-1.72-1.82H46.1a.47.47,0,0,1-.34-.12.35.35,0,0,1-.08-.24c0-.24.24-.33.44-.33H56.43c.67,0,.67.23.68.33a.28.28,0,0,1-.07.21,1,1,0,0,1-.62.16H55a1.89,1.89,0,0,0-1.91,1.89A1.79,1.79,0,0,0,55,109.38Z"/><path class="cls-1" d="M142.16,129.69H89.71c-3.27-6.42-7.26-14.14-10.43-20.21a1.62,1.62,0,0,1,.14-2,8.2,8.2,0,0,0,1.14-2.34,1.4,1.4,0,0,0-.46-1.23,18.11,18.11,0,0,0-17.74-.41,1.32,1.32,0,0,0-.44,1.2,23.22,23.22,0,0,0,1.95,3.69,1.42,1.42,0,0,1,.19,1.73C61,116,57.16,123.47,54,129.69H1a1,1,0,0,0,0,2H142.16a1,1,0,0,0,0-2Zm-75.19,0H58.34c2.84-5.51,5.63-10.93,8.43-16.34l.2,0Zm5.64,0H70.77V111.93l1.84-.11Zm3.75,0V112.77l.21-.08c2.9,5.63,5.8,11.26,8.77,17Z"/><path class="cls-1" d="M121.87,136.43a1,1,0,0,0-.93-1H22.2a1,1,0,0,0,0,2h98.74A1,1,0,0,0,121.87,136.43Z"/><path class="cls-1" d="M123.81,171H19.33c-.4,0-.73.46-.73,1s.33,1,.73,1H123.81c.4,0,.72-.46.72-1S124.21,171,123.81,171Z"/><path class="cls-1" d="M34.34,166.25c0,.57.31,1,.69,1h73.08c.38,0,.68-.45.68-1s-.3-1-.68-1H35C34.65,165.24,34.34,165.69,34.34,166.25Z"/><path class="cls-1" d="M50.6,148.24a1.64,1.64,0,0,1,1.51-.77,2.2,2.2,0,0,1,1.51.45,2,2,0,0,1,.52,1.5h2.75a4.37,4.37,0,0,0-1.44-3,4.9,4.9,0,0,0-3.34-1.09,4.67,4.67,0,0,0-2.54.69,4.38,4.38,0,0,0-1.68,1.94,6.92,6.92,0,0,0-.59,2.94v.56a6,6,0,0,0,1.3,4.15,4.49,4.49,0,0,0,3.54,1.46,5.56,5.56,0,0,0,2.43-.5,3.83,3.83,0,0,0,1.65-1.42,4.09,4.09,0,0,0,.64-2.1H54.13a1.88,1.88,0,0,1-.54,1.42,2.1,2.1,0,0,1-1.45.44,1.68,1.68,0,0,1-1.58-.78,5.39,5.39,0,0,1-.46-2.61v-.81A5,5,0,0,1,50.6,148.24Z"/><polygon class="cls-1" points="58.17 145.47 58.17 156.9 60.92 156.9 60.92 152.13 64.97 152.13 64.97 156.9 67.71 156.9 67.71 145.47 64.97 145.47 64.97 150.01 60.92 150.01 60.92 145.47 58.17 145.47"/><rect class="cls-1" x="69.64" y="145.47" width="2.75" height="11.42"/><polygon class="cls-1" points="81.1 156.9 83.84 156.9 83.84 145.47 81.09 145.47 81.09 152.58 77.06 145.47 74.3 145.47 74.3 156.9 77.06 156.9 77.06 149.79 81.1 156.9"/><path class="cls-1" d="M92.21,154.76l.67,2.14h3l-4.23-11.43H89L84.84,156.9h2.94l.66-2.14Zm-1.89-6.09,1.23,4H89.1Z"/></g></g></svg>