<svg xmlns="http://www.w3.org/2000/svg" viewBox="0 0 143.14 173"><defs><style>.cls-1{fill:#f4436c;}</style></defs><title>Asset 20</title><g id="Layer_2" data-name="Layer 2"><g id="Layer_1-2" data-name="Layer 1"><path class="cls-1" d="M142.16,129.69H84.22c1.56-.3,3.09-.64,4.57-1a18.89,18.89,0,0,0,3.68-1.5,3,3,0,0,0,1.92-2.85c0-.81,0-1.61,0-2.42,0-1,0-2,0-3a2.56,2.56,0,0,0-.56-1.46,6.27,6.27,0,0,0-1.47-1.19,19.4,19.4,0,0,0-5.48-1.93l-.61-.16,1.12-1.22.11-.11c1.13-1.23,2.3-2.5,3.37-3.82a22.39,22.39,0,0,0,5.34-15.62,40.84,40.84,0,0,0-.79-7.13c-.09-.44-.16-.89-.24-1.35s-.18-1.09-.29-1.63c-.17-.85-.35-1.7-.52-2.55l0-.15c-.21-1-.42-2.06-.62-3.09a11.49,11.49,0,0,1-.15-1.23v-.09l3-.22a5.61,5.61,0,0,0,2.72-.78,1,1,0,0,0,.41-1.08c-.41-1.12-.84-2.24-1.26-3.36l-.81-2.12a45,45,0,0,1-2.28-8.52l-.06-.36a11.61,11.61,0,0,1-.18-1.49.6.6,0,0,1,.17-.22c.68-.28,1.38-.53,2.1-.8l1-.36.8-.32,1.39-.58s-4.56-5-5.67-16c0-.31,0-.37.36-.47.83-.26,1.63-.56,2.38-.84a1.26,1.26,0,0,0,1-1.29v-.19l-.14-2.4,0-.19c-.13-1.1-.32-2.24-.5-3.24l0-.28A24.58,24.58,0,0,0,96,25.1a19.47,19.47,0,0,0-5.2-7.22c-.15-.13-.14-.16-.1-.28l.1-.3a7,7,0,0,0,.22-.82,12.33,12.33,0,0,0-.65-6.15l-.27-.79-.56.62-.44.5a9,9,0,0,1-.85.89,17.49,17.49,0,0,1-6.63,3.34,42.08,42.08,0,0,1-8.09,1.29l-.35,0q-.92.09-1.83.15l-2.52.22A21,21,0,0,0,63,18.08a10.75,10.75,0,0,0-6,5.24c-.05.11-.12.21-.19.35a2.18,2.18,0,0,0-.35,2c-.52.38-1.06.75-1.6,1.11-.16.11-1.88,1-2.7,1.38l-1.06.53-.45.25.26.44c.2.35.4.58.71.58a1.52,1.52,0,0,0,.65-.21l.45-.23C55.21,28.31,55.86,28,56,28a2.57,2.57,0,0,0,1.89-2.15,8.05,8.05,0,0,1,1.81-3.4A12.21,12.21,0,0,1,66,18.84a35.83,35.83,0,0,1,7.48-1c1.08-.07,2.32-.14,3.52-.34,1.79-.3,3.7-.64,5.55-1.1a16.72,16.72,0,0,0,6-2.83c.26-.19.52-.4.79-.62a9.38,9.38,0,0,1-.12,3.85,3,3,0,0,1-.18.37,1.42,1.42,0,0,0-.26,1,1.66,1.66,0,0,0,.78.91l.26.2c2.93,2.59,4.88,6,6.14,10.77a20.28,20.28,0,0,1,.52,2.68c.15,1,.26,2.08.38,3.12L97,36.89c0,.13,0,.13-.16.19-.84.28-1.72.61-2.85,1.06a1.1,1.1,0,0,0-.68.85,23.29,23.29,0,0,0,.42,6,29,29,0,0,0,2,6.46c.29.64.59,1.27.9,1.92l1,1.9-1.52.55c-.68.26-1.36.52-2,.8a1,1,0,0,0-.61.87l0,.6a13.38,13.38,0,0,0,.19,2.27c.36,1.82.81,3.72,1.36,5.79.3,1.14.71,2.26,1.1,3.37l.09.24c.33.93.69,1.84,1,2.76l.5,1.3-1,.16c-.84.13-1.71.26-2.56.33H94a8,8,0,0,1-.94-.08q-.39-.06-.78-.09A19.14,19.14,0,0,1,87.13,73a34.82,34.82,0,0,1-6.25-2.93c-.53-.31-.6-.56-.56-.91l.11-.9c.13-1.15.27-2.31.44-3.46l0-.25c.21-1.44.43-2.92.75-4.35.63-2.88,1.17-5.1,1.75-7.18s1.22-4.13,2.11-6.78c.54-1.58,1.16-3.13,1.86-4.84.44-1.08.9-2.15,1.35-3.23.59-1.4,1.19-2.8,1.75-4.21A12.81,12.81,0,0,0,91,28.3a23.29,23.29,0,0,0-1.38-4A9.8,9.8,0,0,0,82,18.43c-.57-.09-.67-.13-.72-.48l0-.17-1,0V18a2,2,0,0,1-1.31,1.87c-1.14.49-2.33,1-3.64,1.42a16.79,16.79,0,0,1-1.7.49l-.76.2-.56.15,3.41,7.57.42-.12a9.38,9.38,0,0,0,3.55-1.93,14.4,14.4,0,0,1-2,6.43,21.81,21.81,0,0,1-7.61,7.55L67.83,43c-2.36,1.46-4.79,3-7.16,4.55a25.94,25.94,0,0,0-5.57,4.89l.43-.72-.76-.08c-1.53-.18-2.35-.54-2.74-1.22a4.78,4.78,0,0,1-.38-1.07,7.32,7.32,0,0,0-.26-.88,2.6,2.6,0,0,1,1.18-2.9,10.35,10.35,0,0,1,4.35-1.15c.89-.1,1.82-.16,2.65-.21s1.6-.1,2.39-.18a4.18,4.18,0,0,0,3.54-2,4.44,4.44,0,0,0-.29-4.41A3,3,0,0,0,63,36a7.06,7.06,0,0,0-1.21-.1,8.31,8.31,0,0,0-2.94.55c-.74.27-1.47.56-2.21.85-1.07.42-2.28.9-3.46,1.29A3.94,3.94,0,0,1,52,38.8a2.69,2.69,0,0,1-.79-.11A7.36,7.36,0,0,1,47.94,36a4,4,0,0,0,2.28-4,2.05,2.05,0,0,0-.93-1.52,2.09,2.09,0,0,1-.28-.24h0l.45-.34.46.73,1-.09V30a1.09,1.09,0,0,0-.09-.62.77.77,0,0,0-.65-.35H50l-.46-.11-.11.39-1.39.48a4.35,4.35,0,0,0-2.62,2.12,3.94,3.94,0,0,0-.11,2.94,5.51,5.51,0,0,0,1.14,2l.17.21a15.2,15.2,0,0,0,2.56,2.51,10.58,10.58,0,0,1,2.12,2.2l.37.47a.72.72,0,0,1,0,.38,4.2,4.2,0,0,1-.26,1.11,6.66,6.66,0,0,1-.6,1.09,2.51,2.51,0,0,1-.28.35,3.73,3.73,0,0,0-.44.57,5.24,5.24,0,0,0-.3,3.81,4.1,4.1,0,0,0,3,3.47l-.48,1c-.45.9-.92,1.83-1.32,2.77a15.16,15.16,0,0,0-1.39,5.42v.1l-.15,0a7.26,7.26,0,0,0-1.93-.28,6.1,6.1,0,0,0-2.94.76,1.12,1.12,0,0,1-.5.19l-.18,0a8,8,0,0,0-2.39-.39,6.22,6.22,0,0,0-2.44.49c-1.73.72-2.35,2.19-1.74,4.14a5.25,5.25,0,0,0,3.33,3.12,16.68,16.68,0,0,1,4,2.27c3,2.43,4.59,5.77,4.92,10.2a29.6,29.6,0,0,1-.1,4.21l-.06,1c-.06.92-.16,1.85-.25,2.75l.19,0h0l-.2.07c-.07.62-.13,1.23-.18,1.84v.12a33.15,33.15,0,0,0-.11,7.19,29.86,29.86,0,0,0,1.55,6.47,20,20,0,0,0,5.25,8,19.17,19.17,0,0,0-5.25,1.88,3.5,3.5,0,0,0-2.1,3.52,38.48,38.48,0,0,1,0,4v.48a2.66,2.66,0,0,0,1,2.23A8.74,8.74,0,0,0,51,127.54a27.89,27.89,0,0,0,7.23,2.14H1a1,1,0,0,0,0,2H142.16a1,1,0,0,0,0-2Zm-89-88.28c0-1,.69-1.3,1.77-1.67l4-1.55a8.17,8.17,0,0,1,2.93-.59l.5,0a2.11,2.11,0,0,1,1.8,1.93c0,.13,0,.26,0,.42l0,.33c.13,1.25-1.13,1.83-1.89,2s-1.53.21-2.37.29l-.81.07-4.64.46L54.43,43c-.45-.33-.92-.67-1.32-1,0,0,0,0,0-.23A.86.86,0,0,0,53.17,41.41ZM47,34.48a1.66,1.66,0,0,1-.24-1.42,2.65,2.65,0,0,1,.27-.42,1.9,1.9,0,0,0,.47-1.08c0-.26.09-.31.36-.48l.3-.21,0,0,0,0a1.92,1.92,0,0,1,.39,1.45A2.61,2.61,0,0,1,47,34.48Zm45.05,69.57-.1-.11a1.22,1.22,0,0,0-.92-.5h0a1,1,0,0,0-.74.52,5.67,5.67,0,0,1-.53.66l-.1.11-.41-1.42-1.6.35,1.25,4.68,2.27-2.77a34.91,34.91,0,0,1-2.09,2.92c-.13.16-.27.31-.41.47a7.47,7.47,0,0,0-.76,1,3.15,3.15,0,0,1-1.72,1.15l.06-.69-.18-.11,2.83-1.62-.85-1.43-2.27,1.25.1-1.16-.34-.14a2.59,2.59,0,0,0-.45-.12c.61-.64,1.21-1.28,1.79-1.93a1.05,1.05,0,0,0,.18-.79L89.9,100l2.17,3.74,1.7-3.75A20.36,20.36,0,0,1,92.08,104.05Zm-8,1.69-.09-.36c-.1-.42-.2-.84-.33-1.33a1,1,0,0,0-.44-.71.69.69,0,0,0-.34-.09.78.78,0,0,0-.33.07c-.44.16-.56.82-.51,1.13.1.63.26,1.25.4,1.8l0,.11c.1.41.22.81.35,1.28l.4,1.47,1-1v0a1.86,1.86,0,0,1,0,.28,1.25,1.25,0,0,0,0,.19l-.28,1.78-.13-.1-1.7.87V111a6.69,6.69,0,0,0,0-1,.87.87,0,0,0-.38-.58l-.08-.07-.07-.08,1.48-1.08-1.08-1.29-2.53,1.81-.06-1.27h-1l2.41-2.21-.22-.38.94-.93c1-1,2-2,2.88-2.91a.62.62,0,0,0,.17-.48.19.19,0,0,1,0-.08l.75-1.09.07.22h0l1.21,4.07-.12,0a1.31,1.31,0,0,0-.59.26c-.35.34-.67.69-1,1.05Zm.42,5.45q-.1.54-.18,1.11l-.18,1.07-.29-.46-1.3.77-.11-.77h-.2l1.55-.78a1,1,0,0,0,.63-.78v-.12Zm-4.29,4.24-.16-.37-1.53.33.24-1.28-.15,0c.33-.14.68-.28,1-.39a1.2,1.2,0,0,0,.7-.5v.69l.59-.29v2.55c-.26.17-.53.32-.78.47a.74.74,0,0,0,.12-.17A1.1,1.1,0,0,0,80.18,115.43Zm-3.92,2.18.68-.15.81-.2c.54-.13,1.1-.27,1.63-.35a1.31,1.31,0,0,0,.27-.06,13.15,13.15,0,0,1-3,1.31l0-.46Zm-1.67-1.56H75a2.36,2.36,0,0,1,.38,0l.56.07V115l.53-.14.44-.1-.79,2.89-1.33-.24.55-.36Zm-.14-2.62,2.16-1.05-.8,2H74.48l.6-.93Zm-3.26,4a1,1,0,0,0-.59-.69l-.22-.13.87-.41-.4-1.58L68,115.79l.31-.72-.93-.48.42-.23-.09-.32h4.86q-.18.18-.33.36l-.28.31-.34.37.37.33a2.59,2.59,0,0,0,1.67.67l-3,2.34,3,.46a7.71,7.71,0,0,1-1.41.16,3.3,3.3,0,0,1-2.08-.67l.22,0a.81.81,0,0,0,.82-.92Zm-3.49.08.46-.23.92.54-.14,0-.11.18a1.08,1.08,0,0,1-.9.62l.29-.8Zm-3-1.94-.12-.11.13-.12,0-.18,2,1-1.71.62a.76.76,0,0,0,.08-.21A1.12,1.12,0,0,0,64.72,115.61Zm-2.83-.08a1.12,1.12,0,0,0,.41-.12l1.53,1.8-.39.14c-.5-.22-1-.45-1.44-.7l.37-.35Zm-6.23-6.42.12-.14.07-.07a1.08,1.08,0,0,0,.3-.46,1.17,1.17,0,0,0,.05-.3l.68-.33V110ZM56.88,111v.48l-.3-.1Zm-2-16.31,0,0h0A44.35,44.35,0,0,0,55,85.3a51.28,51.28,0,0,0-.77-5.22,17.55,17.55,0,0,0-.8-2.64L53.28,77l2.32-.58.08.28c.16.53.32,1.06.46,1.59a31.63,31.63,0,0,1,.68,8.89c0,.94-.14,1.9-.24,2.88-.07.62-.13,1.23-.18,1.85,0,0,0,.06,0,.13a1,1,0,0,0,.13.93,1,1,0,0,0,.82.3l.55,0,.28-2a41.06,41.06,0,0,0,.26-9.29,20,20,0,0,0-1.21-6c1.16-.31,2.32-.6,3.48-.9h.05a.08.08,0,0,0,0,0,5.57,5.57,0,0,0,.14.78c0,.18.08.36.11.54a22.52,22.52,0,0,1-.14,7,26.31,26.31,0,0,1-2.17,7.22.94.94,0,0,0-.1.79.84.84,0,0,0,.52.49,1,1,0,0,0,.39.09.66.66,0,0,0,.27-.06,1,1,0,0,0,.47-.58,31,31,0,0,0,2.25-7.61,27.69,27.69,0,0,0,.21-7,2.62,2.62,0,0,1,0-.28,12.88,12.88,0,0,1,1.1.68,7,7,0,0,1,2.61,3,5.44,5.44,0,0,1,0,4c-1.34,3.85-4.21,6.63-6.85,9l-.13.1-.93.84.13.32a1.8,1.8,0,0,0,.22.37l-.46.23.77,1.19-.54.09.41,1.6.43,0,.29,0c.21,0,.4,0,.59-.09a17.7,17.7,0,0,1,4.41-.55c.62,0,1.25,0,1.88.09a5.54,5.54,0,0,1,1.85.61,2.26,2.26,0,0,1,1.32,2.23,6.91,6.91,0,0,1-.52,2.58,6.79,6.79,0,0,0-4.39-4,13.85,13.85,0,0,0-4.15-.56c-.83,0-1.71,0-2.86.15a1.68,1.68,0,0,0-.49.12.73.73,0,0,0-.13-.5c-.24-.33-.51-.64-.83-1l-.43-.5.52-.78-.83-.49C55.42,95,55.14,94.82,54.89,94.64Zm.32,2.15L55,98.64l-.84-.51-.47-.58.8.16.19-1.2Zm9.48-22c.68.67,1.38,1.31,2.09,2l1,1,2.37-4.15.42.5h0l.87,1.15c.41.53.8,1,1.17,1.56a.93.93,0,0,0,.7.46h.05a1,1,0,0,0,.69-.35l1.48-1.47.51-.51c.47-.46.51-.9.14-1.32a.85.85,0,0,0-.63-.31,1,1,0,0,0-.71.38L74.6,74c-.37.37-.75.74-1.11,1.12-.26-.36-.53-.71-.83-1.1L72,73.1l-.82.6.6-.74c.47-.58.92-1.14,1.36-1.72a.85.85,0,0,0,.19-.72l1,1.19.84-.95,2.09,4.48,1.36-1.09.66-.53a2,2,0,0,0-.31.41l-.21.34,3,2.79-.58.54,2.38,2.63-1-.63-.73.87c-.26.3-.5.59-.74.89-.37-.37-.76-.73-1.15-1.09l-.85-.81-2.7,3,.25.27,2.18-1.6,1,1.23a1,1,0,0,0-.68-.3h0c-.32,0-.49.26-.68.53-.07.09-.13.19-.2.3l-.8,1.2L75.59,82l.41-.42a1.12,1.12,0,0,0,.43-1,1,1,0,0,0-.6-.72l-.32-.16-.76.73c-.33.33-.67.65-1,1-.19-.22-.39-.43-.59-.64L72.38,80l-.31.66a1.83,1.83,0,0,0,.7,2.36,1.8,1.8,0,0,1,.2.19,1,1,0,0,0,.72.38h0a1,1,0,0,0,.72-.35L76,85.16l-.62-.44-.64,1c-.25.4-.49.78-.72,1.17-.29-.4-.59-.79-.93-1.22l-.78-1-.93.84-.07-.1.88-1.2c.55-.75.42-1-.29-1.57l-.39-.3L70.24,84,69,81.94l-.6.37a8.78,8.78,0,0,0,0-1.35,6.34,6.34,0,0,0-2.44-4.26,25.07,25.07,0,0,0-2.23-1.55l-.77-.49-.17-.09c.61-.18,1.23-.34,1.83-.5A.75.75,0,0,0,64.69,74.8ZM78,66.69l.65.44a.68.68,0,0,1,.15.38c0,.46,0,.94,0,1.41,0,.26,0,.52,0,.78a1.79,1.79,0,0,0,.77,1.5l-.12.1L78,72.45l-.15.12s0,0,0,0l-.37-.83c-.16-.36-.32-.72-.49-1.08-.11-.21-.3-.6-.7-.67l-.12,0a.78.78,0,0,0-.31.07c.63-.7,1.25-1.4,1.88-2.07a1.11,1.11,0,0,0,.38-.93A.79.79,0,0,0,78,66.69Zm-2.09.69-1.51,1.7a1.26,1.26,0,0,0-.2-.2L71.5,65.65l.91-.36c.71-.29,1.43-.57,2.09-.82l.09,0,.2.13L77,66.07ZM72.9,70l-.24-.11-.46-.2-1.5,1.81-2.62-3-1,.63v-.65c0-.11,0-.23,0-.34a2.54,2.54,0,0,0,0-.39c0-.16,0-.43,0-.45l.3-.07a2.25,2.25,0,0,0,.48-.12l2-.79Zm-5.79,2.29v-.15c0-.75,0-1.51,0-2.26l2,2.32-.64,1.08c-.34.59-.67,1.16-1,1.73-.55-.54-1-1-1.41-1.33l.26-.06A1.14,1.14,0,0,0,67.11,72.32ZM89.84,86.14,91,87.69l-.13-.09-.51.81c-.14.21-.26.4-.4.64l-.18-.25a8.41,8.41,0,0,0-.59-.78.76.76,0,0,0-.59-.22h-.14Zm-.89-4,1-1.19L90,81l.3-.32,1,2.16a1,1,0,0,0-.42-.1h-.13a1,1,0,0,0-.7.58.21.21,0,0,0,0,.06l-.07-.1-.61-.75Zm4.48,16.16-.63-.22-.92,1.94-.57-.93-.3-.37-.37.23-.17-.38.37-.46a.61.61,0,0,0,.17-.78,1.52,1.52,0,0,0-.52-.46.55.55,0,0,0-.25-.07.66.66,0,0,0-.45.23l-1.1-2.49-.78.45L90,92l.1.14.16-.28,1.81,3.62a.55.55,0,0,0,.1.22,2.41,2.41,0,0,0,.29.36l-.19,0Zm-5.18,1.3a.84.84,0,0,0,0,.18.92.92,0,0,0-.47.38l-.54.75-.57-.82a.59.59,0,0,0,.13-.18,1.07,1.07,0,0,0,0-.91,1.33,1.33,0,0,1,0-.19l-.08-.59-1,.31L87.54,96a4,4,0,0,0,2.1,2.86l.7.31-.46.29L88.24,99Zm-20.54,12.5,1.12-1-.7-.26c.75-.1,1.51-.21,2.26-.34a.82.82,0,0,0,.59-.35,1,1,0,0,0,.06-.77l0-.11-.05-.51-1.44.2.34-.45a1.11,1.11,0,0,0,.29-1,1,1,0,0,0-.65-.61,5.23,5.23,0,0,0,.29-2.34l.14,0,1.17,4.73,1.1-1-.46,2.71-.29-.19-.32-.2-2.16,2,0-.13Zm1.16-26.2c1.67.59,2.18,1.54,1.7,3.19L70,90.88a6,6,0,0,0-.75,0,8.45,8.45,0,0,0-1.84.23,20.89,20.89,0,0,0-4.74,1.66,22.37,22.37,0,0,0,5.05-7.11l.13,0C68.23,85.73,68.55,85.82,68.87,85.93Zm-.62-1.8V84l.06.1ZM68,92.69a6.8,6.8,0,0,1,1.18-.1,5.13,5.13,0,0,1,1.41.18c.85.25,1.29,1,1.3,2.27a11.71,11.71,0,0,1-.16,1.71l-.12.82-.11,1-.16.11a4,4,0,0,0-1.9-2.2,8.68,8.68,0,0,0-4-.92l-.56,0a21.39,21.39,0,0,0-2.54.2l-.28,0c-.66.07-1.28.19-2,.32l-.15,0,.46-.26,1.13-.64A21.42,21.42,0,0,1,68,92.69Zm4.09,13.53-.68-2.56-.67.13a8.49,8.49,0,0,0,.8-4.1l2.31,5Zm1.57-6-.52-1.16c0-.06,0-.12-.08-.17l.08-.35a13.71,13.71,0,0,0,.43-3.34l.89,1.39.43-.62,1.28,2.4.44.83-2.28,2.49C74.07,101.23,73.85,100.74,73.63,100.25Zm2.31-5.81,1.8-2.61-.24-.29a1.22,1.22,0,0,0-.88-.57h0c-.38,0-.59.33-.77.59l-.33.48c-.34.48-.67,1-1,1.51-.39-.65-.79-1.29-1.21-2l-.8-1.28-.67.41a4.34,4.34,0,0,0,.43-3.39l1.94,2.56L75.39,88a1.37,1.37,0,0,0,.13.85,4,4,0,0,0,.47.62l.21.25,2,2.58,0,0a1.28,1.28,0,0,0,.18.37c.49.79,1,1.58,1.51,2.49l.21.35-.26-.23-2.24,2.37ZM87.23,93l0-.07-.27-.47c-.16-.29-.32-.58-.5-.86a1,1,0,0,0-.76-.36.72.72,0,0,0-.36.1.94.94,0,0,0-.18.17l.08-.11c.52-.79,1-1.58,1.54-2.38a.83.83,0,0,0,.09-.5l.56.61.35-.43a.59.59,0,0,0,.09.24l1.45,2,.41.55-1-.6Zm.29,2.87-.15-.1.09-.13v0A1.6,1.6,0,0,0,87.52,95.9ZM86,87.69h0a1,1,0,0,0-.67.5c-.24.4-.5.8-.78,1.23l0,.07c-.29-.44-.56-.84-.81-1.25a1,1,0,0,0-.78-.54.64.64,0,0,0-.22,0l1.27-1.87.26.34.28-.29,1.62,1.78Zm-3.43-2.84-.1.16-1.1,1.62c-.41-.36-.84-.7-1.31-1.08l-.88-.71L80.31,83l.86,1L82,83a.8.8,0,0,0,.09.52c.4.56.82,1.12,1.27,1.72l.43.56Zm-.84,4.25.35-.52a1.15,1.15,0,0,0,.12.55c.44.71.89,1.4,1.35,2.09a.87.87,0,0,0-.31,0h0a1,1,0,0,0-.73.48c-.24.33-.5.66-.75,1l-.67.89-.05.07,0-.08c-.38-.6-.75-1.2-1.1-1.81a1,1,0,0,0-.56-.51.55.55,0,0,0-.18,0l-.16,0,1.91-2.61-1.33-1-.74,1-.64.86-.43-.57-.07-.09c-.23-.3-.46-.6-.68-.91a1,1,0,0,0-.8-.5.84.84,0,0,0-.53.22l1-1.66,1,1.19.54-.83Zm-.87,7.5h0l.1-.13.17-.18h0l.36-.47a.56.56,0,0,0,0,.12c.6,1.1,1.22,2.2,1.85,3.33l.24.42a.9.9,0,0,0-.5.16c-.22.18-.42.39-.62.59l-1.39,1.37-.85-3.72-1,.26ZM83,95.15a.9.9,0,0,0-.72-.38c.55-.72,1.09-1.43,1.61-2.14A1.1,1.1,0,0,0,84,92l.24.31.38-.21a.71.71,0,0,0,.31-.24l.12-.18a.89.89,0,0,0-.09.83c.42.77.86,1.52,1.34,2.36l.25.44L86.17,95l-1.83,2.6L84,96.94C83.63,96.34,83.3,95.74,83,95.15ZM92.3,92l-.7-1.3-1,.65L92,89l.32.43.23-.42.89,1.22Zm-5-5.46-1.83-1.74c.39-.4.77-.8,1.13-1.21a.88.88,0,0,0,.18-.43l.72.84.41-.51,1,1.18Zm.87-6.14c-.25.32-.5.62-.73.94-.27-.33-.56-.65-.85-1l-.72-.8L84.6,80.73l1.25,1.44a1,1,0,0,0-.56.34c-.29.33-.59.65-.94,1l0,0c-.27-.37-.52-.71-.8-1a1,1,0,0,0-.71-.29,1.16,1.16,0,0,0-.18,0l1.26-1.55.35.39,2.63-3,1.8,1.66ZM58.42,106.86l.17,0-.16-1,.29.16.18-.2c0,.2,0,.4,0,.61s0,.46,0,.69Zm.48,2.85-.61-.28h.18l.05-.6.39.14S58.91,109.52,58.9,109.71ZM56.13,99.48c.27-.1.51-.19.74-.3a1.71,1.71,0,0,0,.07.65c.07.27.13.54.2.86L55.78,100Zm.7,3,.74.32.13-.15.42,1.12-1.36-.8Zm1.58,9.39.05-.26.28.54c-.25-.1-.51-.19-.78-.28Zm.45,2.47a.34.34,0,0,0,.06-.12l.68,1c-.34-.22-.65-.45-1-.68A.73.73,0,0,0,58.86,114.29ZM59,114v0l.07,0Zm.56-2.87.71-.4.1-.08a.84.84,0,0,0,.2-.54l.59.28.09-.44.66,1.75h-.37l.17-.36H59.61Zm.13-2.81.16-.31.24,0,.38,0,0-.09c.19.21.38.41.57.59Zm.18,5.31.4.3.39-.54.23-.33a1.41,1.41,0,0,0,.19-.34l.05-.11.56.46c.5.42,1,.8,1.41,1.15a.74.74,0,0,0,.29.12c-.18.13-.36.27-.55.43l-.14.11a1.18,1.18,0,0,0,0-.46l-.06-.42H59.68l-.07-.52Zm3.29-1.93.1-.11a1,1,0,0,0,.08-.85l0,0,2.76.58-.66.59-.55.47v-.65Zm1.75,1.57v-.17l.24.07.78.2.07,0-1.54.54,0-.32c0-.08,0-.18,0-.29Zm1.77-2.43-.5.41.34-1.41-.08,0,.61-.28-.63.85ZM66,108.15a3.27,3.27,0,0,1-1.26.28,4.06,4.06,0,0,1-3-1.82,14.83,14.83,0,0,1-2.5-4.93c-.17-.56-.33-1.11-.48-1.67l-.19,0,.14-.13c.31,0,.62,0,1-.06l.51,0c.28,0,.58,0,.88,0h.13a17.27,17.27,0,0,1,2.43.22,5.51,5.51,0,0,1,4.55,4.94A3.4,3.4,0,0,1,66,108.15Zm1.7,5.74,0,0v0Zm5.89-1.19,0-.4H71.87a.92.92,0,0,0,.26-.57L74,110.56Zm.28-4,.15-1.19-.69,0,2.13-1.85-1.06-1.31-.31.26,3.48-3.83a.94.94,0,0,0,.29-.81v0l.88-1,1.19,5.39a1,1,0,0,0-.32-.08,1.17,1.17,0,0,0-.81.45c-.38.42-.79.82-1.22,1.24l-.09.09-1.17-2.8H75.9a1,1,0,0,0-.85.37,1,1,0,0,0,0,1l1,2.56.69,1.75,1-.87v2.86l-.74-.51-1.27.6a1.48,1.48,0,0,0-.11-1.37l.76-.57-.9-1.31Zm4.69,2.73,1.79-1.31c0,.73,0,1.46,0,2.23v.15a1.93,1.93,0,0,0-.23-.37l-.21-.29-1.4.49.27-.76ZM94.38,91.92l0,0a2.83,2.83,0,0,1,.09.37,4.36,4.36,0,0,1,0,.64,3.94,3.94,0,0,0,.08,1l-.82,2.1h-.05a1.07,1.07,0,0,0-.32-1.11l-.07-.07a.7.7,0,0,0-.52-.21h0l.4-.67C93.59,93.2,94,92.56,94.38,91.92Zm-.59-5.16c0,.41.09.82.12,1.22l-.31-.36-.46.32ZM93,82.85l.09.43-.33.07H92.7Zm-.11,2.07-.79,1.38L91,85l.67-1.1.31.68.25-.42a.73.73,0,0,0,.39.69ZM92.23,79a3.14,3.14,0,0,0,.17.77,1.15,1.15,0,0,1-.22,1.13.29.29,0,0,1,0-.09,1,1,0,0,0-.59-.73.75.75,0,0,0-.26,0,1.12,1.12,0,0,0-.51.15l1.38-1.45Zm-7.59-5.16a29.52,29.52,0,0,0,2.8,1c1,.31,2.13.54,3.2.76l.94.2c.14,0,.17,0,.19.12L91.92,77v0h-.11a1.16,1.16,0,0,0-.82.46l-.39.4c-.25.26-.5.51-.73.78l0,0c-.39-.37-.78-.72-1.26-1.15l-.93-.84-.74.94-1-.83-.72.78a11.39,11.39,0,0,0-.92,1,.17.17,0,0,1-.06.06l-.09-.09c-.35-.36-.73-.71-1.1-1L82.53,77l-.18-.17.39-.35c.56-.51,1.15-1,1.71-1.59A1.08,1.08,0,0,0,84.64,73.82ZM80.51,72.6a1.16,1.16,0,0,0,.43-.58c1,.53,1.86,1,2.77,1.39a1.15,1.15,0,0,0-.5.33l-.58.62q-.39.39-.75.81l-.5-.52q-.41-.41-.78-.84a1.07,1.07,0,0,0-.83-.45h0a.85.85,0,0,0-.45.2C79.71,73.24,80.11,72.91,80.51,72.6Zm8.88-42.76a12.45,12.45,0,0,1-1.2,5.62c-.5,1.2-1,2.4-1.56,3.6s-1,2.37-1.55,3.57a79.08,79.08,0,0,0-3.44,10.48c-.55,2.11-1.13,4.36-1.63,6.6-.22,1-.38,2-.53,3-.08.47-.15.94-.23,1.4s-.13.74-.21,1.12l0,.16-.84-.55c-1.26-.83-2.48-1.64-3.71-2.41-.26-.17-.26-.27-.21-.48l.21-.88a21.4,21.4,0,0,1,.6-2.22,49,49,0,0,1,3.82-8l1.83-3.14.11-.18c1.25-2.13,2.54-4.33,3.71-6.55a52.09,52.09,0,0,0,2.61-6.24l.09-.23a17.74,17.74,0,0,0,.68-2.79l.15-.79a11.25,11.25,0,0,0-.28-5.65,8.82,8.82,0,0,0-1.49-2.83S89,24.11,89.39,29.84ZM86.55,30a27.45,27.45,0,0,1-2.61,8.45,91.62,91.62,0,0,1-5.1,9.23s-.82,1.36-1.19,2a48.2,48.2,0,0,0-4.27,8.87,18,18,0,0,0-.63,2.68l-.14.78a1.76,1.76,0,0,0,.2,1.34l-.5.22-1.86.72c-1,.38-2,.77-3,1.18,0-.36.09-.73.14-1.1A27.34,27.34,0,0,1,68.1,61a17.06,17.06,0,0,1,3.45-6.71c.87-1,1.74-2.06,2.62-3.09l.16-.2c1-1.22,2.08-2.43,3.1-3.67A50.45,50.45,0,0,0,84.27,37a17.86,17.86,0,0,0,2-8.5,10.54,10.54,0,0,0-1.57-5.24A8.26,8.26,0,0,1,86.55,30Zm-3.84-6.63a9.51,9.51,0,0,1,1.84,4.37,12.68,12.68,0,0,1-1,6.55,43,43,0,0,1-7.57,12c-.79,1-1.59,1.9-2.4,2.84l-.13.15c-1.13,1.32-2.3,2.69-3.41,4.08a21.35,21.35,0,0,0-4,8.53,34,34,0,0,0-.67,8.06V72.1l-.14,0-.5.13c-1.31.38-2.65.71-4,1l-2.12.53c-1.81.47-3.62,1-5.47,1.46l.06-1.16c.06-1.39.13-2.84.25-4.27a26.25,26.25,0,0,1,.5-3.38c1.27-6,3.55-10.28,7.18-13.61a24.34,24.34,0,0,1,5.11-3.37A45.1,45.1,0,0,0,79.58,39.35a17.72,17.72,0,0,0,3.68-6.49,13.29,13.29,0,0,0-.76-9.7.76.76,0,0,0-.09-.18C82.52,23.1,82.61,23.22,82.71,23.34Zm-5.78,4.12a2.65,2.65,0,0,0-.32.15,1.34,1.34,0,0,1-.16-.28c-.34-.77-.69-1.54-1-2.3l-.8-1.8.11,0a19.88,19.88,0,0,0,5.36-2.07l.26-.17a3.91,3.91,0,0,1,.1,1A6.08,6.08,0,0,1,76.93,27.46ZM51.27,62.23a1,1,0,0,0,.93-.82,22.67,22.67,0,0,1,6.33-10,50.48,50.48,0,0,1,7-5l1.94-1.19c1.62-1,3.3-2,4.91-3.09A20.57,20.57,0,0,0,80.09,33a15.94,15.94,0,0,0,1.24-7.32,1.87,1.87,0,0,1,.13-.65l.09.24a11.39,11.39,0,0,1,.33,6.27,15.36,15.36,0,0,1-3.07,6A32.92,32.92,0,0,1,71.93,44L69.21,45.8l-2.13,1.25c-1.42.83-2.85,1.67-4.26,2.53a20.08,20.08,0,0,0-6.65,6.75,27.83,27.83,0,0,0-3.34,8c-.17.71-.38,1.56-.57,2.5a9.1,9.1,0,0,0-.69-2.57,2.21,2.21,0,0,1-.11-.58c0-.13,0-.27-.05-.41l-.07-.45-.37,0v-.23C51,62.3,51.12,62.24,51.27,62.23ZM45.71,64a4.84,4.84,0,0,1,1.94-.46,3.36,3.36,0,0,1,1.56.38,2.58,2.58,0,0,1,.93,1.36,19.86,19.86,0,0,1,.58,2.36c.07.36.14.73.23,1.11l.08.36.85.08c-.05.39-.08.8-.1,1.2l-.17,3a13,13,0,0,0-3-3.64c-.63-.49-1.3-1.08-2.1-1.84A4.82,4.82,0,0,1,45,65.71,1.56,1.56,0,0,1,45.71,64Zm5.7,38.39-.14-.11.59-.07.08-.52.49-.45v1.66l0,0v.48a1.88,1.88,0,0,0-.18-.24A3.93,3.93,0,0,0,51.41,102.38Zm1.05,4.36a3.92,3.92,0,0,1-.54-1.95l.1-.07a1.84,1.84,0,0,0,.36-.28v.3c0,.43,0,.83,0,1.22a1.19,1.19,0,0,0,.1.51Zm.54-6.22-.27-.19-.27-.14-1.3-.92h.18a1.16,1.16,0,0,0,1.16-1l.15,0a1.21,1.21,0,0,1,.16.16l.19.18Zm0-5a9.16,9.16,0,0,0,0,1,1.55,1.55,0,0,0,0,.22l-.48-.58-.28,0a1.53,1.53,0,0,0-1.49,1.6,1.16,1.16,0,0,1-.34-1.11l.27-3.36.24-3c0-.53.1-1.06.15-1.59v-.09c.07-.6.13-1.2.17-1.8,0-.23,0-.46.06-.71a16.07,16.07,0,0,0,.1-2.6c-.31-4.8-1.66-8.32-4.25-11.09A14.58,14.58,0,0,0,42,68.91a6.23,6.23,0,0,1-2.61-1.66,1.89,1.89,0,0,1-.46-2c.25-.64.86-.85,1.69-1.06a3.12,3.12,0,0,1,.82-.11,8.55,8.55,0,0,1,1.56.2l.44.07a4.51,4.51,0,0,0,1.38,4.28,23.1,23.1,0,0,0,2.41,2.19,12.94,12.94,0,0,1,3.9,5.36A22.19,22.19,0,0,1,53,82.72l.09.75c.1.8.2,1.64.26,2.46l0,.59a24.15,24.15,0,0,1,.11,3.06c0,1.25-.17,2.52-.29,3.79C53.15,94.07,53.08,94.77,53,95.47Zm.81,8.11.14-.47.1,0v1.17l-.79-.65Zm0,5.87-.09-.14a.56.56,0,0,0,.2-.26c0,.21.18.81.2.9C54.09,109.79,54,109.62,53.89,109.45Zm.7-2-.77-.58.14,0,.08-.6a1.05,1.05,0,0,0,.36-.08l.2-.11S54.59,107.17,54.59,107.4ZM54,101.17h.59l.08-.8.58.29v.44c0,.32,0,.62,0,.93Zm1.25,1.28a.82.82,0,0,0,.07.28l-.33-.14Zm.38,2.93.19-.19s0-.34,0-.41a.94.94,0,0,0,.34.07,1,1,0,0,0,.25,0l.13-.07.37,1.85v.2l-1.63-1.2Zm0,6.41.19-.07.31-.12v-.15l.26.13.07-.09.25.73s.25.8.29.94C56.49,112.71,56,112.25,55.62,111.79Zm-5.42,6.58a5.73,5.73,0,0,1,2.62-1.58c1.28-.43,2.61-.8,3.9-1.15l.34-.09a.44.44,0,0,1,.21.07,23.59,23.59,0,0,0,5.91,3.44,40.79,40.79,0,0,0,4.5,1.31,13.67,13.67,0,0,0,3.3.37,23.57,23.57,0,0,0,2.55-.15,18.65,18.65,0,0,0,5.44-1.5,23.15,23.15,0,0,0,5.8-3.65.29.29,0,0,1,.21-.08,1.27,1.27,0,0,1,.41.1l.32.09a40,40,0,0,1,4.23,1.23,9.66,9.66,0,0,1,2.47,1.41A1.18,1.18,0,0,1,93,119c0,.33-.33.63-.52.78a10.66,10.66,0,0,1-2.67,1.52,29.55,29.55,0,0,1-6.36,1.56,55.46,55.46,0,0,1-7.06.7c-1.14,0-2.3.11-3.42.18l-1,.06v-.08h-.48l-2.27,0c-.46,0-.93,0-1.39,0-1.92-.09-3.49-.2-5-.36-1.7-.18-3.21-.4-4.61-.67a24.11,24.11,0,0,1-6.45-1.94,3.85,3.85,0,0,1-1.75-1.4C49.83,119.06,49.82,118.83,50.2,118.37ZM75.66,129h-.17l-2.4.12c-.81.05-1.64.08-2.54.08-2.1,0-4.23-.14-6.23-.28a59.9,59.9,0,0,1-6.09-.85,42.13,42.13,0,0,1-4.56-1.1,6.83,6.83,0,0,1-3.41-1.87,1.85,1.85,0,0,1-.37-1c0-.73,0-1.49,0-2.24v-.56A5.25,5.25,0,0,0,51,122l.48.19a25.65,25.65,0,0,0,3.79,1.3c2.12.5,4.34.84,6.32,1.14a62.68,62.68,0,0,0,9.34.61c2,0,3.87-.06,5.64-.12a53.31,53.31,0,0,0,6.65-.7,30.49,30.49,0,0,0,8-2.06c.58-.27,1.14-.59,1.67-.9l.07,0v.35a21.45,21.45,0,0,1,0,2.89c0,.18-.26.54-.87,1a9.44,9.44,0,0,1-3.78,1.62,64.1,64.1,0,0,1-7,1.34C79.35,128.86,77.48,128.94,75.66,129Z"/><path class="cls-1" d="M121.87,136.43a1,1,0,0,0-.93-1H22.2a1,1,0,0,0,0,2h98.74A1,1,0,0,0,121.87,136.43Z"/><path class="cls-1" d="M123.81,171H19.33c-.4,0-.73.46-.73,1s.33,1,.73,1H123.81c.4,0,.72-.46.72-1S124.21,171,123.81,171Z"/><path class="cls-1" d="M35,167.27h73.08c.38,0,.68-.45.68-1s-.3-1-.68-1H35c-.38,0-.69.45-.69,1S34.65,167.27,35,167.27Z"/><path class="cls-1" d="M62.13,27.81a1.47,1.47,0,0,0,1.44-1.51,1.44,1.44,0,0,0-2.46-1.08,1.47,1.47,0,0,0,0,2.17,1.42,1.42,0,0,0,1,.42Z"/><path class="cls-1" d="M53.46,34.44c1,.51,2,1,3,1.49a1,1,0,0,0,.42.11.8.8,0,0,0,.3-.06,1.24,1.24,0,0,0,.58-.81l.13-.4-3.23-1.61,2.57.59a2,2,0,0,0,.36,0,.85.85,0,0,0,.65-.25,1,1,0,0,0,.16-1l-.08-.29L55,31.51l4.2-.67-.09-1.6-.87.07c-.28,0-.54,0-.8.08l-1.64.27L53.49,30c-.4.06-.69.1-.88.38a1,1,0,0,0,0,.94l-.22,1,0,.11-.52,1.12Z"/><path class="cls-1" d="M76.87,80.4a1,1,0,0,0,.65.3,1,1,0,0,0,.68-.34c.77-.79,1.53-1.55,2.35-2.31a1,1,0,0,0,.4-.89,1.26,1.26,0,0,0-.8-.85l-.33-.17L79,77c-.48.52-1,1-1.44,1.59l-.09.09a.54.54,0,0,1-.13-.1c-.22-.19-.44-.38-.7-.58s-.55-.44-.8-.68a1.22,1.22,0,0,0-.78-.39l-.16,0a1.12,1.12,0,0,0-.73.77l-.14.34,1,.83C75.66,79.39,76.28,79.89,76.87,80.4Z"/><path class="cls-1" d="M71,79.3l.13.14h0l.33.9.8-.92c.21-.25.44-.53.69-.79a1,1,0,0,0,.33-.89,1.18,1.18,0,0,0-.72-.75l-.33-.15-1.46,1.59-.51-.65-.81-1-1.34,1,1.73,2.44Z"/><path class="cls-1" d="M21.84,55.94H41.29a2.41,2.41,0,1,0,.13-4.81h-.33a3.55,3.55,0,0,1-.46,0,.81.81,0,0,1-.55-.37.66.66,0,0,1-.06-.58,1,1,0,0,1,1-.7h2.59a2.85,2.85,0,0,0,2-.78A2.29,2.29,0,0,0,46.35,47a2.46,2.46,0,0,0-2.69-2.36H27.21a2.91,2.91,0,0,0-2.11.79,2.24,2.24,0,0,0-.64,1.67,2.48,2.48,0,0,0,2.71,2.34H29q1.38,0,1.41.84a.69.69,0,0,1-.17.5,1.83,1.83,0,0,1-1.25.35H21.83a2.7,2.7,0,0,0-2.11.91,2.37,2.37,0,0,0-.49,2A2.49,2.49,0,0,0,21.84,55.94Zm0-3H22v-.19l.09.19h6.66c.31,0,.63,0,.94,0a2.59,2.59,0,0,0-.05-5.18H27.09a.84.84,0,0,1-.65-.25.51.51,0,0,1-.15-.41c0-.36.35-.59.84-.59H43.32c1.2,0,1.2.43,1.2.59a.46.46,0,0,1-.12.38,1.69,1.69,0,0,1-1.1.29H41a2.76,2.76,0,0,0-2.86,2.7c0,1.47,1.17,2.48,2.88,2.52a2,2,0,0,1,.5,0,.56.56,0,0,1,.47.63c0,.34-.19.5-.56.56a4.12,4.12,0,0,1-.51,0H21.84c-.5,0-.83-.24-.85-.59S21.32,52.93,21.81,52.9Z"/><path class="cls-1" d="M113.49,103.59h2.07a2.36,2.36,0,0,0,1.69-.64,1.91,1.91,0,0,0,.54-1.4,2,2,0,0,0-2.24-2H102.46a2.41,2.41,0,0,0-1.75.67,1.9,1.9,0,0,0-.54,1.39,2.07,2.07,0,0,0,2.26,2h1.45c1,0,1,.43,1,.57a.44.44,0,0,1-.11.33,1.39,1.39,0,0,1-.92.24H98.18a2.21,2.21,0,0,0-1.75.76,2,2,0,0,0-.41,1.65,2.07,2.07,0,0,0,2.17,1.63h15.48a2.06,2.06,0,0,0,2.15-2,2,2,0,0,0-2-2.06h-.27a1.38,1.38,0,0,1-.35,0,.53.53,0,0,1-.37-.24.45.45,0,0,1,0-.38A.71.71,0,0,1,113.49,103.59Zm0,2.75a3.45,3.45,0,0,1,.38,0,.36.36,0,0,1,.3.4c0,.19-.08.3-.36.35a2.17,2.17,0,0,1-.36,0H98.19c-.33,0-.56-.15-.57-.37s.22-.41.55-.43h5.51c.25,0,.51,0,.76,0a2.16,2.16,0,0,0,0-4.32h-2a.68.68,0,0,1-.45-.17.39.39,0,0,1-.09-.26c0-.22.24-.37.57-.37h12.88c.86,0,.86.28.86.37a.34.34,0,0,1-.07.23,1.27,1.27,0,0,1-.8.2h-1.82a2.29,2.29,0,0,0-2.37,2.25A2.17,2.17,0,0,0,113.46,106.34Z"/><path class="cls-1" d="M120.24,22.5a7.93,7.93,0,1,0-7.93,7.93A7.93,7.93,0,0,0,120.24,22.5Zm-7.93,6.12a6.12,6.12,0,1,1,6.12-6.12A6.13,6.13,0,0,1,112.31,28.62Z"/><path class="cls-1" d="M113.18,12.78a.91.91,0,0,0,.91-.9V.9a.91.91,0,0,0-1.81,0v11A.9.9,0,0,0,113.18,12.78Z"/><path class="cls-1" d="M112.28,32.62v11a.91.91,0,0,0,1.81,0v-11a.91.91,0,0,0-1.81,0Z"/><path class="cls-1" d="M103.07,16.28a.91.91,0,0,0,1.28-.09.91.91,0,0,0,.22-.66.89.89,0,0,0-.31-.61L96,7.72a.9.9,0,0,0-.65-.23h0a.93.93,0,0,0-.62.31.94.94,0,0,0-.22.66.93.93,0,0,0,.31.62Z"/><path class="cls-1" d="M117.33,13.65a.84.84,0,0,0,.38.08.88.88,0,0,0,.82-.52L122.35,5a.92.92,0,0,0,0-.69.9.9,0,0,0-.47-.51,1,1,0,0,0-.38-.08,1.12,1.12,0,0,0-.31,0,.91.91,0,0,0-.51.47l-3.81,8.23a.87.87,0,0,0,0,.69A.91.91,0,0,0,117.33,13.65Z"/><path class="cls-1" d="M107.39,13.1a.9.9,0,0,0,.78.45.87.87,0,0,0,.45-.12.91.91,0,0,0,.33-1.24l-4.54-7.86a.89.89,0,0,0-.56-.42.83.83,0,0,0-.22,0,1,1,0,0,0-.45.12.91.91,0,0,0-.33,1.24Z"/><path class="cls-1" d="M121.49,16.09a.89.89,0,0,0,1.28,0l6.79-6.79a.89.89,0,0,0,.27-.64.85.85,0,0,0-.27-.64.88.88,0,0,0-1.27,0l-6.8,6.8A.89.89,0,0,0,121.49,16.09Z"/><path class="cls-1" d="M123.82,17.71a.9.9,0,0,0,.56,1.57l9.1.43a.91.91,0,0,0,0-1.81l-9.1-.42A.88.88,0,0,0,123.82,17.71Z"/><path class="cls-1" d="M132.52,28.09a.89.89,0,0,0,.83-.56.87.87,0,0,0,0-.69.91.91,0,0,0-.49-.49L124,22.62a1.09,1.09,0,0,0-.35-.07,1,1,0,0,0-.35.07.94.94,0,0,0-.49.49.92.92,0,0,0,0,.69.87.87,0,0,0,.49.49L132.17,28A1,1,0,0,0,132.52,28.09Z"/><path class="cls-1" d="M128.66,35.75a.91.91,0,0,0,.63-.25.89.89,0,0,0,.27-.64.85.85,0,0,0-.25-.64L123,27.71a.91.91,0,0,0-.65-.27.85.85,0,0,0-.62.26.9.9,0,0,0-.28.63.94.94,0,0,0,.26.65l6.32,6.5A.91.91,0,0,0,128.66,35.75Z"/><path class="cls-1" d="M122.23,41.21a.77.77,0,0,0,.37-.08.91.91,0,0,0,.46-1.19l-3.93-8.78a.89.89,0,0,0-.51-.48.84.84,0,0,0-.31-.05.77.77,0,0,0-.37.08.83.83,0,0,0-.47.5.92.92,0,0,0,0,.69l3.93,8.78A.9.9,0,0,0,122.23,41.21Z"/><path class="cls-1" d="M101.91,41.4a.87.87,0,0,0,.45.12.9.9,0,0,0,.78-.45L108,32.74a.9.9,0,0,0-.78-1.35.93.93,0,0,0-.79.45l-4.81,8.33A.91.91,0,0,0,101.91,41.4Z"/><path class="cls-1" d="M32.17,155a2.23,2.23,0,0,1-1.54-.43,1.76,1.76,0,0,1-.48-1.36H27.39a3.55,3.55,0,0,0,.57,2,3.75,3.75,0,0,0,1.69,1.36,6,6,0,0,0,2.52.5,5,5,0,0,0,3.1-.85,2.81,2.81,0,0,0,1.13-2.36,3.27,3.27,0,0,0-1.85-2.94,10.89,10.89,0,0,0-1.95-.82,6.24,6.24,0,0,1-1.66-.73,1,1,0,0,1-.47-.8,1,1,0,0,1,.43-.83,1.87,1.87,0,0,1,1.17-.32,1.63,1.63,0,0,1,1.15.38,1.37,1.37,0,0,1,.43,1.08H36.4a3.27,3.27,0,0,0-.54-1.85,3.55,3.55,0,0,0-1.52-1.25,5.22,5.22,0,0,0-2.21-.44,6.13,6.13,0,0,0-2.28.4,3.63,3.63,0,0,0-1.56,1.13,2.66,2.66,0,0,0-.55,1.67,3.32,3.32,0,0,0,2.22,3,13.46,13.46,0,0,0,1.75.7,5.24,5.24,0,0,1,1.51.7,1.13,1.13,0,0,1,.42.94,1,1,0,0,1-.39.83A1.84,1.84,0,0,1,32.17,155Z"/><rect class="cls-1" x="38" y="145.47" width="2.75" height="11.42"/><polygon class="cls-1" points="49.46 156.9 52.2 156.9 52.2 145.47 49.45 145.47 49.45 152.58 45.41 145.47 42.66 145.47 42.66 156.9 45.41 156.9 45.41 149.79 49.46 156.9"/><path class="cls-1" d="M57.08,148.31a1.79,1.79,0,0,1,1.6-.88,2,2,0,0,1,1.34.4,2.19,2.19,0,0,1,.61,1.37h2.65a4.12,4.12,0,0,0-1.38-2.91,5,5,0,0,0-3.31-1A4.86,4.86,0,0,0,56,146a4.47,4.47,0,0,0-1.71,1.93,7,7,0,0,0-.59,3v1a5.57,5.57,0,0,0,1.43,3.82,4.82,4.82,0,0,0,3.59,1.37,8,8,0,0,0,2.68-.43,4.54,4.54,0,0,0,1.86-1.14v-4.69H58.62v1.89h1.92v1.78a2.4,2.4,0,0,1-1.61.47,2.08,2.08,0,0,1-1.84-.85,4.7,4.7,0,0,1-.58-2.57v-.69A4.78,4.78,0,0,1,57.08,148.31Z"/><path class="cls-1" d="M71.38,154.76,72,156.9h3l-4.22-11.43H68.19L64,156.9h2.94l.66-2.14Zm-1.89-6.09,1.23,4H68.26Z"/><path class="cls-1" d="M80.34,153a5,5,0,0,0,3.29-1,3.33,3.33,0,0,0,1.19-2.67,3.73,3.73,0,0,0-.55-2A3.66,3.66,0,0,0,82.71,146a5.21,5.21,0,0,0-2.32-.49H75.83V156.9h2.75V153Zm-1.76-5.42h1.84a1.52,1.52,0,0,1,1.18.49,1.84,1.84,0,0,1,.43,1.27,1.47,1.47,0,0,1-.42,1.13,1.69,1.69,0,0,1-1.22.4H78.58Z"/><path class="cls-1" d="M88.39,156.38a5.29,5.29,0,0,0,5.19,0,4.53,4.53,0,0,0,1.76-2,6.81,6.81,0,0,0,.62-3v-.53a6.53,6.53,0,0,0-.64-2.92,4.62,4.62,0,0,0-1.77-2,4.89,4.89,0,0,0-2.59-.69,5,5,0,0,0-2.61.69,4.57,4.57,0,0,0-1.77,2,6.75,6.75,0,0,0-.61,3v.64a6.51,6.51,0,0,0,.66,2.86A4.56,4.56,0,0,0,88.39,156.38Zm.39-5.8c.07-2.07.8-3.11,2.18-3.11a1.83,1.83,0,0,1,1.63.89,4.77,4.77,0,0,1,.57,2.58v.53a4.82,4.82,0,0,1-.57,2.55,1.8,1.8,0,0,1-1.61.88,1.84,1.84,0,0,1-1.66-.9,5,5,0,0,1-.55-2.58Z"/><path class="cls-1" d="M105.72,150.9a3.75,3.75,0,0,0,.48-2,3.05,3.05,0,0,0-1.15-2.55,5,5,0,0,0-3.17-.9h-4.5V156.9h2.75v-4h1.5l2,4h3v-.12l-2.38-4.61A3.56,3.56,0,0,0,105.72,150.9Zm-2.66-.58a1.56,1.56,0,0,1-1.18.42h-1.75v-3.15h1.75a1.54,1.54,0,0,1,1.17.42,1.6,1.6,0,0,1,.4,1.16A1.59,1.59,0,0,1,103.06,150.32Z"/><polygon class="cls-1" points="115.75 147.6 115.75 145.47 107.86 145.47 107.86 156.9 115.73 156.9 115.73 154.78 110.61 154.78 110.61 152.05 114.94 152.05 114.94 150.01 110.61 150.01 110.61 147.6 115.75 147.6"/></g></g></svg>