<svg xmlns="http://www.w3.org/2000/svg" viewBox="0 0 143.14 173"><defs><style>.cls-1{fill:#f4436c;}</style></defs><title>Asset 18</title><g id="Layer_2" data-name="Layer 2"><g id="Layer_1-2" data-name="Layer 1"><path class="cls-1" d="M12.17,152.93a2.2,2.2,0,0,1-.44,1.53,1.67,1.67,0,0,1-1.3.47c-1.13,0-1.71-.62-1.74-1.87v-7.59H5.92V153a3.87,3.87,0,0,0,1.23,3,4.72,4.72,0,0,0,3.28,1.08,5.55,5.55,0,0,0,2.4-.48,3.56,3.56,0,0,0,1.55-1.42,4.3,4.3,0,0,0,.54-2.2v-7.48H12.17Z"/><polygon class="cls-1" points="16.64 145.47 16.64 156.9 19.39 156.9 19.39 149.79 23.44 156.9 26.18 156.9 26.18 145.47 23.43 145.47 23.43 152.58 19.39 145.47 16.64 145.47"/><rect class="cls-1" x="28.11" y="145.47" width="2.75" height="11.42"/><polygon class="cls-1" points="38.08 156.9 38.08 147.6 41.51 147.6 41.51 145.47 31.96 145.47 31.96 147.6 35.33 147.6 35.33 156.9 38.08 156.9"/><polygon class="cls-1" points="50.55 147.6 50.55 145.47 42.67 145.47 42.67 156.9 50.54 156.9 50.54 154.78 45.42 154.78 45.42 152.05 49.75 152.05 49.75 150.01 45.42 150.01 45.42 147.6 50.55 147.6"/><path class="cls-1" d="M60,154.24a5.92,5.92,0,0,0,.66-2.81v-.53a5.8,5.8,0,0,0-.68-2.8,4.84,4.84,0,0,0-1.89-1.94,5.39,5.39,0,0,0-2.72-.69H51.66V156.9h3.76a5.39,5.39,0,0,0,2.68-.71A4.81,4.81,0,0,0,60,154.24Zm-2.15-2.81a4.13,4.13,0,0,1-.63,2.5,2.12,2.12,0,0,1-1.82.85h-1V147.6h.93a2.17,2.17,0,0,1,1.85.84,4.12,4.12,0,0,1,.63,2.49Z"/><polygon class="cls-1" points="66.05 145.47 66.05 156.9 68.8 156.9 68.8 153.88 69.93 152.64 72.36 156.9 75.63 156.9 71.77 150.53 75.63 145.47 72.22 145.47 69.76 149.06 68.8 150.51 68.8 145.47 66.05 145.47"/><rect class="cls-1" x="76.51" y="145.47" width="2.75" height="11.42"/><polygon class="cls-1" points="87.97 156.9 90.71 156.9 90.71 145.47 87.96 145.47 87.96 152.58 83.92 145.47 81.17 145.47 81.17 156.9 83.92 156.9 83.92 149.79 87.97 156.9"/><path class="cls-1" d="M95.6,148.31a1.78,1.78,0,0,1,1.6-.88,2,2,0,0,1,1.33.4,2.19,2.19,0,0,1,.61,1.37h2.65a4.15,4.15,0,0,0-1.37-2.91,5,5,0,0,0-3.32-1,4.86,4.86,0,0,0-2.57.68,4.42,4.42,0,0,0-1.7,1.94,6.77,6.77,0,0,0-.6,2.94v1a5.57,5.57,0,0,0,1.43,3.82,4.78,4.78,0,0,0,3.59,1.37,7.93,7.93,0,0,0,2.68-.43,4.41,4.41,0,0,0,1.86-1.14v-4.69H97.13v1.89h1.92v1.78a2.32,2.32,0,0,1-1.6.47,2.06,2.06,0,0,1-1.84-.85,4.61,4.61,0,0,1-.59-2.57v-.69A4.68,4.68,0,0,1,95.6,148.31Z"/><path class="cls-1" d="M111.71,154.24a5.81,5.81,0,0,0,.67-2.81v-.53a5.92,5.92,0,0,0-.69-2.8,4.77,4.77,0,0,0-1.89-1.94,5.37,5.37,0,0,0-2.72-.69H103.4V156.9h3.76a5.45,5.45,0,0,0,2.69-.71A4.85,4.85,0,0,0,111.71,154.24Zm-2.14-2.81a4.06,4.06,0,0,1-.64,2.5,2.12,2.12,0,0,1-1.82.85h-1V147.6h.92a2.17,2.17,0,0,1,1.85.84,4,4,0,0,1,.64,2.49Z"/><path class="cls-1" d="M118.46,145.32a5,5,0,0,0-2.61.69,4.57,4.57,0,0,0-1.77,2,6.75,6.75,0,0,0-.61,3v.64a6.51,6.51,0,0,0,.66,2.86,4.5,4.5,0,0,0,1.76,1.92,5.29,5.29,0,0,0,5.19,0,4.53,4.53,0,0,0,1.76-2,6.81,6.81,0,0,0,.62-3v-.52a6.54,6.54,0,0,0-.64-2.93,4.62,4.62,0,0,0-1.77-2A4.89,4.89,0,0,0,118.46,145.32Zm2.2,6.15a4.91,4.91,0,0,1-.57,2.55,1.8,1.8,0,0,1-1.61.88,1.84,1.84,0,0,1-1.66-.9,5,5,0,0,1-.55-2.58v-.84c.07-2.07.8-3.11,2.18-3.11a1.83,1.83,0,0,1,1.63.89,4.79,4.79,0,0,1,.57,2.58Z"/><polygon class="cls-1" points="131.05 153.42 128.5 145.47 124.88 145.47 124.88 156.9 127.63 156.9 127.63 154.23 127.37 148.76 130.14 156.9 131.96 156.9 134.72 148.77 134.45 154.23 134.45 156.9 137.21 156.9 137.21 145.47 133.59 145.47 131.05 153.42"/><path class="cls-1" d="M107.92,13.47h10.47a4.3,4.3,0,0,0,0-8.59h-.13a6.07,6.07,0,0,0-11.52-1.24,5,5,0,0,0,1.18,9.82Zm0-8.24a3.28,3.28,0,0,1,2.5,1.16.82.82,0,0,0,.58.31.84.84,0,0,0,.63-.2.86.86,0,0,0,.11-1.22,5,5,0,0,0-3-1.7,4.34,4.34,0,0,1,7.82,1.71,4.13,4.13,0,0,0-1.09.72.86.86,0,1,0,1.17,1.27,2.56,2.56,0,1,1,1.73,4.46H107.92a3.26,3.26,0,1,1,0-6.51Z"/><path class="cls-1" d="M7.08,118.28H20.63a4.17,4.17,0,1,0,0-8.34l-.32,0a4.66,4.66,0,0,0-7.87-2.59,3.62,3.62,0,0,0-5.55,3.75,3.58,3.58,0,0,0,.19,7.16Zm0-5.8a2.19,2.19,0,0,1,1.5.58.69.69,0,0,0,.49.17.6.6,0,0,0,.47-.22.62.62,0,0,0,.18-.48.66.66,0,0,0-.22-.48,3.71,3.71,0,0,0-1.08-.68,2.24,2.24,0,0,1,.84-2.92,2.27,2.27,0,0,1,2.37,0,3.42,3.42,0,0,0-.21.43.68.68,0,1,0,1.26.52,3.29,3.29,0,0,1,6.3.88,4.11,4.11,0,0,0-1.54,1.14.66.66,0,0,0-.16.5.64.64,0,0,0,.24.46.66.66,0,0,0,.5.16.69.69,0,0,0,.46-.24,2.77,2.77,0,0,1,1.21-.84h0a.75.75,0,0,0,.36-.1,2.8,2.8,0,1,1,.58,5.55H7.08a2.22,2.22,0,1,1,0-4.44Z"/><path class="cls-1" d="M120.94,135.42H22.2a1,1,0,0,0,0,2h98.74a1,1,0,0,0,0-2Z"/><path class="cls-1" d="M123.81,171H19.33c-.4,0-.73.46-.73,1s.33,1,.73,1H123.81c.4,0,.72-.46.72-1S124.21,171,123.81,171Z"/><path class="cls-1" d="M35,167.27h73.08c.38,0,.68-.45.68-1s-.3-1-.68-1H35c-.38,0-.69.45-.69,1S34.65,167.27,35,167.27Z"/><path class="cls-1" d="M142.16,129.69H85.45L83,117.55a52,52,0,1,0-22.92,0l-2.43,12.14H1a1,1,0,0,0,0,2H142.16a1,1,0,0,0,0-2ZM22.21,66.88A49.36,49.36,0,1,1,82.52,115l-1-5.24a44,44,0,1,0-19.81,0l-1,5.24A49.44,49.44,0,0,1,22.21,66.88Zm79.13,21.85a1.28,1.28,0,0,0-1-.28,1.25,1.25,0,0,0-.87.49,35.45,35.45,0,0,1-19.69,12.57L74,72.64a6.27,6.27,0,1,0-5,0L63.32,101.5c-1.07-.26-2.13-.55-3.17-.91a1.32,1.32,0,0,0-1.65.82,1.31,1.31,0,0,0,.82,1.65c1.14.39,2.31.71,3.49,1l-.63,3.16a41.4,41.4,0,1,1,18.78,0l-.63-3.15a38.05,38.05,0,0,0,21.22-13.51,1.31,1.31,0,0,0,.27-1A1.27,1.27,0,0,0,101.34,88.73ZM71.57,73.51,77.26,102a35.68,35.68,0,0,1-5.68.46,36.06,36.06,0,0,1-5.71-.46ZM69.62,70a3.67,3.67,0,1,1,3.89,0l-.67-3.35a1.3,1.3,0,0,0-2.55,0Zm2,35.09a38.49,38.49,0,0,0,6.19-.51l.64,3.16a41.39,41.39,0,0,1-13.69,0l.63-3.15A39.17,39.17,0,0,0,71.58,105.07Zm0,5.82a44.63,44.63,0,0,0,7.35-.62l1,5.24a48.64,48.64,0,0,1-16.79,0l1-5.24A44.66,44.66,0,0,0,71.57,110.89Zm-8.91,7.17a51.22,51.22,0,0,0,17.81,0l2.33,11.63H60.33Z"/><path class="cls-1" d="M119.32,34.37a4.3,4.3,0,0,0-1.57,5.85,4.3,4.3,0,0,0,3.71,2.14,4.28,4.28,0,0,0,3.7-6.42,4.28,4.28,0,0,0-5.84-1.57Zm3.59,2.87a1.62,1.62,0,0,1,.17,1.27,1.66,1.66,0,0,1-2,1.17,1.67,1.67,0,0,1,.42-3.28A1.69,1.69,0,0,1,122.91,37.24Z"/><path class="cls-1" d="M21.68,100a4.28,4.28,0,0,0,3.7-6.42,4.28,4.28,0,1,0-3.7,6.42Zm-1.63-4.72A1.68,1.68,0,0,1,21.67,94a1.67,1.67,0,1,1-.42,3.28,1.66,1.66,0,0,1-1.2-2Z"/><path class="cls-1" d="M105.32,20a4.23,4.23,0,0,0-1,3.12,4.28,4.28,0,0,0,7.55,2.38,4.25,4.25,0,0,0,1-3.12A4.28,4.28,0,0,0,105.32,20Zm5,2.61a1.69,1.69,0,0,1-.38,1.22,1.75,1.75,0,0,1-2.38.21,1.68,1.68,0,0,1-.2-2.37,1.67,1.67,0,0,1,1.29-.59,1.65,1.65,0,0,1,1.08.39A1.68,1.68,0,0,1,110.27,22.61Z"/><path class="cls-1" d="M37.81,113.77a4.28,4.28,0,0,0-3.27-7,4.28,4.28,0,1,0,3.27,7Zm-4.56-3.84a1.67,1.67,0,0,1,1.29-.59,1.6,1.6,0,0,1,1.07.39,1.66,1.66,0,0,1,.21,2.36,1.73,1.73,0,0,1-2.36.21A1.69,1.69,0,0,1,33.25,109.93Z"/><path class="cls-1" d="M89.8,16.77a4.34,4.34,0,0,0,1.47.26,4.28,4.28,0,1,0-3.88-2.48A4.24,4.24,0,0,0,89.8,16.77Zm-.1-4.6a1.67,1.67,0,0,1,1.57-1.1,1.65,1.65,0,0,1,.58.1A1.67,1.67,0,0,1,92,14.26a1.65,1.65,0,0,1-1.27.07,1.69,1.69,0,0,1-1-.87A1.65,1.65,0,0,1,89.7,12.17Z"/><path class="cls-1" d="M51.86,125.3a4.28,4.28,0,0,0,1.47-8.3,4.38,4.38,0,0,0-1.47-.26,4.28,4.28,0,0,0,0,8.56Zm-1.58-4.85a1.69,1.69,0,0,1,1.58-1.11,1.65,1.65,0,0,1,.58.1,1.68,1.68,0,0,1,1,2.15,1.72,1.72,0,0,1-2.14,1A1.69,1.69,0,0,1,50.28,120.45Z"/><path class="cls-1" d="M71.56,13.55h0a4.28,4.28,0,1,0-3-7.3,4.28,4.28,0,0,0,3,7.3ZM70.38,8.09a1.66,1.66,0,0,1,1.19-.49,1.68,1.68,0,1,1,0,3.35h0a1.66,1.66,0,0,1-1.67-1.67A1.66,1.66,0,0,1,70.38,8.09Z"/><path class="cls-1" d="M71.56,120.22a4.28,4.28,0,1,0,4.29,4.27A4.27,4.27,0,0,0,71.56,120.22Zm0,6a1.68,1.68,0,1,1,1.68-1.68A1.68,1.68,0,0,1,71.57,126.17Z"/><path class="cls-1" d="M51.87,17a4.28,4.28,0,1,0-1.47-8.3,4.27,4.27,0,0,0-2.55,5.48A4.28,4.28,0,0,0,51.87,17Zm-1.53-5a1.69,1.69,0,0,1,.95-.87,1.63,1.63,0,0,1,.57-.1,1.68,1.68,0,0,1,.58,3.26,1.61,1.61,0,0,1-1.27-.07,1.66,1.66,0,0,1-.88-.94A1.72,1.72,0,0,1,50.34,12Z"/><path class="cls-1" d="M91.27,116.74a4.3,4.3,0,0,0-3.88,2.47,4.28,4.28,0,1,0,3.88-2.47Zm1.52,5a1.64,1.64,0,0,1-2.22.8,1.67,1.67,0,0,1,.12-3.09,1.68,1.68,0,0,1,2.1,2.29Z"/><path class="cls-1" d="M34.54,27a4.27,4.27,0,0,0,2.75-1,4.23,4.23,0,0,0,1.51-2.89,4.29,4.29,0,0,0-4.26-4.67,4.27,4.27,0,0,0-3.28,7A4.27,4.27,0,0,0,34.54,27Zm-1.09-5.56a1.7,1.7,0,0,1,2.37.2,1.7,1.7,0,0,1,.39,1.24A1.64,1.64,0,0,1,34.4,24.4a1.7,1.7,0,0,1-1.15-.57A1.68,1.68,0,0,1,33.45,21.47Z"/><path class="cls-1" d="M105.85,107.73a4.26,4.26,0,0,0-1.52,2.91,4.21,4.21,0,0,0,1,3.12,4.28,4.28,0,0,0,7.54-2.38,4.21,4.21,0,0,0-1-3.12,4.29,4.29,0,0,0-6-.53Zm4.42,3.43a1.68,1.68,0,0,1-.59,1.14,1.68,1.68,0,1,1-2.16-2.57,1.62,1.62,0,0,1,1.07-.39,1.68,1.68,0,0,1,1.68,1.82Z"/><path class="cls-1" d="M19.54,41.78a4.21,4.21,0,0,0,2.13.58,4.29,4.29,0,0,0,3.71-2.14A4.21,4.21,0,0,0,25.81,37a4.28,4.28,0,1,0-6.27,4.8Zm.68-4.54a1.69,1.69,0,0,1,1.46-.84,1.78,1.78,0,0,1,.84.22,1.73,1.73,0,0,1,.78,1,1.71,1.71,0,0,1-.17,1.27,1.69,1.69,0,0,1-3.08-.4A1.73,1.73,0,0,1,20.22,37.24Z"/><path class="cls-1" d="M123.6,92a4.29,4.29,0,0,0-5.85,1.57,4.29,4.29,0,0,0,3.7,6.42,4.32,4.32,0,0,0,3.72-2.14A4.29,4.29,0,0,0,123.6,92Zm-.68,4.54a1.76,1.76,0,0,1-2.3.62,1.68,1.68,0,0,1,.84-3.13,1.78,1.78,0,0,1,.84.22,1.69,1.69,0,0,1,.62,2.29Z"/><path class="cls-1" d="M14.09,61.09a3.51,3.51,0,0,0,.74.07,4.29,4.29,0,0,0,3.52-6.73,4.35,4.35,0,0,0-2.78-1.77,4.3,4.3,0,0,0-5,3.47,4.28,4.28,0,0,0,3.47,5Zm-.91-4.5a1.68,1.68,0,0,1,1.66-1.39l.28,0a1.65,1.65,0,0,1,1.09.7,1.69,1.69,0,0,1-.41,2.33,1.68,1.68,0,0,1-2.62-1.66Z"/><path class="cls-1" d="M128.3,81.17a4.27,4.27,0,0,0,3.5-6.74A4.24,4.24,0,0,0,129,72.67a4.28,4.28,0,0,0-1.47,8.43A3.64,3.64,0,0,0,128.3,81.17Zm-1.38-3.33a1.68,1.68,0,0,1,1.37-2.63l.29,0a1.73,1.73,0,0,1,1.1.69,1.76,1.76,0,0,1,.28,1.26,1.69,1.69,0,0,1-.69,1.08,1.68,1.68,0,0,1-2.35-.42Z"/><path class="cls-1" d="M18.34,79.34a4.22,4.22,0,0,0,.71-3.19,4.28,4.28,0,1,0-4.22,5,4.56,4.56,0,0,0,.75-.06A4.24,4.24,0,0,0,18.34,79.34Zm-2.13-1.49a1.67,1.67,0,0,1-1.08.69,1.68,1.68,0,0,1-.6-3.31,1.51,1.51,0,0,1,.3,0,1.68,1.68,0,0,1,1.66,1.39A1.65,1.65,0,0,1,16.21,77.85Z"/><path class="cls-1" d="M124.79,54.43a4.29,4.29,0,0,0,3.51,6.73,3.51,3.51,0,0,0,.74-.07,4.28,4.28,0,1,0-4.25-6.66Zm2.13,1.49a1.69,1.69,0,0,1,1.09-.69l.3,0a1.67,1.67,0,1,1-1.39.72Z"/><path class="cls-1" d="M44,46.51A34.48,34.48,0,0,0,41.3,83a1.3,1.3,0,0,0,2.39-.22,1.33,1.33,0,0,0-.09-1,31.88,31.88,0,0,1,2.47-33.74A1.3,1.3,0,0,0,44,46.51Z"/><path class="cls-1" d="M71.58,28.66A38.26,38.26,0,0,0,33.36,66.88a1.3,1.3,0,1,0,2.6,0A35.66,35.66,0,0,1,71.58,31.26a1.3,1.3,0,0,0,0-2.6Z"/></g></g></svg>