<?xml version="1.0" encoding="UTF-8"?>
<svg width="200px" height="200px" viewBox="0 0 200 200" version="1.1" xmlns="http://www.w3.org/2000/svg" xmlns:xlink="http://www.w3.org/1999/xlink">
    <!-- Generator: Sketch 52.1 (67048) - http://www.bohemiancoding.com/sketch -->
    <title>Asset 1</title>
    <desc>Created with Sketch.</desc>
    <g id="Page-1" stroke="none" stroke-width="1" fill="none" fill-rule="evenodd">
        <g id="Demo---Messages---Scan-to-pay" transform="translate(-620.000000, -378.000000)">
            <g id="Group" transform="translate(500.000000, 203.000000)">
                <g id="Asset-1" transform="translate(120.000000, 175.000000)">
                    <rect id="Rectangle" fill="#FFFFFF" x="0" y="0" width="200" height="200"></rect>
                    <rect id="Rectangle" fill="#000000" x="9.09090909" y="89.0909091" width="7.27272727" height="7.27272727"></rect>
                    <path d="M23.6363636,60 L60,60 L60,9.09090909 L9.09090909,9.09090909 L9.09090909,60 L23.6363636,60 Z M16.3636364,16.3636364 L52.7272727,16.3636364 L52.7272727,52.7272727 L16.3636364,52.7272727 L16.3636364,16.3636364 Z" id="Shape" fill="#000000" fill-rule="nonzero"></path>
                    <polygon id="Path" fill="#000000" points="16.3636364 132.727273 23.6363636 132.727273 23.6363636 125.454545 30.9090909 125.454545 30.9090909 118.181818 23.6363636 118.181818 23.6363636 110.909091 16.3636364 110.909091"></polygon>
                    <polygon id="Path" fill="#000000" points="38.1818182 45.4545455 45.4545455 45.4545455 45.4545455 23.6363636 38.1818182 23.6363636 30.9090909 23.6363636 23.6363636 23.6363636 23.6363636 45.4545455 30.9090909 45.4545455"></polygon>
                    <polygon id="Path" fill="#000000" points="30.9090909 154.545455 23.6363636 154.545455 23.6363636 176.363636 30.9090909 176.363636 38.1818182 176.363636 45.4545455 176.363636 45.4545455 154.545455 38.1818182 154.545455"></polygon>
                    <rect id="Rectangle" fill="#000000" x="38.1818182" y="125.454545" width="7.27272727" height="7.27272727"></rect>
                    <path d="M45.4545455,140 L9.09090909,140 L9.09090909,190.909091 L60,190.909091 L60,140 L45.4545455,140 Z M52.7272727,183.636364 L16.3636364,183.636364 L16.3636364,147.272727 L52.7272727,147.272727 L52.7272727,183.636364 Z" id="Shape" fill="#000000" fill-rule="nonzero"></path>
                    <polygon id="Path" fill="#000000" points="60 103.636364 60 96.3636364 52.7272727 96.3636364 45.4545455 96.3636364 38.1818182 96.3636364 30.9090909 96.3636364 30.9090909 103.636364 23.6363636 103.636364 23.6363636 110.909091 30.9090909 110.909091 38.1818182 110.909091 45.4545455 110.909091 52.7272727 110.909091 52.7272727 103.636364"></polygon>
                    <rect id="Rectangle" fill="#000000" x="52.7272727" y="125.454545" width="7.27272727" height="7.27272727"></rect>
                    <polygon id="Path" fill="#000000" points="60 103.636364 60 110.909091 52.7272727 110.909091 52.7272727 118.181818 60 118.181818 67.2727273 118.181818 67.2727273 103.636364"></polygon>
                    <rect id="Rectangle" fill="#000000" x="67.2727273" y="30.9090909" width="7.27272727" height="14.5454545"></rect>
                    <rect id="Rectangle" fill="#000000" x="67.2727273" y="52.7272727" width="7.27272727" height="7.27272727"></rect>
                    <rect id="Rectangle" fill="#000000" x="67.2727273" y="74.5454545" width="7.27272727" height="7.27272727"></rect>
                    <rect id="Rectangle" fill="#000000" x="67.2727273" y="176.363636" width="7.27272727" height="14.5454545"></rect>
                    <rect id="Rectangle" fill="#000000" x="74.5454545" y="81.8181818" width="7.27272727" height="7.27272727"></rect>
                    <polygon id="Path" fill="#000000" points="81.8181818 60 89.0909091 60 89.0909091 38.1818182 96.3636364 38.1818182 96.3636364 23.6363636 103.636364 23.6363636 110.909091 23.6363636 110.909091 9.09090909 103.636364 9.09090909 103.636364 16.3636364 96.3636364 16.3636364 96.3636364 9.09090909 89.0909091 9.09090909 81.8181818 9.09090909 74.5454545 9.09090909 74.5454545 16.3636364 81.8181818 16.3636364 89.0909091 16.3636364 89.0909091 23.6363636 81.8181818 23.6363636 74.5454545 23.6363636 74.5454545 30.9090909 81.8181818 30.9090909 81.8181818 45.4545455 74.5454545 45.4545455 74.5454545 52.7272727 81.8181818 52.7272727"></polygon>
                    <polygon id="Path" fill="#000000" points="81.8181818 81.8181818 89.0909091 81.8181818 89.0909091 67.2727273 81.8181818 67.2727273 81.8181818 60 74.5454545 60 74.5454545 74.5454545 81.8181818 74.5454545"></polygon>
                    <polygon id="Path" fill="#000000" points="81.8181818 125.454545 74.5454545 125.454545 74.5454545 118.181818 67.2727273 118.181818 67.2727273 154.545455 74.5454545 154.545455 74.5454545 132.727273 81.8181818 132.727273 81.8181818 147.272727 89.0909091 147.272727 96.3636364 147.272727 96.3636364 140 103.636364 140 110.909091 140 110.909091 125.454545 103.636364 125.454545 96.3636364 125.454545 96.3636364 118.181818 89.0909091 118.181818 89.0909091 125.454545"></polygon>
                    <rect id="Rectangle" fill="#000000" x="89.0909091" y="176.363636" width="7.27272727" height="7.27272727"></rect>
                    <rect id="Rectangle" fill="#000000" x="96.3636364" y="38.1818182" width="7.27272727" height="7.27272727"></rect>
                    <polygon id="Path" fill="#000000" points="103.636364 89.0909091 103.636364 81.8181818 96.3636364 81.8181818 89.0909091 81.8181818 89.0909091 89.0909091 81.8181818 89.0909091 81.8181818 96.3636364 74.5454545 96.3636364 74.5454545 89.0909091 67.2727273 89.0909091 67.2727273 81.8181818 60 81.8181818 52.7272727 81.8181818 52.7272727 74.5454545 60 74.5454545 67.2727273 74.5454545 67.2727273 67.2727273 60 67.2727273 52.7272727 67.2727273 45.4545455 67.2727273 45.4545455 74.5454545 38.1818182 74.5454545 30.9090909 74.5454545 23.6363636 74.5454545 23.6363636 67.2727273 16.3636364 67.2727273 9.09090909 67.2727273 9.09090909 81.8181818 16.3636364 81.8181818 23.6363636 81.8181818 30.9090909 81.8181818 30.9090909 89.0909091 38.1818182 89.0909091 45.4545455 89.0909091 52.7272727 89.0909091 60 89.0909091 60 96.3636364 67.2727273 96.3636364 67.2727273 103.636364 74.5454545 103.636364 81.8181818 103.636364 81.8181818 118.181818 89.0909091 118.181818 89.0909091 96.3636364 96.3636364 96.3636364 96.3636364 89.0909091"></polygon>
                    <rect id="Rectangle" fill="#000000" x="96.3636364" y="183.636364" width="7.27272727" height="7.27272727"></rect>
                    <rect id="Rectangle" fill="#000000" x="103.636364" y="30.9090909" width="7.27272727" height="7.27272727"></rect>
                    <rect id="Rectangle" fill="#000000" x="103.636364" y="169.090909" width="7.27272727" height="7.27272727"></rect>
                    <polygon id="Path" fill="#000000" points="118.181818 30.9090909 118.181818 38.1818182 125.454545 38.1818182 125.454545 67.2727273 118.181818 67.2727273 110.909091 67.2727273 103.636364 67.2727273 103.636364 52.7272727 96.3636364 52.7272727 96.3636364 74.5454545 103.636364 74.5454545 110.909091 74.5454545 110.909091 81.8181818 118.181818 81.8181818 118.181818 89.0909091 125.454545 89.0909091 125.454545 74.5454545 132.727273 74.5454545 132.727273 23.6363636 125.454545 23.6363636 118.181818 23.6363636 110.909091 23.6363636 110.909091 30.9090909"></polygon>
                    <rect id="Rectangle" fill="#000000" x="110.909091" y="38.1818182" width="7.27272727" height="21.8181818"></rect>
                    <rect id="Rectangle" fill="#000000" x="110.909091" y="89.0909091" width="7.27272727" height="7.27272727"></rect>
                    <polygon id="Path" fill="#000000" points="118.181818 176.363636 110.909091 176.363636 110.909091 183.636364 118.181818 183.636364 125.454545 183.636364 125.454545 190.909091 132.727273 190.909091 140 190.909091 140 176.363636 132.727273 176.363636 125.454545 176.363636 125.454545 169.090909 118.181818 169.090909"></polygon>
                    <rect id="Rectangle" fill="#000000" x="140" y="96.3636364" width="7.27272727" height="7.27272727"></rect>
                    <rect id="Rectangle" fill="#000000" x="140" y="140" width="7.27272727" height="7.27272727"></rect>
                    <polygon id="Path" fill="#000000" points="147.272727 176.363636 147.272727 183.636364 154.545455 183.636364 161.818182 183.636364 161.818182 176.363636 154.545455 176.363636"></polygon>
                    <polygon id="Path" fill="#000000" points="161.818182 23.6363636 154.545455 23.6363636 154.545455 45.4545455 161.818182 45.4545455 169.090909 45.4545455 176.363636 45.4545455 176.363636 23.6363636 169.090909 23.6363636"></polygon>
                    <path d="M169.090909,110.909091 L154.545455,110.909091 L154.545455,103.636364 L147.272727,103.636364 L147.272727,110.909091 L140,110.909091 L140,103.636364 L125.454545,103.636364 L125.454545,96.3636364 L118.181818,96.3636364 L118.181818,103.636364 L103.636364,103.636364 L103.636364,96.3636364 L96.3636364,96.3636364 L96.3636364,110.909091 L118.181818,110.909091 L118.181818,125.454545 L125.454545,125.454545 L125.454545,118.181818 L132.727273,118.181818 L132.727273,125.454545 L125.454545,125.454545 L125.454545,147.272727 L118.181818,147.272727 L118.181818,154.545455 L89.0909091,154.545455 L89.0909091,161.818182 L74.5454545,161.818182 L74.5454545,169.090909 L81.8181818,169.090909 L81.8181818,176.363636 L89.0909091,176.363636 L89.0909091,169.090909 L96.3636364,169.090909 L96.3636364,161.818182 L110.909091,161.818182 L110.909091,169.090909 L118.181818,169.090909 L118.181818,161.818182 L125.454545,161.818182 L125.454545,169.090909 L132.727273,169.090909 L132.727273,161.818182 L140,161.818182 L140,169.090909 L147.272727,169.090909 L147.272727,161.818182 L161.818182,161.818182 L161.818182,125.454545 L154.545455,125.454545 L154.545455,118.181818 L161.818182,118.181818 L161.818182,125.454545 L169.090909,125.454545 L169.090909,132.727273 L176.363636,132.727273 L176.363636,118.181818 L169.090909,118.181818 L169.090909,110.909091 Z M140,118.181818 L147.272727,118.181818 L147.272727,125.454545 L140,125.454545 L140,118.181818 Z M154.545455,154.545455 L132.727273,154.545455 L132.727273,132.727273 L154.545455,132.727273 L154.545455,154.545455 Z" id="Shape" fill="#000000" fill-rule="nonzero"></path>
                    <polygon id="Path" fill="#000000" points="161.818182 169.090909 161.818182 176.363636 169.090909 176.363636 176.363636 176.363636 176.363636 169.090909 169.090909 169.090909"></polygon>
                    <rect id="Rectangle" fill="#000000" x="161.818182" y="183.636364" width="7.27272727" height="7.27272727"></rect>
                    <rect id="Rectangle" fill="#000000" x="169.090909" y="154.545455" width="7.27272727" height="7.27272727"></rect>
                    <polygon id="Path" fill="#000000" points="183.636364 74.5454545 176.363636 74.5454545 169.090909 74.5454545 169.090909 67.2727273 161.818182 67.2727273 154.545455 67.2727273 154.545455 74.5454545 147.272727 74.5454545 147.272727 81.8181818 140 81.8181818 140 74.5454545 132.727273 74.5454545 132.727273 96.3636364 140 96.3636364 140 89.0909091 147.272727 89.0909091 147.272727 96.3636364 154.545455 96.3636364 154.545455 89.0909091 161.818182 89.0909091 161.818182 96.3636364 169.090909 96.3636364 169.090909 81.8181818 176.363636 81.8181818 176.363636 89.0909091 183.636364 89.0909091 183.636364 103.636364 190.909091 103.636364 190.909091 81.8181818 183.636364 81.8181818"></polygon>
                    <polygon id="Path" fill="#000000" points="176.363636 118.181818 183.636364 118.181818 183.636364 125.454545 190.909091 125.454545 190.909091 110.909091 183.636364 110.909091 183.636364 103.636364 176.363636 103.636364"></polygon>
                    <polygon id="Path" fill="#000000" points="176.363636 161.818182 176.363636 169.090909 183.636364 169.090909 183.636364 190.909091 190.909091 190.909091 190.909091 161.818182 183.636364 161.818182"></polygon>
                    <path d="M183.636364,9.09090909 L140,9.09090909 L140,60 L190.909091,60 L190.909091,9.09090909 L183.636364,9.09090909 Z M183.636364,52.7272727 L147.272727,52.7272727 L147.272727,16.3636364 L183.636364,16.3636364 L183.636364,52.7272727 Z" id="Shape" fill="#000000" fill-rule="nonzero"></path>
                    <rect id="Rectangle" fill="#000000" x="183.636364" y="140" width="7.27272727" height="7.27272727"></rect>
                </g>
            </g>
        </g>
    </g>
</svg>