<svg xmlns="http://www.w3.org/2000/svg" viewBox="0 0 143.14 173"><defs><style>.cls-1{fill:#fff;}</style></defs><title>Asset 5</title><g id="Layer_2" data-name="Layer 2"><g id="Layer_1-2" data-name="Layer 1"><path class="cls-1" d="M73.71,68.09H68.9V73.8h4.81Z"/><path class="cls-1" d="M68.92,83h4.79V77.19H68.92Z"/><path class="cls-1" d="M68.92,55.59h4.81V50.16H68.92Z"/><path class="cls-1" d="M73.69,59H68.92v5.74h4.77Z"/><path class="cls-1" d="M76.57,112.69l-.21.08v16.92h9C82.37,124,79.47,118.32,76.57,112.69Z"/><path class="cls-1" d="M67,113.39l-.2,0c-2.8,5.41-5.59,10.83-8.43,16.34H67Z"/><path class="cls-1" d="M115.17,51.09H100.41c-.47,0-.79.25-.81.63a.6.6,0,0,0,.17.47.83.83,0,0,0,.6.25h2.32a2.43,2.43,0,0,1,0,4.85c-.29,0-.59,0-.85,0H95.56c-.48,0-.81.33-.79.72s.34.63.82.63H113a2.33,2.33,0,0,0,.48,0,.58.58,0,0,0,.55-.59.61.61,0,0,0-.47-.68,2.24,2.24,0,0,0-.49,0A2.36,2.36,0,0,1,110.52,55a2.53,2.53,0,0,1,2.56-2.53h2.08a1.5,1.5,0,0,0,1-.28.61.61,0,0,0,.15-.43C116.32,51.56,116.31,51.09,115.17,51.09Z"/><path class="cls-1" d="M72.61,111.82l-1.84.11v17.76h1.84Z"/><path class="cls-1" d="M56.43,105H46.12c-.2,0-.43.09-.44.33a.35.35,0,0,0,.08.24.47.47,0,0,0,.34.12h1.62a1.76,1.76,0,0,1,1.72,1.82,1.81,1.81,0,0,1-1.69,1.81h-5c-.27,0-.44.17-.43.38s.24.32.44.32H54.91a1.56,1.56,0,0,0,.31,0,.29.29,0,0,0,.29-.3.31.31,0,0,0-.24-.35,1.37,1.37,0,0,0-.31,0,1.79,1.79,0,0,1-1.91-1.77A1.89,1.89,0,0,1,55,105.72h1.46a1,1,0,0,0,.62-.16.28.28,0,0,0,.07-.21C57.1,105.25,57.1,105,56.43,105Z"/><path class="cls-1" d="M43,97.24h.1a2.33,2.33,0,0,0,.48,0,.58.58,0,0,0,.55-.59.62.62,0,0,0-.47-.69,2.25,2.25,0,0,0-.49,0,2.36,2.36,0,0,1-2.55-2.35A2.53,2.53,0,0,1,43.22,91H45.3a1.47,1.47,0,0,0,1-.28.61.61,0,0,0,.15-.43c0-.18,0-.64-1.15-.64H30.55c-.47,0-.79.25-.81.63a.65.65,0,0,0,.17.47.8.8,0,0,0,.6.24H32l.8,0a2.43,2.43,0,0,1,.05,4.85c-.29,0-.57,0-.86,0H25.7c-.48,0-.81.33-.79.72s.34.63.82.63H43Z"/><path class="cls-1" d="M63.51,33.81a1,1,0,0,0-.76-1.05A3.21,3.21,0,0,0,62,32.7c-2,0-3.39-1.24-3.41-3A3.3,3.3,0,0,1,62,26.51h2.91a2.18,2.18,0,0,0,1.54-.43.82.82,0,0,0,.23-.64c0-.24,0-1-1.76-1H44.35c-.74,0-1.26.39-1.29,1a.92.92,0,0,0,.24.69,1.4,1.4,0,0,0,1,.39H46.4c.38,0,.75,0,1.12,0a3.08,3.08,0,0,1,.06,6.15c-.39,0-.79,0-1.19,0H37.56c-.75,0-1.28.5-1.25,1.09s.56,1,1.31,1h24.3a4.9,4.9,0,0,0,.7,0A.93.93,0,0,0,63.51,33.81Z"/><path class="cls-1" d="M68.88,92.37h4.84v-6H68.88Z"/><path class="cls-1" d="M71.26,0h.14c.22,5.24.43,10.47.62,15.15l2.59,4.4H68.13c1.08-.9,1-2.67,2.34-3.63.23-.16.23-.71.24-1.08.16-4.34.29-8.68.44-13,0-.61.07-1.21.11-1.82H0V130.71a1,1,0,0,1,1-1H54c3.18-6.22,7-13.69,10.08-19.56a1.42,1.42,0,0,0-.19-1.73,23.22,23.22,0,0,1-1.95-3.69,1.32,1.32,0,0,1,.44-1.2,18.11,18.11,0,0,1,17.74.41,1.4,1.4,0,0,1,.46,1.23,8.2,8.2,0,0,1-1.14,2.34,1.62,1.62,0,0,0-.14,2c3.17,6.07,7.16,13.79,10.43,20.21h52.45a1,1,0,0,1,0,2H1a1,1,0,0,1-1-1V173H143.14V0Zm-2.5,20.79A6.76,6.76,0,0,1,74,20.72c.79.31.9.86.47,1.43a30.39,30.39,0,0,1-2.13,2.32c.34,2.85.73,6,1.07,9.11A1.56,1.56,0,0,0,74.51,35a8,8,0,0,1,4.69,5.75,17.93,17.93,0,0,0-15.58-.22,7.57,7.57,0,0,1,4.45-5.44,2,2,0,0,0,1.34-1.94c.29-3,.7-6,1-8.66-.85-.89-1.55-1.53-2.13-2.27S68,21.12,68.76,20.79Zm-31.29,78H25.73a2.27,2.27,0,0,1-1.87-3.7,2.38,2.38,0,0,1,1.86-.81h6.52A1.61,1.61,0,0,0,33.39,94a.77.77,0,0,0,.19-.55c0-.58-.47-.87-1.33-.88H30.59a2.24,2.24,0,0,1-2.43-2.18,2.2,2.2,0,0,1,.6-1.59,2.6,2.6,0,0,1,1.86-.71h15A2.25,2.25,0,0,1,48,90.28a2.21,2.21,0,0,1-.61,1.58,2.47,2.47,0,0,1-1.8.69H43.27a1,1,0,0,0-1,.71.81.81,0,0,0,.07.65.78.78,0,0,0,.52.36,3.15,3.15,0,0,0,.44,0h.28a2.25,2.25,0,0,1-.12,4.5h-6ZM58,106.53a1.91,1.91,0,0,1-1.34.52H55a.55.55,0,0,0-.58.41.43.43,0,0,0,0,.35.4.4,0,0,0,.28.19,1.28,1.28,0,0,0,.29,0h.2a1.7,1.7,0,0,1-.09,3.39H42.76a1.71,1.71,0,0,1-1.41-2.79,1.79,1.79,0,0,1,1.4-.6H47.3a1,1,0,0,0,.71-.2.35.35,0,0,0,.1-.29c0-.14,0-.49-.8-.49H46.15a1.7,1.7,0,0,1-1.82-1.65,1.66,1.66,0,0,1,.45-1.2,1.93,1.93,0,0,1,1.39-.53H56.65a1.67,1.67,0,0,1,1.8,1.66A1.63,1.63,0,0,1,58,106.53Zm-1.51-70H37.62a3,3,0,0,1-3.11-2.3A2.8,2.8,0,0,1,35.09,32a3.18,3.18,0,0,1,2.51-1.07h9.11a2.46,2.46,0,0,0,1.74-.51,1,1,0,0,0,.28-.8c0-1.06-1.11-1.28-2-1.28H44.4c-1.87,0-3.2-1.15-3.23-2.76a2.68,2.68,0,0,1,.75-2,3.5,3.5,0,0,1,2.53-.95H65.39a2.92,2.92,0,0,1,3.2,2.79,2.71,2.71,0,0,1-.76,2,3.42,3.42,0,0,1-2.44.92h-3.3a1.53,1.53,0,0,0-1.55,1,1.16,1.16,0,0,0,.1.93,1.23,1.23,0,0,0,.86.57,4.31,4.31,0,0,0,.64,0l.38,0a2.88,2.88,0,0,1,2.91,2.91,2.92,2.92,0,0,1-3.06,2.77H56.48Zm5.26,64a7.71,7.71,0,0,1,3.46-6.14,3.05,3.05,0,0,0,1.39-3c0-14,0-28,0-42a2.68,2.68,0,0,0-.54-1.2c-.78-1.35-1.63-2.65-2.37-4-.33-.63,0-1.12.65-1.46A15.19,15.19,0,0,1,78.45,43c.7.36.93.87.59,1.47-.74,1.32-1.61,2.57-2.39,3.87A3.15,3.15,0,0,0,76,49.75q0,21.41,0,42.8a1.9,1.9,0,0,0,.71,1.32,10.13,10.13,0,0,1,4,5.82c.1.41.14.83.24,1.44A21.84,21.84,0,0,0,61.74,100.6Zm55.54-47.3a2.52,2.52,0,0,1-1.79.69h-2.37a1,1,0,0,0-1,.71.81.81,0,0,0,.08.65.75.75,0,0,0,.52.36,2.94,2.94,0,0,0,.44,0l.28,0a2.25,2.25,0,1,1-.12,4.49H95.59a2.27,2.27,0,0,1-1.87-3.7,2.41,2.41,0,0,1,1.86-.81h6.52a1.61,1.61,0,0,0,1.15-.34.72.72,0,0,0,.18-.55c0-.58-.46-.87-1.32-.87h-1.66A2.25,2.25,0,0,1,98,51.8a2.12,2.12,0,0,1,.6-1.58,2.56,2.56,0,0,1,1.86-.71h15a2.23,2.23,0,0,1,2.41,2.2A2.16,2.16,0,0,1,117.28,53.3ZM22.2,135.42h98.74a1,1,0,0,1,0,2H22.2a1,1,0,0,1,0-2Zm28.36,18.69a1.68,1.68,0,0,0,1.58.78,2.1,2.1,0,0,0,1.45-.44,1.88,1.88,0,0,0,.54-1.42h2.73a4.09,4.09,0,0,1-.64,2.1,3.83,3.83,0,0,1-1.65,1.42,5.56,5.56,0,0,1-2.43.5,4.49,4.49,0,0,1-3.54-1.46,6,6,0,0,1-1.3-4.15v-.56a6.92,6.92,0,0,1,.59-2.94A4.38,4.38,0,0,1,49.57,146a4.67,4.67,0,0,1,2.54-.69,4.9,4.9,0,0,1,3.34,1.09,4.37,4.37,0,0,1,1.44,3H54.14a2,2,0,0,0-.52-1.5,2.2,2.2,0,0,0-1.51-.45,1.64,1.64,0,0,0-1.51.77,5,5,0,0,0-.5,2.45v.81A5.39,5.39,0,0,0,50.56,154.11Zm57.55,11.13c.38,0,.68.45.68,1s-.3,1-.68,1H35c-.38,0-.69-.45-.69-1s.31-1,.69-1ZM65,150v-4.54h2.73V156.9H65v-4.77H60.92v4.77H58.17V145.47h2.75V150Zm4.66,6.89V145.47h2.75V156.9Zm4.66,0V145.47h2.76l4,7.11v-7.11h2.74V156.9H81.1l-4-7.11v7.11Zm10.54,0L89,145.47h2.58l4.23,11.43h-3l-.67-2.14H88.44l-.66,2.14Zm39,16.1H19.33c-.4,0-.73-.46-.73-1s.33-1,.73-1H123.81c.4,0,.72.46.72,1S124.21,173,123.81,173Z"/><polygon class="cls-1" points="90.32 148.67 89.1 152.63 91.55 152.63 90.32 148.67"/></g></g></svg>