<svg xmlns="http://www.w3.org/2000/svg" viewBox="0 0 143.14 173"><defs><style>.cls-1{fill:#fff;}</style></defs><title>Asset 7</title><g id="Layer_2" data-name="Layer 2"><g id="Layer_1-2" data-name="Layer 1"><polygon class="cls-1" points="76.58 84.97 80.09 84.97 79.21 81.93 76.13 81.93 76.58 84.97"/><polygon class="cls-1" points="74.69 66.53 76.54 66.53 76.36 64.3 74.61 64.3 74.69 66.53"/><polygon class="cls-1" points="74.86 71.01 76.91 71.01 76.71 68.59 74.77 68.59 74.86 71.01"/><polygon class="cls-1" points="77.53 76.16 65.59 76.16 64.51 79.87 78.61 79.87 77.53 76.16"/><polygon class="cls-1" points="67.08 95.32 76.03 95.32 74.05 81.93 69.07 81.93 67.08 95.32"/><polygon class="cls-1" points="74.53 62.24 76.19 62.24 76.01 60.01 74.45 60.01 74.53 62.24"/><path class="cls-1" d="M71.58,37.86,70.47,71H72.8l-.44-11.79a1.72,1.72,0,0,1,0-.24,1.1,1.1,0,0,1,0-.16l-.15-4.09s0,0,0,0v0l-.15-4.09a1,1,0,0,1,0-.17.42.42,0,0,1,0-.12Z"/><polygon class="cls-1" points="74.79 45.09 73.19 25.59 73.91 45.09 74.79 45.09"/><polygon class="cls-1" points="72.02 20.58 73.08 20.58 73.08 18.62 69.95 18.62 69.95 20.58 71.1 20.58 72.02 20.58"/><rect class="cls-1" x="70.44" y="15.66" width="2.15" height="0.9"/><polygon class="cls-1" points="74.06 49.38 75.14 49.38 74.96 47.15 73.98 47.15 74.06 49.38"/><polygon class="cls-1" points="74.22 53.67 75.49 53.67 75.31 51.44 74.14 51.44 74.22 53.67"/><polygon class="cls-1" points="74.38 57.95 75.84 57.95 75.66 55.72 74.3 55.72 74.38 57.95"/><polygon class="cls-1" points="65.47 148.68 64.25 152.64 66.7 152.64 65.47 148.68"/><path class="cls-1" d="M142.16,131.72H1a1,1,0,0,1,0-2H40.07l14.76-26.12a1,1,0,0,1-.6-.92V96.47a1,1,0,0,1,1-1h2.57l5.61-19.28h-.11a1,1,0,0,1-1-1V72a1,1,0,0,1,1-1h1l3.84-48.76a1,1,0,0,1-.24-.64v-4a1,1,0,0,1,.49-.85V14.63a1,1,0,0,1,1-1h1.07V1a1,1,0,0,1,1-1H0V173H19.33c-.4,0-.73-.46-.73-1s.33-1,.73-1H123.81c.4,0,.72.46.72,1s-.32,1-.72,1h19.33V130.71A1,1,0,0,1,142.16,131.72ZM33.2,48.34a6,6,0,0,1,11.6.8h0a4.39,4.39,0,1,1,0,8.77H34.57a4.88,4.88,0,0,1-1.37-9.57Zm74.91,118.93H35c-.38,0-.69-.45-.69-1s.31-1,.69-1h73.08c.38,0,.68.45.68,1S108.49,167.27,108.11,167.27Zm-59.31-17v2.12H44.36v4.55H41.61V145.47h7.64v2.13H44.36v2.63Zm10.81,6.55v.12h-3l-2-4H53.15v4H50.4V145.47h4.49a5.09,5.09,0,0,1,3.18.9,3.07,3.07,0,0,1,1.14,2.55,3.75,3.75,0,0,1-.48,2,3.44,3.44,0,0,1-1.51,1.27Zm.38.12,4.19-11.43h2.59L71,156.9H68l-.67-2.14H63.59l-.66,2.14Zm11.83,0V145.47h2.75l4,7.11v-7.11h2.75V156.9H78.62l-4.05-7.11v7.11ZM86,154.11a1.68,1.68,0,0,0,1.58.79,2.1,2.1,0,0,0,1.45-.45A1.91,1.91,0,0,0,89.6,153h2.74a4.26,4.26,0,0,1-.64,2.11,3.88,3.88,0,0,1-1.65,1.41,5.56,5.56,0,0,1-2.43.5,4.53,4.53,0,0,1-3.55-1.46,6.08,6.08,0,0,1-1.29-4.15v-.56a6.92,6.92,0,0,1,.58-2.94A4.34,4.34,0,0,1,85.05,146a4.65,4.65,0,0,1,2.54-.69,4.92,4.92,0,0,1,3.34,1.09,4.32,4.32,0,0,1,1.43,3H89.62a2,2,0,0,0-.53-1.5,2.17,2.17,0,0,0-1.5-.45,1.63,1.63,0,0,0-1.51.77,4.85,4.85,0,0,0-.5,2.45v.81A5.39,5.39,0,0,0,86,154.11Zm14.69-4.1v2H96.4v2.73h5.11v2.12H93.64V145.47h7.89v2.13H96.4V150Zm20.21-12.56H22.2a1,1,0,0,1,0-2h98.74a1,1,0,0,1,0,2Z"/><polygon class="cls-1" points="89.2 122.14 96.42 122.14 93.69 117.32 86.9 117.32 89.2 122.14"/><polygon class="cls-1" points="85.92 115.26 92.53 115.26 89.8 110.44 83.62 110.44 85.92 115.26"/><path class="cls-1" d="M34.57,55.88H44.82a2.36,2.36,0,1,0-1.43-4.23A1,1,0,1,1,42.16,50a4.59,4.59,0,0,1,.66-.42,4,4,0,0,0-7.33-1.41,5,5,0,0,1,2.14,1,1,1,0,0,1,.15,1.43,1,1,0,0,1-1.42.15,2.87,2.87,0,1,0-1.79,5.11Z"/><path class="cls-1" d="M54.89,147.59H53.15v3.15h1.74a1.43,1.43,0,0,0,1.58-1.57,1.65,1.65,0,0,0-.4-1.16A1.56,1.56,0,0,0,54.89,147.59Z"/><polygon class="cls-1" points="78.11 103.68 65 103.68 62.76 108.38 80.35 108.38 78.11 103.68"/><polygon class="cls-1" points="80.39 103.68 82.63 108.38 88.64 108.38 85.99 103.68 80.39 103.68"/><polygon class="cls-1" points="78.11 95.32 83.1 95.32 82.17 92.12 77.64 92.12 78.11 95.32"/><path class="cls-1" d="M81.34,110.43H79.76a17.76,17.76,0,0,1,2.29,1.5Z"/><path class="cls-1" d="M61,112.15a17.86,17.86,0,0,1,2.56-1.72H61.78Z"/><polygon class="cls-1" points="77.33 90.07 81.58 90.07 80.69 87.03 76.88 87.03 77.33 90.07"/><polygon class="cls-1" points="66.23 87.03 62.42 87.03 61.54 90.07 65.78 90.07 66.23 87.03"/><polygon class="cls-1" points="45.54 124.2 42.45 129.67 50.33 129.67 52.94 124.2 45.54 124.2"/><polygon class="cls-1" points="56.22 117.32 49.42 117.32 46.7 122.14 53.92 122.14 56.22 117.32"/><polygon class="cls-1" points="64.35 101.62 78.76 101.62 86.59 101.62 86.83 101.62 86.83 100.59 56.29 100.59 56.29 101.62 56.53 101.62 64.35 101.62"/><path class="cls-1" d="M85.65,119.48c-.17-.37-4.24-9-14.09-9-9.54,0-14.06,9-14.11,9.08h0l-4.84,10.16h37.9l-4.86-10.19Z"/><polygon class="cls-1" points="62.72 103.68 57.13 103.68 54.48 108.38 60.48 108.38 62.72 103.68"/><polygon class="cls-1" points="59.5 110.44 53.31 110.44 50.59 115.26 57.2 115.26 59.5 110.44"/><path class="cls-1" d="M112.31,32a3.61,3.61,0,0,0-2.7,1.21,1,1,0,0,1-1.52-1.35,5.65,5.65,0,0,1,2.53-1.63,4.55,4.55,0,0,0-9-.34,1,1,0,0,1-1.18.8,1,1,0,0,1-.81-1.19,6.67,6.67,0,0,1,.47-1.41,2.81,2.81,0,0,0-1.33-.34,3,3,0,0,0-3,3,3.46,3.46,0,0,0,.09.72,5.09,5.09,0,0,1,1.79,1.06A1,1,0,1,1,96.28,34a3,3,0,1,0-2.06,5.21h18.09a3.62,3.62,0,1,0,0-7.23Z"/><path class="cls-1" d="M110.38,83.82a2.13,2.13,0,0,0-1.33.46,1,1,0,1,1-1.27-1.58,4,4,0,0,1,1.53-.75,3.05,3.05,0,0,0-2.42-1.2,3.09,3.09,0,0,0-3,2.35,4.17,4.17,0,0,1,.44.29,1,1,0,0,1-1.24,1.6,1.67,1.67,0,0,0-1-.35,1.72,1.72,0,0,0,0,3.44h8.31a2.13,2.13,0,0,0,0-4.26Z"/><polygon class="cls-1" points="69.94 25.61 68.4 45.09 69.28 45.09 69.94 25.61"/><path class="cls-1" d="M71.51,0a1,1,0,0,1,1,1V13.6h1.08a1,1,0,0,1,1,1v2.11a1,1,0,0,1,.49.85v4a1,1,0,0,1-.16.52L79,71h.81a1,1,0,0,1,1,1v3.09a1,1,0,0,1-1,1h-.12l5.61,19.28h2.57a1,1,0,0,1,1,1v6.18a1,1,0,0,1-.59.92L103,129.69h39.12a1,1,0,0,1,1,1V0Zm38.87,90.1h-8.31a3.74,3.74,0,0,1-.13-7.47,5.14,5.14,0,0,1,5-3.91A5.09,5.09,0,0,1,111.64,82a4.15,4.15,0,0,1-1.26,8.1Zm1.93-48.89H94.22a5,5,0,0,1-.42-10,3.75,3.75,0,0,1,0-.47,5,5,0,0,1,5-5,5,5,0,0,1,2.43.65A6.57,6.57,0,0,1,112.65,30a5.63,5.63,0,0,1-.34,11.26Z"/><polygon class="cls-1" points="90.18 124.2 92.79 129.67 100.67 129.67 97.58 124.2 90.18 124.2"/><polygon class="cls-1" points="68.78 60.01 67.22 60.01 67.05 62.24 68.71 62.24 68.78 60.01"/><rect class="cls-1" x="56.29" y="97.5" width="30.53" height="1.03"/><polygon class="cls-1" points="69.07 51.44 67.9 51.44 67.72 53.67 68.99 53.67 69.07 51.44"/><polygon class="cls-1" points="68.64 64.3 66.89 64.3 66.71 66.53 68.56 66.53 68.64 64.3"/><polygon class="cls-1" points="69.21 47.15 68.24 47.15 68.06 49.38 69.14 49.38 69.21 47.15"/><polygon class="cls-1" points="68.92 55.72 67.56 55.72 67.39 57.95 68.85 57.95 68.92 55.72"/><polygon class="cls-1" points="65.48 92.12 60.94 92.12 60.01 95.32 65 95.32 65.48 92.12"/><polygon class="cls-1" points="68.49 68.59 66.55 68.59 66.36 71.01 68.41 71.01 68.49 68.59"/><polygon class="cls-1" points="66.99 81.93 63.91 81.93 63.02 84.97 66.54 84.97 66.99 81.93"/><path class="cls-1" d="M64.82,74.09H78.76v-1H64.35v1h.47Z"/></g></g></svg>