<svg xmlns="http://www.w3.org/2000/svg" viewBox="0 0 143.14 173"><defs><style>.cls-1{fill:#fff;}</style></defs><title>Asset 3</title><g id="Layer_2" data-name="Layer 2"><g id="Layer_1-2" data-name="Layer 1"><path class="cls-1" d="M64.06,24.35v.08a.63.63,0,0,0,.33.69A1.56,1.56,0,0,1,65,26.23a19.37,19.37,0,0,1,0,2.55s0,.85-.46,1-.48.49-.46,1c0,.09,0,.17,0,.26,0,1.22,0,2.44,0,3.67V36l.3,0c1.79,0,2.49.72,2.49,2.5l0,6.2c0,.15,0,.31,0,.46v0a3.07,3.07,0,0,1,2.46,1.29A2.74,2.74,0,0,1,69.09,49a1.55,1.55,0,0,1,.34,1.75,1.63,1.63,0,0,1-1.74.79c-.19,0-.38,0-.59,0H67l.7,18.72h3.85v.2a6.49,6.49,0,0,1-.48,3.54c-.29.56-.53,1.17-.77,1.75a19.63,19.63,0,0,1-.81,1.83,8.84,8.84,0,0,0-1,5.82,8.45,8.45,0,0,1,.1,1.47.35.35,0,0,0,0,.22.39.39,0,0,0,.26,0H72.4c.69,0,1.09-.38,1.09-1s-.43-1-1.12-1l-.66,0a6.91,6.91,0,0,1-1.36,0,2.8,2.8,0,0,1-1.45-.71,1.71,1.71,0,0,1-.26-2.09,1.93,1.93,0,0,1,1.85-1.09H84.83a1.91,1.91,0,0,1,1.93,1.84,2,2,0,0,1-.49,1.45,1.92,1.92,0,0,1-1.36.61c-.43,0-.87,0-1.31,0H82.38a1.05,1.05,0,0,0-1,1.06c0,.52.41.86,1.07.89h.49a1.85,1.85,0,0,1,1.65,1.29,2,2,0,0,1-.23,1.77,2,2,0,0,1-1.7.83H68.74l3.36,40.59h34.1a61.77,61.77,0,0,0,9.75-9A61.09,61.09,0,0,0,128,62.32C122.63,45.4,111.64,32.85,95.39,25a60.12,60.12,0,0,0-21.7-5.61c-.62,0-1.24-.06-1.87-.09l-.64,0a3.13,3.13,0,0,1-.7,2.3,3.2,3.2,0,0,1-2.39.76h-3a.85.85,0,0,0-.16,0,2.51,2.51,0,0,1-.45.47c-.4.34-.61.55-.45,1A1.3,1.3,0,0,1,64.06,24.35Z"/><path class="cls-1" d="M65,11.62c0,.46,0,.87,0,1.25a1.7,1.7,0,0,1-.62,1.67,3,3,0,0,1,.7,1.88,3.58,3.58,0,0,1-.67,2.33A1.69,1.69,0,0,1,65,20.42a3.45,3.45,0,0,0,0,.73h1c.91,0,1.85,0,2.77,0A1.29,1.29,0,0,0,70,19.74a1.38,1.38,0,0,0-1.26-1.31h-.89a2.69,2.69,0,0,1-2.6-2.73,3,3,0,0,1,2.94-2.91h1.36c.72,0,1.46,0,2.19,0a1.36,1.36,0,0,0,0-2.72c-2.22,0-4.48,0-6.66,0h-.8l-.09.06a.48.48,0,0,0,.06.11A1.4,1.4,0,0,1,65,11.62Z"/><path class="cls-1" d="M72.74,86.32c-.83,0-1.66,0-2.47,0H69.12l-.42,0h0l.07,1.55H81.86a7.31,7.31,0,0,0,.94,0,.69.69,0,0,0,.65-.69.72.72,0,0,0-.6-.81,1.23,1.23,0,0,0-.34,0h-.14a2.08,2.08,0,0,1-2.22-2.12,2.19,2.19,0,0,1,2.29-2.16c.31,0,.61,0,.92,0H84.6c.6,0,1-.32,1-.79s-.36-.78-1-.78q-7,0-14.07,0a.81.81,0,0,0-.92.79c0,.46.36.77.92.78.25,0,.51,0,.76,0s.78,0,1.17,0a2.64,2.64,0,0,1,1.12.27,2.12,2.12,0,0,1-.85,4Z"/><path class="cls-1" d="M64.76,37.27v7.95h.92v-1.7c0-1.83,0-3.65,0-5.48a.78.78,0,0,0-.25-.62A.8.8,0,0,0,64.76,37.27Z"/><path class="cls-1" d="M65.94,81.09c.84,15.45,2,31.39,3.53,48.6h1.4L67,81.09Z"/><path class="cls-1" d="M63.75,19.79a.41.41,0,0,0-.25-.06H62.06c-.5,0-.83,0-.92.09a1.94,1.94,0,0,0-.09.89v.43a1.92,1.92,0,0,0,.06.81,1.74,1.74,0,0,0,.68.05h1.64a.43.43,0,0,0,.31-.08.38.38,0,0,0,.07-.27V20A.35.35,0,0,0,63.75,19.79Z"/><path class="cls-1" d="M62,23.24a4.31,4.31,0,0,0,0,1.56,3.53,3.53,0,0,0,.52.05l.25,0V23.16l-.25,0C62.4,23.2,62.16,23.21,62,23.24Z"/><path class="cls-1" d="M61.1,28.94a1.69,1.69,0,0,0,.7,0h1.07a2.18,2.18,0,0,0,.89-.07,1.61,1.61,0,0,0,.05-.69c0-.2,0-.43,0-.7v-.34c0-.27,0-.54,0-.8a.39.39,0,0,0-.07-.28c0-.05-.12-.07-.26-.07H61.37c-.23,0-.3.08-.31.3v.3c0,.34,0,.68,0,1v.54A1.82,1.82,0,0,0,61.1,28.94Z"/><path class="cls-1" d="M60.14,37.26a.91.91,0,0,0-.67.17,1,1,0,0,0-.27.74c0,1.17,0,2.34,0,3.5v3.55h1Z"/><rect class="cls-1" x="62.94" y="37.27" width="0.78" height="7.96"/><path class="cls-1" d="M61.07,46.45H57.72a1.34,1.34,0,0,0-1,.36,1,1,0,0,0-.3.75,1.15,1.15,0,0,0,1.27,1.12H67.1a1.34,1.34,0,0,0,1-.37,1,1,0,0,0,.3-.78c0-.66-.51-1.07-1.3-1.08h-6Z"/><path class="cls-1" d="M68.06,124l-.23-2.79c-.4-4.84-.81-9.85-1.17-14.78s-.69-9.89-1-14.72l-.14-2.15c-.09-1.45-.18-2.9-.26-4.35-.07-1.27-.15-2.54-.23-3.82a.56.56,0,0,0-.13-.29c-.31,0-.68,0-1.1,0h-.31l2,48.64h3.13c0-.27,0-.53-.07-.8C68.34,127.25,68.19,125.61,68.06,124Z"/><path class="cls-1" d="M66,56c0-.6,0-1.2,0-1.8,0-.76,0-1.53-.08-2.29a.61.61,0,0,0-.17-.31,3.07,3.07,0,0,0-.69,0h-.17l.6,18.69H66.5v-.21l-.18-4.48C66.2,62.38,66.07,59.19,66,56Z"/><path class="cls-1" d="M67.42,50.41a2.57,2.57,0,0,0,.69,0,.45.45,0,0,0,.24-.23,1,1,0,0,0-.29-.28h-11a1,1,0,0,0-.52.09.3.3,0,0,0-.06.21c0,.19,0,.25.49.24H67.42Z"/><path class="cls-1" d="M67.92,75.45a.66.66,0,0,1-.26.18.76.76,0,0,1-.33,0h-.09l-10.87,0h-.45c.22.82.3.82,1.16.82h1.23l3.77,0a1.29,1.29,0,0,1,.49.16l.18.08.46.17-.45.21-.16.09a1.08,1.08,0,0,1-.5.18H56.66c.2.84.26.84,1.16.84h5.54a2.88,2.88,0,0,1,.72.15c.1,0,.2.07.3.09l.23.06-.09.22a.76.76,0,0,1-1,.42.93.93,0,0,0-.23,0h-6l.06.18c.12.35.16.51.55.51,2.77,0,5.67,0,8.85,0a.6.6,0,0,0,.65-.44c.42-1,.87-2.07,1.31-3.1l.63-1.44.56-1.33.15-.38h0a2.61,2.61,0,0,1-.63,0,2.32,2.32,0,0,1-.56-.21l-.22-.1-.49-.21.51-.18.21-.08a2,2,0,0,1,.55-.17,6.66,6.66,0,0,1,.77,0h.1v-.66H54.68v.65h5.37c1,0,2.05,0,3.12,0a.92.92,0,0,1,.46.2l.15.09.36.19-.51.25-.4.19a.35.35,0,0,1-.22,0H55.33l-.44,0,.09.23c.15.36.29.7.41,1s.17.29.47.29l9.57,0h1.49a4.29,4.29,0,0,1,.71,0,.5.5,0,0,1,.31.24l.07.08.15.16-.17.14Z"/><path class="cls-1" d="M63.94,52.55c0-.52,0-.86-.12-.94s-.43-.06-.89,0v18.7h1.56v-.23L64.33,65C64.2,60.84,64.06,56.7,63.94,52.55Z"/><path class="cls-1" d="M48.83,108.45a5.94,5.94,0,0,1-.72,0H43.45c-.26,0-.7.07-.7.53s.45.51.72.52H56.76a.86.86,0,0,0,.65-.22.36.36,0,0,0,.1-.3c0-.32-.16-.52-.73-.53a2.14,2.14,0,0,1-1.51-.6,1.69,1.69,0,0,1-.47-1.24,2,2,0,0,1,2-1.89h1.8c.39,0,.59-.18.59-.52a.53.53,0,0,0-.12-.37.71.71,0,0,0-.5-.15H47.06a.66.66,0,0,0-.52.22.39.39,0,0,0-.11.3.56.56,0,0,0,.62.53h1.63a1.84,1.84,0,0,1,1.89,1.81A1.87,1.87,0,0,1,48.83,108.45Z"/><path class="cls-1" d="M61,51.59l-.59,18.69H62V52.5a2.06,2.06,0,0,0-.1-.94A1.92,1.92,0,0,0,61,51.59Z"/><path class="cls-1" d="M61,88.81l.26-7.32v-.41H59.9l-1.33,21.39c1.3.26,1.85.75,1.87,1.69,0,1.12-.7,1.5-2.14,1.81a2.13,2.13,0,0,0,0,.25l0,.21a2.83,2.83,0,0,0,.27,1.91,1.58,1.58,0,0,1-.15,1.58,2.26,2.26,0,0,0-.51,1.56l-.29,3.46q-.49,6-1,12c-.08.92-.17,1.85-.25,2.79h3c.08-1.5.15-3,.23-4.68l.18-4.18c.2-4.5.41-9.15.59-13.73Q60.72,98,61,88.81Z"/><path class="cls-1" d="M56.15,106.26a1,1,0,0,0,0,.74c.17.31.44.31.89.28h.24l.1-1.34h-.5A.7.7,0,0,0,56.15,106.26Z"/><path class="cls-1" d="M59.5,69.38c0-.77.08-1.53.1-2.29.08-2.5.15-5,.23-7.49L60,52.53a2.31,2.31,0,0,0-.06-.94c-.09-.08-.43-.05-.91,0l-.69,18.68h1.08Z"/><path class="cls-1" d="M56.27,102.46h1.39L59,81h-.82a1.29,1.29,0,0,0-.43,0s0,.17,0,.32,0,.19,0,.31l-.11,1.84c-.09,1.51-.18,3-.28,4.52l-.69,9.4-.35,4.75A2,2,0,0,0,56.27,102.46Z"/><polygon class="cls-1" points="62.29 81.09 60.34 129.69 64.53 129.69 62.57 81.09 62.29 81.09"/><path class="cls-1" d="M59.83,21.16h0c.15-1.74.18-2,.64-2.43a3.06,3.06,0,0,1-.68-2.11,3.05,3.05,0,0,1,.69-2.07,1.79,1.79,0,0,1-.63-1.68c0-.35,0-.71,0-1V11.5a1.37,1.37,0,0,1,.71-1.27.78.78,0,0,0,.18-.21H58.67c-2.5,0-5.09,0-7.64,0a1.93,1.93,0,0,0-1.1.55,1.14,1.14,0,0,0-.19,1.34,1.23,1.23,0,0,0,1.16.82c1,0,2.09,0,3.13,0a3,3,0,0,1,2.12.9,2.84,2.84,0,0,1-2.31,4.74H44.75c-1,0-1.6.52-1.61,1.37a1.24,1.24,0,0,0,.35.93,1.69,1.69,0,0,0,1.24.45H59.42Z"/><path class="cls-1" d="M134,25.85h-15a.93.93,0,0,0-1,.85.85.85,0,0,0,.22.62,1.05,1.05,0,0,0,.77.32c.34,0,.69,0,1,0s.88,0,1.32,0a2.26,2.26,0,0,1,0,4.5l-.86,0h-6.42a.94.94,0,0,0-1,.95.92.92,0,0,0,1,.83h17.56a3.23,3.23,0,0,0,.63,0,.78.78,0,0,0,.72-.78.82.82,0,0,0-.62-.92,2.27,2.27,0,0,0-.53,0A2.22,2.22,0,0,1,129.51,30a2.34,2.34,0,0,1,2.4-2.36H134a1.65,1.65,0,0,0,1.17-.35.78.78,0,0,0,.21-.58C135.4,26.49,135.39,25.85,134,25.85Z"/><path class="cls-1" d="M56.91,111.91l.1-1.22h-.25c-.32,0-.61,0-.9,0s-.28,0-.31.33q-.64,7.45-1.31,14.9l-.34,3.78h1.51l0-.28q.63-7.23,1.25-14.47C56.77,113.94,56.84,112.94,56.91,111.91Z"/><path class="cls-1" d="M52.74,129.69l1.69-19H43.85c-.24,0-.49,0-.73,0a1.68,1.68,0,0,1-1.28-.74,1.73,1.73,0,0,1-.18-1.49,1.7,1.7,0,0,1,1.74-1.16h5.05c.61,0,.92-.23.93-.67a.52.52,0,0,0-.15-.43,1.09,1.09,0,0,0-.8-.25H48c-.3,0-.6,0-.9,0a2.59,2.59,0,0,1-.82-.16,1.69,1.69,0,0,1-1-1.93A1.64,1.64,0,0,1,47,102.52h8.07v-.1c0-.15,0-.29,0-.43l.06-.89Q55.89,91,56.58,81a1.68,1.68,0,0,0-.14-.78l-.52-1.32c-.67-1.68-1.36-3.4-2.1-5.07a5.35,5.35,0,0,1-.34-2.39c0-.29,0-.59,0-.89V70.3h3.09c.62,0,.62,0,.65-.61l.1-2.54q.24-6.33.49-12.68c0-.68,0-1.36,0-2.08,0-.27,0-.55,0-.83H56.73a1.32,1.32,0,0,1-1.29-.8,1.38,1.38,0,0,1,.19-1.57l.15-.19a2.29,2.29,0,0,1-.15-2.64A2.46,2.46,0,0,1,58,45.23V42.64c0-1.5,0-3,0-4.49A2,2,0,0,1,60.15,36h.66V35c0-1.61,0-3.19,0-4.76l-.11-.1a1.2,1.2,0,0,1-.17-.21l-.2-.27a1.89,1.89,0,0,1-.42-.85,14.36,14.36,0,0,1,0-2.63,1.67,1.67,0,0,1,.61-1.09.59.59,0,0,0,.32-.63c0-.18,0-.37,0-.55a2.09,2.09,0,0,0,0-.25,1.54,1.54,0,0,0-1.29-1.32H50.81a2.62,2.62,0,0,0-.88.15A61.43,61.43,0,0,0,21,43.24c-.66.85-1.3,1.74-1.91,2.6l-.76,1.07h8.91a2.61,2.61,0,0,1,.95.14,1.65,1.65,0,0,1,1,1.9,1.67,1.67,0,0,1-1.6,1.36h-1c-.36,0-.71,0-1.06,0a.75.75,0,0,0-.51.22.73.73,0,0,0-.17.52c0,.39.23.58.67.6h.2a2.17,2.17,0,0,1,.36,0,1.71,1.71,0,0,1-.45,3.39H14.27c-.36,0-.49.08-.62.38A61.29,61.29,0,0,0,33,129.69Z"/><path class="cls-1" d="M71.58,147.52H69.74v3.29h1.81a1.67,1.67,0,0,0,1.21-.4,1.47,1.47,0,0,0,.42-1.13,1.84,1.84,0,0,0-.43-1.28A1.52,1.52,0,0,0,71.58,147.52Z"/><polygon class="cls-1" points="60.64 148.59 59.42 152.55 61.87 152.55 60.64 148.59"/><path class="cls-1" d="M62.84,36V30.2l-.27,0a1.47,1.47,0,0,0-.55,0,1.78,1.78,0,0,0,0,.56v4.81c0,.14,0,.28,0,.41Z"/><path class="cls-1" d="M18,51.43a.59.59,0,0,0,.14-.46.63.63,0,0,0-.67-.64,7.35,7.35,0,0,0-1.05,0,.41.41,0,0,0-.22.1c-.21.34-.4.69-.61,1.08l-.09.16H16c.54,0,1.06,0,1.56,0A.69.69,0,0,0,18,51.43Z"/><polygon class="cls-1" points="80.64 148.59 79.42 152.55 81.88 152.55 80.64 148.59"/><rect class="cls-1" x="62.02" y="4.72" width="0.8" height="5.34"/><path class="cls-1" d="M63.08,11.3H61.36a.33.33,0,0,0-.23.06.33.33,0,0,0-.07.27c0,.52,0,1,0,1.56v.06a.44.44,0,0,0,.06.26c.06.06.2.06.34.06h2a.33.33,0,0,0,.25-.07.35.35,0,0,0,.07-.28V12.05a1.69,1.69,0,0,0-.05-.7A1.8,1.8,0,0,0,63.08,11.3Z"/><path class="cls-1" d="M12.25,53.92H25.72c.58,0,.57-.41.57-.54a.49.49,0,0,0-.13-.36.65.65,0,0,0-.45-.14,1.86,1.86,0,0,1-2-1.11,1.77,1.77,0,0,1,.13-1.67,2.05,2.05,0,0,1,1.7-1c.35,0,.7,0,1.06,0h.75c.55,0,.63-.29.65-.53a.45.45,0,0,0-.11-.32.79.79,0,0,0-.59-.2H16a.91.91,0,0,0-.67.22.41.41,0,0,0-.12.34c0,.4.45.49.81.49h.54c.32,0,.65,0,1,0a1.89,1.89,0,0,1,1.46.77,1.86,1.86,0,0,1-1.6,2.94c-1.5,0-3,0-4.49,0h-.75c-.18,0-.58,0-.6.43a1.1,1.1,0,0,0,.38.6A.9.9,0,0,0,12.25,53.92Z"/><path class="cls-1" d="M61.91,37.25a1.87,1.87,0,0,0-.73,0l0,0v8l.86,0L62,38A2,2,0,0,0,61.91,37.25Z"/><path class="cls-1" d="M63.81,16.37a1.87,1.87,0,0,0-.06-.8,1.7,1.7,0,0,0-.71-.05H61.36a.41.41,0,0,0-.23.06.39.39,0,0,0-.07.26c0,.5,0,1,0,1.49v.14a.38.38,0,0,0,.07.27.37.37,0,0,0,.26.06c.68,0,1.36,0,2,0a.41.41,0,0,0,.33-.08.44.44,0,0,0,.06-.31v-1Z"/><path class="cls-1" d="M61.81,3.48h1.68a.37.37,0,0,0,.25-.07.35.35,0,0,0,.07-.28V1.51a.35.35,0,0,0-.06-.24.39.39,0,0,0-.24-.06c-.71,0-1.41,0-2.11,0h0a.37.37,0,0,0-.26.07.38.38,0,0,0-.06.25c0,.11,0,.22,0,.33v.78a1.83,1.83,0,0,0,.06.79A1.84,1.84,0,0,0,61.81,3.48Z"/><path class="cls-1" d="M0,0V130.71a1,1,0,0,1,1-1H30.15A61.87,61.87,0,0,1,8.91,97.54a63.06,63.06,0,0,1,3-42.44L11.62,55a1.69,1.69,0,0,1-1.25-1.81A1.65,1.65,0,0,1,12,51.7a.19.19,0,0,1,.13,0c1.41.36,1.91-.56,2.38-1.71a.42.42,0,0,0,0-.31,1.73,1.73,0,0,1-.17-1.86,1.54,1.54,0,0,1,1.64-.9c.33,0,.47-.1.7-.45a63.6,63.6,0,0,1,24.87-22.3c.76-.38,1.55-.75,2.29-1.08l.36-.16c.39-.18.8-.36,1.2-.56h-.54a3,3,0,0,1-2.13-.84A2.41,2.41,0,0,1,42,19.77a2.62,2.62,0,0,1,2.81-2.54H54a1.8,1.8,0,0,0,1.43-.67,1.58,1.58,0,0,0,.26-1.39A1.6,1.6,0,0,0,54.09,14H52.85c-.63,0-1.27,0-1.9,0a2.55,2.55,0,0,1-2.5-2.32A2.53,2.53,0,0,1,50.24,9a4.39,4.39,0,0,1,1.19-.13h9.38V5.38c0-.47,0-.82-.48-1.1s-.48-.87-.52-1.39c-.07-.75,0-2.1.49-2.5a1.77,1.77,0,0,1,1-.36c.68,0,1.37,0,2,0h.21A1.34,1.34,0,0,1,65,1.45c0,.44,0,.88,0,1.32v.49a1.39,1.39,0,0,1-.72,1.27.44.44,0,0,0-.19.27c0,1.06,0,2.13,0,3.23v.8h2.62c1.61,0,3.26,0,4.89,0A2.73,2.73,0,0,1,73.84,10a2.49,2.49,0,0,1,.23,2.33A2.58,2.58,0,0,1,71.55,14H68.06a1.7,1.7,0,0,0-1.59,1.42,1.52,1.52,0,0,0,.86,1.7,1.12,1.12,0,0,0,.34.11l1.28.15c1,.12,2,.24,3,.28a61.69,61.69,0,0,1,36.67,13.56,61.61,61.61,0,0,1,22.92,38.34A62.74,62.74,0,0,1,109,129.69h33.16a1,1,0,0,1,0,2H1a1,1,0,0,1-1-1V173H19.33c-.4,0-.73-.46-.73-1s.33-1,.73-1H123.81c.4,0,.72.46.72,1s-.32,1-.72,1h19.33V0ZM136,28.14a2.29,2.29,0,0,1-1.67.64H132a1.18,1.18,0,0,0-1.21.87,1,1,0,0,0,.1.83,1,1,0,0,0,.66.45,2.52,2.52,0,0,0,.48,0h.28a2,2,0,0,1,2,2.12,2.07,2.07,0,0,1-2.13,2h-18a2.09,2.09,0,0,1-1.74-3.41,2.22,2.22,0,0,1,1.73-.75h6.62a1.79,1.79,0,0,0,1.31-.41,1,1,0,0,0,.25-.71c0-.9-.86-1.09-1.55-1.09h-1.69a2.08,2.08,0,0,1-2.26-2,2,2,0,0,1,.56-1.46,2.4,2.4,0,0,1,1.74-.66h15.22a2.07,2.07,0,0,1,2.23,2A1.93,1.93,0,0,1,136,28.14ZM108.11,167.27H35c-.38,0-.69-.45-.69-1s.31-1,.69-1h73.08c.38,0,.68.45.68,1S108.49,167.27,108.11,167.27Zm-61.5-13.91h2.76a1.89,1.89,0,0,0,.27,1.14,1.23,1.23,0,0,0,1.79-.07,2.09,2.09,0,0,0,.31-1.2v-7.84h2.74v7.84a3.79,3.79,0,0,1-.5,1.94,3.44,3.44,0,0,1-1.42,1.33,4.33,4.33,0,0,1-2,.47,4.15,4.15,0,0,1-2.9-.94A3.43,3.43,0,0,1,46.61,153.36Zm8.55,3.45,4.19-11.42h2.59l4.22,11.42h-3l-.67-2.13H58.76l-.66,2.13Zm19.62-4.87a4.94,4.94,0,0,1-3.28,1H69.74v3.87H67V145.39h4.56a5.3,5.3,0,0,1,2.31.48,3.62,3.62,0,0,1,1.56,1.38,3.72,3.72,0,0,1,.56,2A3.31,3.31,0,0,1,74.78,151.94Zm4.57-6.55h2.59l4.22,11.42h-3l-.67-2.13H78.76l-.66,2.13H75.16ZM87,156.81V145.39h2.75l4,7.11v-7.11h2.75v11.42H93.79l-4.05-7.1v7.1Zm34-19.36H22.2a1,1,0,0,1,0-2h98.74a1,1,0,0,1,0,2Z"/></g></g></svg>