<svg xmlns="http://www.w3.org/2000/svg" viewBox="0 0 143.14 173"><defs><style>.cls-1{fill:#fff;}</style></defs><title>Asset 8</title><g id="Layer_2" data-name="Layer 2"><g id="Layer_1-2" data-name="Layer 1"><path class="cls-1" d="M58.46,111.56l-.05.26H58c.27.09.53.18.78.28Z"/><path class="cls-1" d="M61.68,111.31l-.17.36h.37l-.66-1.75-.09.44-.59-.28a.84.84,0,0,1-.2.54l-.1.09-.71.39.08.21Z"/><path class="cls-1" d="M58.92,114.17a.34.34,0,0,1-.06.12.73.73,0,0,1-.22.21c.31.23.62.46,1,.68Z"/><path class="cls-1" d="M59,114H59L59,114Z"/><path class="cls-1" d="M62.61,114l.06.42a1.18,1.18,0,0,1,0,.46l.14-.11c.19-.16.37-.3.55-.43a.74.74,0,0,1-.29-.12c-.46-.35-.91-.73-1.41-1.15l-.56-.46-.05.11a1.41,1.41,0,0,1-.19.34,2.75,2.75,0,0,1-.23.33l-.38.54-.41-.3-.23-.15.07.52Z"/><path class="cls-1" d="M60.46,107.84l0,.09-.38,0-.24,0-.16.3,1.37.14C60.84,108.25,60.65,108.05,60.46,107.84Z"/><path class="cls-1" d="M84.22,81.12l-.35-.39-1.26,1.55a1.16,1.16,0,0,1,.18,0,1,1,0,0,1,.71.29c.28.33.53.67.8,1l0,0c.35-.36.65-.68.94-1a1,1,0,0,1,.56-.34L84.6,80.73l1.24-1.12.72.8c.29.32.58.64.85,1,.23-.32.48-.62.73-.93l.51-.62-1.8-1.66Z"/><path class="cls-1" d="M64.88,112.32l.55-.47c.22-.2.44-.4.66-.58l-2.76-.59,0,0a1,1,0,0,1-.08.85l-.1.11h1.75Z"/><polygon class="cls-1" points="57.7 102.61 57.57 102.75 56.83 102.43 56.76 102.92 58.12 103.72 57.7 102.61"/><path class="cls-1" d="M58.91,106.44c0-.21,0-.41,0-.61l-.18.2-.29-.16.16,1-.17,0,.5.27C58.91,106.9,58.91,106.67,58.91,106.44Z"/><path class="cls-1" d="M87.47,84l-.72-.84a.88.88,0,0,1-.18.43c-.36.41-.74.81-1.13,1.21l1.83,1.74,1.56-1.86-1-1.19Z"/><path class="cls-1" d="M58.47,109.43h-.18l.62.28V109l-.39-.14Z"/><path class="cls-1" d="M56.94,99.83a1.71,1.71,0,0,1-.07-.65c-.23.11-.47.2-.74.3l-.35.56,1.36.65C57.07,100.37,57,100.1,56.94,99.83Z"/><path class="cls-1" d="M82.74,76.51l-.39.36.18.16.47.44c.37.34.75.69,1.1,1l.09.1.06-.07a11.39,11.39,0,0,1,.92-1l.72-.78,1,.83.74-.94.93.84c.48.43.88.78,1.26,1.15l0,0c.23-.27.48-.52.73-.78l.39-.4a1.17,1.17,0,0,1,.83-.46h.1v0l-.15-1.06c0-.07,0-.09-.18-.12l-1-.2c-1.06-.22-2.15-.45-3.2-.76a29.52,29.52,0,0,1-2.8-1,1.08,1.08,0,0,1-.19,1.1C83.89,75.47,83.3,76,82.74,76.51Z"/><path class="cls-1" d="M92.79,94.54h0a.7.7,0,0,1,.52.21l.07.07a1.07,1.07,0,0,1,.32,1.11h.05l.82-2.1a3.94,3.94,0,0,1-.08-1,4.36,4.36,0,0,0,0-.64,2.83,2.83,0,0,0-.09-.37l0,0c-.4.64-.79,1.29-1.19,2Z"/><path class="cls-1" d="M92.26,84.11l-.25.42-.31-.68L91,85l1.08,1.35.79-1.38-.25-.12A.73.73,0,0,1,92.26,84.11Z"/><path class="cls-1" d="M93.91,88c0-.4-.08-.81-.12-1.22l-.65,1.18.46-.32Z"/><path class="cls-1" d="M93.1,83.28,93,82.85l-.31.52.07,0Z"/><path class="cls-1" d="M91.31,80a.75.75,0,0,1,.26,0,1,1,0,0,1,.59.73.29.29,0,0,0,0,.09,1.14,1.14,0,0,0,.22-1.13,3.14,3.14,0,0,1-.17-.77l0-.27L90.8,80.16A1.12,1.12,0,0,1,91.31,80Z"/><path class="cls-1" d="M92.57,89l-.23.42L92,89l-1.44,2.41,1-.65.7,1.3,1.16-1.83Z"/><path class="cls-1" d="M66.41,109.77l.08,0-.34,1.41.5-.41-.26-.47.63-.85Z"/><path class="cls-1" d="M68.15,105.05a5.51,5.51,0,0,0-4.55-4.94,17.27,17.27,0,0,0-2.43-.22H61l-.88,0-.51,0c-.4,0-.71.06-1,.06l-.14.13.19,0c.15.56.31,1.12.48,1.67a14.83,14.83,0,0,0,2.5,4.93,4.06,4.06,0,0,0,3,1.82,3.27,3.27,0,0,0,1.26-.28A3.4,3.4,0,0,0,68.15,105.05Z"/><path class="cls-1" d="M67.67,113.89h0v0Z"/><path class="cls-1" d="M79.76,73.36h0a1.07,1.07,0,0,1,.83.45q.38.43.78.84l.5.52q.36-.42.75-.81l.58-.62a1.15,1.15,0,0,1,.5-.33c-.91-.41-1.82-.86-2.77-1.39a1.16,1.16,0,0,1-.43.58c-.4.31-.8.64-1.2,1A.85.85,0,0,1,79.76,73.36Z"/><path class="cls-1" d="M64.43,113.9l1.54-.54-.07,0-.78-.2-.24-.07v.17l-.51.05c0,.11,0,.21,0,.29Z"/><path class="cls-1" d="M76.34,109l-.76.57a1.48,1.48,0,0,1,.11,1.37l1.27-.6.74.51V108l-1,.87-.69-1.75-1-2.56a1,1,0,0,1,0-1,1,1,0,0,1,.85-.36h.38l1.17,2.8.09-.09c.43-.42.84-.82,1.22-1.24a1.17,1.17,0,0,1,.81-.45,1,1,0,0,1,.32.08L78.7,98.9l-.88,1v0a.94.94,0,0,1-.29.81l-3.48,3.83.31-.26,1.06,1.31-2.13,1.85.69,0-.15,1.19,1.6-1Z"/><path class="cls-1" d="M72.13,111.73a.92.92,0,0,1-.26.57h1.67l0,.4.46-2.14Z"/><path class="cls-1" d="M79.87,111.8l.21.29a1.93,1.93,0,0,1,.23.37v-.15c0-.77,0-1.5,0-2.23l-1.79,1.31.21.14-.27.76Z"/><path class="cls-1" d="M90,83.43a.21.21,0,0,1,0-.06,1,1,0,0,1,.7-.58h.13a1,1,0,0,1,.42.1l-1-2.16L90,81,89.9,81l-1,1.19.34.41c.21.26.42.5.61.75A.86.86,0,0,1,90,83.43Z"/><path class="cls-1" d="M88.62,87.8a.76.76,0,0,1,.59.22,8.41,8.41,0,0,1,.59.78l.18.25c.14-.24.26-.43.4-.64l.51-.81.13.09-1.18-1.55-1.36,1.67Z"/><path class="cls-1" d="M66.27,73.65l-.26.06c.42.37.86.79,1.41,1.33.32-.57.65-1.14,1-1.73l.64-1.08-2-2.32c0,.75,0,1.51,0,2.26v.15A1.14,1.14,0,0,1,66.27,73.65Z"/><path class="cls-1" d="M67.82,67.09a3,3,0,0,1-.48.13,1.28,1.28,0,0,0-.3.07s0,.28,0,.44a2.54,2.54,0,0,1,0,.39c0,.11,0,.23,0,.34v.65l1-.63,2.62,3,1.5-1.81.46.2.24.11L69.84,66.3Z"/><path class="cls-1" d="M90.34,99.16l-.7-.31A4,4,0,0,1,87.54,96l-1.79,2.57,1-.31.08.59a1.33,1.33,0,0,0,0,.19,1.07,1.07,0,0,1,0,.91.59.59,0,0,1-.13.18l.57.82.54-.75a.92.92,0,0,1,.47-.38.84.84,0,0,1,0-.18V99l1.64.5Z"/><path class="cls-1" d="M92.21,95.68a.55.55,0,0,1-.1-.22L90.3,91.84l-.16.28L90,92l-2.13,3,.78-.45,1.1,2.49a.66.66,0,0,1,.45-.23.55.55,0,0,1,.25.07,1.52,1.52,0,0,1,.52.46c.23.34,0,.64-.17.79l-.37.45.17.38.37-.23.3.37.57.93.93-1.94.62.22-1.12-2.27.19,0A2.41,2.41,0,0,1,92.21,95.68Z"/><path class="cls-1" d="M74.59,64.5l-.09,0-2.09.82-.91.36,2.65,3.23a1.26,1.26,0,0,1,.2.2l1.51-1.7L77,66.07l-2.23-1.44Z"/><path class="cls-1" d="M56.55,95.65l-.52.78.43.5c.32.36.59.67.83,1a.73.73,0,0,1,.13.5,1.68,1.68,0,0,1,.49-.12c1.15-.1,2-.15,2.86-.15a13.85,13.85,0,0,1,4.15.56,6.79,6.79,0,0,1,4.39,4,7.13,7.13,0,0,0,.53-2.58,2.28,2.28,0,0,0-1.33-2.23,5.77,5.77,0,0,0-1.85-.61c-.63-.06-1.26-.09-1.88-.09a17.7,17.7,0,0,0-4.41.55c-.19,0-.38.06-.59.09l-.29,0-.43,0-.41-1.6.54-.09-.77-1.19.46-.23a1.8,1.8,0,0,1-.22-.37l-.13-.32.93-.84.13-.1c2.64-2.35,5.51-5.13,6.85-9a5.39,5.39,0,0,0,0-4,7,7,0,0,0-2.61-3,12.88,12.88,0,0,0-1.1-.68,2.53,2.53,0,0,0,0,.28,27.69,27.69,0,0,1-.21,7,30.9,30.9,0,0,1-2.25,7.61.92.92,0,0,1-.47.58.66.66,0,0,1-.27.06,1,1,0,0,1-.39-.09.84.84,0,0,1-.52-.49.94.94,0,0,1,.1-.79,26.31,26.31,0,0,0,2.17-7.22,22.52,22.52,0,0,0,.14-7c0-.18-.07-.36-.11-.54a5.57,5.57,0,0,1-.14-.78.08.08,0,0,1,0,0h-.05c-1.16.3-2.32.59-3.48.9a20,20,0,0,1,1.21,6,41.06,41.06,0,0,1-.26,9.29l-.28,2-.55,0a1,1,0,0,1-.82-.31,1,1,0,0,1-.13-.93c0-.07,0-.1,0-.13.05-.62.11-1.23.18-1.85.1-1,.2-1.94.24-2.88a31.63,31.63,0,0,0-.68-8.89c-.14-.53-.3-1.06-.46-1.59l-.08-.28L53.28,77l.15.43a17.55,17.55,0,0,1,.8,2.64A48.63,48.63,0,0,1,55,85.3a44.35,44.35,0,0,1-.17,9.29h0l0,0c.25.18.53.34.83.52Z"/><polygon class="cls-1" points="54.48 97.71 53.68 97.56 54.15 98.13 54.99 98.64 55.21 96.79 54.67 96.51 54.48 97.71"/><polygon class="cls-1" points="56.88 110.95 56.58 111.33 56.88 111.43 56.88 110.95"/><path class="cls-1" d="M75.81,70a.78.78,0,0,1,.31-.07l.12,0c.4.07.59.46.7.67.17.36.33.72.49,1.08l.37.83,0,0,.15-.12c.5-.39,1-.77,1.43-1.15l.12-.1a1.79,1.79,0,0,1-.77-1.5c0-.26,0-.52,0-.78,0-.46,0-1,0-1.41a.68.68,0,0,0-.15-.38L78,66.69a.79.79,0,0,1,.12.3,1.11,1.11,0,0,1-.38.93C77.06,68.59,76.44,69.29,75.81,70Z"/><path class="cls-1" d="M62.71,74.57l.17.09.77.49a25.07,25.07,0,0,1,2.23,1.55A6.39,6.39,0,0,1,68.33,81a8.75,8.75,0,0,1,0,1.35l.6-.37L70.24,84l1.31-1.68.39.3c.71.53.84.82.29,1.57l-.88,1.2.07.1.93-.84.78,1c.34.42.64.81.93,1.21.23-.39.47-.77.72-1.17l.64-1,.62.44-1.63-1.92a1,1,0,0,1-.72.35h0a1,1,0,0,1-.72-.38,1.8,1.8,0,0,0-.2-.19,1.83,1.83,0,0,1-.7-2.36l.32-.66.77.83c.2.21.4.42.59.64l1-1,.75-.73.32.16a1,1,0,0,1,.6.72,1.12,1.12,0,0,1-.43,1l-.41.42,1.9,2.24.8-1.2c.07-.11.13-.21.2-.3.19-.27.36-.5.68-.53h0a1,1,0,0,1,.68.3l-1-1.23-2.17,1.6-.26-.27,2.7-3,.85.81c.39.36.78.72,1.15,1.09.24-.3.48-.58.74-.89l.73-.87,1,.63L81.13,77.7l.58-.54-3-2.79.21-.34a2,2,0,0,1,.31-.41l-.66.53-1.36,1.09-2.09-4.48-.84.95-1-1.19a.9.9,0,0,1-.2.72c-.44.58-.89,1.14-1.36,1.72l-.6.74.82-.6.69.89c.3.39.57.74.83,1.1.36-.38.74-.75,1.11-1.12l.28-.27a1,1,0,0,1,.71-.38.85.85,0,0,1,.63.31c.37.42.33.86-.14,1.32l-.51.51-1.48,1.47a1,1,0,0,1-.69.35h-.05a.93.93,0,0,1-.7-.46c-.37-.52-.76-1-1.17-1.56l-.87-1.15h0l-.43-.5-2.37,4.15-1-1c-.71-.66-1.41-1.3-2.09-2a.75.75,0,0,1-.15-.73C63.94,74.23,63.32,74.39,62.71,74.57Zm11.46,3.18A1.11,1.11,0,0,1,74.9,77l.16,0a1.22,1.22,0,0,1,.78.39c.25.24.52.46.8.68s.48.39.7.58a.54.54,0,0,0,.13.1l.09-.09c.47-.54,1-1.07,1.44-1.59l.82-.88.33.17a1.26,1.26,0,0,1,.8.85,1,1,0,0,1-.4.89c-.81.76-1.58,1.52-2.35,2.31a1,1,0,0,1-.68.34,1,1,0,0,1-.65-.29c-.59-.52-1.21-1-1.82-1.5l-1-.83Zm-4.71-1,.81,1,.51.65,1.46-1.59.33.15a1.18,1.18,0,0,1,.72.75,1,1,0,0,1-.33.89c-.25.26-.48.54-.69.79l-.8.92-.33-.9h0L71,79.3l-1.15.89-1.73-2.44Z"/><path class="cls-1" d="M71.13,110.69l.32.2.29.19.46-2.71-1.1,1-1.17-4.73-.14,0a5.23,5.23,0,0,1-.29,2.34,1,1,0,0,1,.65.61,1.11,1.11,0,0,1-.29,1l-.34.45,1.44-.19.05.5,0,.11a1,1,0,0,1-.06.77.82.82,0,0,1-.59.35c-.75.13-1.51.24-2.26.34l.7.26-1.12,1,1.28.43,0,.13Z"/><path class="cls-1" d="M82.13,83.5A.8.8,0,0,1,82,83l-.87,1.07-.86-1-1.17,1.81.88.71c.47.38.9.72,1.31,1.08L82.43,85l.11-.16,1.29.94-.43-.57C83,84.62,82.53,84.06,82.13,83.5Z"/><path class="cls-1" d="M89.69,91.51,89.28,91c-.5-.69-1-1.33-1.45-2a.59.59,0,0,1-.09-.24l-.35.43-.56-.61a.83.83,0,0,1-.09.5c-.5.8-1,1.59-1.54,2.38l-.08.11a.94.94,0,0,1,.18-.17.72.72,0,0,1,.36-.1,1,1,0,0,1,.76.36c.18.28.34.57.5.86l.27.47,0,.07,1.51-2.12Z"/><path class="cls-1" d="M84.34,97.61,86.17,95l.39.26-.25-.44c-.48-.84-.92-1.59-1.34-2.36a.89.89,0,0,1,.09-.83l-.12.18a.71.71,0,0,1-.31.24l-.38.21L84,92a1.1,1.1,0,0,1-.17.67c-.52.71-1.06,1.42-1.61,2.14a.93.93,0,0,1,.72.38c.35.59.68,1.19,1,1.79Z"/><path class="cls-1" d="M87.37,95.8l.15.1a1.6,1.6,0,0,1,0-.21v0Z"/><path class="cls-1" d="M67.76,85.61a22.37,22.37,0,0,1-5.05,7.11,20.89,20.89,0,0,1,4.74-1.66,8.45,8.45,0,0,1,1.84-.23,6,6,0,0,1,.75,0l.53-1.76c.48-1.65,0-2.6-1.7-3.19-.32-.11-.64-.2-1-.29Z"/><path class="cls-1" d="M77.67,87.1l-1-1.19-1,1.66a.84.84,0,0,1,.53-.22,1.06,1.06,0,0,1,.8.5c.22.31.45.61.68.91l.07.09.43.57.64-.86.74-1,1.33,1-1.91,2.61.16,0a.55.55,0,0,1,.18,0,1,1,0,0,1,.56.51c.35.61.72,1.21,1.1,1.81l0,.08.05-.07.67-.89c.25-.34.51-.67.75-1a1,1,0,0,1,.73-.48h0a.87.87,0,0,1,.31,0c-.46-.69-.91-1.38-1.35-2.08a1.22,1.22,0,0,1-.12-.56l-.35.52-3.48-2.83Z"/><path class="cls-1" d="M81.06,101.81l1.39-1.36a6,6,0,0,1,.63-.6.84.84,0,0,1,.49-.16l-.24-.42c-.63-1.13-1.25-2.22-1.85-3.33a.56.56,0,0,1,0-.12l-.36.47h0l-.17.18-.1.13h0l-1.61,1.75,1-.26Z"/><path class="cls-1" d="M84.15,86.21l-.26-.34-1.27,1.87a.64.64,0,0,1,.22,0,1,1,0,0,1,.78.54c.25.41.52.81.81,1.25l0-.07c.28-.43.54-.83.78-1.23a1,1,0,0,1,.67-.5h.12l-1.62-1.78Z"/><path class="cls-1" d="M60.39,95.87l-.46.26.15,0c.7-.13,1.32-.25,2-.32l.28,0a21.39,21.39,0,0,1,2.54-.2l.56,0a8.69,8.69,0,0,1,4,.93,3.91,3.91,0,0,1,1.9,2.19l.16-.11.11-1,.12-.82A10.47,10.47,0,0,0,71.86,95c0-1.26-.45-2-1.3-2.27a5.13,5.13,0,0,0-1.41-.18,6.8,6.8,0,0,0-1.18.1,21.42,21.42,0,0,0-6.45,2.54Z"/><path class="cls-1" d="M68.25,84.13h.06l-.06-.1Z"/><path class="cls-1" d="M76.58,99.23l-.44-.83L74.86,96l-.43.63-.89-1.4a13.71,13.71,0,0,1-.43,3.34l-.08.35s0,.11.08.17l.52,1.16c.22.49.44,1,.67,1.47Z"/><path class="cls-1" d="M79.85,95.18l.26.23-.21-.35c-.55-.91-1-1.7-1.51-2.49a1.28,1.28,0,0,1-.18-.37l0,0-2-2.58L76,89.42a4,4,0,0,1-.47-.62,1.37,1.37,0,0,1-.13-.85l-1.21,1.93-1.94-2.56a4.34,4.34,0,0,1-.43,3.39l.67-.41.8,1.29c.42.67.82,1.31,1.21,2,.36-.54.69-1,1-1.51l.33-.48c.18-.26.39-.57.77-.59h0a1.22,1.22,0,0,1,.88.57l.24.29-1.8,2.61,1.67,3.11Z"/><path class="cls-1" d="M71.51,99.69a8.49,8.49,0,0,1-.8,4.1l.67-.13.68,2.57,1.76-1.51Z"/><path class="cls-1" d="M112.31,16.38a6.12,6.12,0,1,0,6.12,6.12A6.13,6.13,0,0,0,112.31,16.38Z"/><polygon class="cls-1" points="75.81 114.39 76.61 112.39 74.45 113.43 75.08 113.45 74.48 114.39 75.81 114.39"/><path class="cls-1" d="M88.07,31l-.15.79a17.74,17.74,0,0,1-.68,2.79l-.09.24A52.65,52.65,0,0,1,84.54,41c-1.17,2.22-2.46,4.42-3.71,6.55l-.11.18c-.61,1-1.22,2.09-1.82,3.14a48.25,48.25,0,0,0-3.83,8,21.4,21.4,0,0,0-.6,2.22l-.21.88c-.05.21-.05.31.21.48,1.23.77,2.45,1.58,3.71,2.41l.84.55,0-.16c.08-.38.14-.75.21-1.12s.15-.93.23-1.4c.15-1,.31-2,.53-3,.5-2.24,1.08-4.49,1.63-6.6a79.08,79.08,0,0,1,3.44-10.48c.5-1.2,1-2.38,1.55-3.57s1.06-2.4,1.56-3.6a12.45,12.45,0,0,0,1.2-5.62c-.43-5.73-3.09-7.37-3.09-7.37a8.92,8.92,0,0,1,1.49,2.83A11.25,11.25,0,0,1,88.07,31Z"/><path class="cls-1" d="M81.61,150.49a1.46,1.46,0,0,0,.42-1.12,1.87,1.87,0,0,0-.43-1.28,1.55,1.55,0,0,0-1.18-.49H78.58v3.3h1.81A1.7,1.7,0,0,0,81.61,150.49Z"/><path class="cls-1" d="M85.71,104a1.23,1.23,0,0,1,.59-.27l.12,0L85.21,99.6h0l-.07-.22-.75,1.09a.19.19,0,0,0,0,.08.62.62,0,0,1-.17.48c-.93,1-1.88,1.9-2.88,2.91l-.94.93.22.39-2.41,2.2h1l.06,1.27,2.53-1.81,1.08,1.29-1.48,1.08.07.08.08.07a.87.87,0,0,1,.38.58,6.69,6.69,0,0,1,0,1v.12l1.7-.87.13.1.28-1.78a1.25,1.25,0,0,1,0-.19,1.86,1.86,0,0,0,0-.28v0l-1,1-.4-1.47c-.13-.47-.25-.87-.35-1.28l0-.11c-.14-.55-.29-1.17-.4-1.79-.05-.32.07-1,.51-1.14a.78.78,0,0,1,.33-.07.69.69,0,0,1,.34.09,1,1,0,0,1,.44.71c.13.49.23.91.33,1.33l.09.36.66-.73C85,104.65,85.36,104.3,85.71,104Z"/><path class="cls-1" d="M79.65,116.86l-.27,0c-.53.08-1.09.22-1.63.35l-.81.2-.68.15.45.09,0,.46A13.49,13.49,0,0,0,79.65,116.86Z"/><path class="cls-1" d="M76.14,117.6l.79-2.89-.44.1L76,115v1.18l-.56-.07a2.36,2.36,0,0,0-.38,0h-.43l.77,1-.55.36Z"/><path class="cls-1" d="M68.83,118.07l.11-.18.14,0-.92-.53-.46.22.52.34-.29.8A1.08,1.08,0,0,0,68.83,118.07Z"/><polygon class="cls-1" points="69.49 148.68 68.26 152.64 70.72 152.64 69.49 148.68"/><path class="cls-1" d="M65,116.78l1.71-.62-2-1v.18l-.14.12.12.11a1.12,1.12,0,0,1,.4,1A.76.76,0,0,1,65,116.78Z"/><path class="cls-1" d="M70.37,118.39l-.22,0a3.3,3.3,0,0,0,2.08.67,7.71,7.71,0,0,0,1.41-.16l-3-.46,3-2.34a2.59,2.59,0,0,1-1.67-.67l-.37-.33.34-.37.28-.31q.15-.18.33-.36H67.69l.09.32-.42.23.93.48-.31.72,2.87-1.13.4,1.58-.87.41.22.13a1,1,0,0,1,.59.69.8.8,0,0,1-.25.71A.81.81,0,0,1,70.37,118.39Z"/><path class="cls-1" d="M101.88,147.59h-1.75v3.15h1.75a1.56,1.56,0,0,0,1.18-.42,1.59,1.59,0,0,0,.39-1.15,1.6,1.6,0,0,0-.4-1.16A1.54,1.54,0,0,0,101.88,147.59Z"/><path class="cls-1" d="M115.28,101.19H102.4c-.33,0-.55.15-.57.37a.39.39,0,0,0,.09.26.68.68,0,0,0,.45.17h2a2.16,2.16,0,0,1,0,4.32c-.25,0-.51,0-.76,0H98.17c-.33,0-.56.2-.55.43s.24.37.57.37h15.23a2.17,2.17,0,0,0,.36,0c.28,0,.34-.16.36-.35a.36.36,0,0,0-.3-.4,3.45,3.45,0,0,0-.38,0,2.17,2.17,0,0,1-2.38-2.1,2.29,2.29,0,0,1,2.37-2.25h1.82a1.27,1.27,0,0,0,.8-.2.34.34,0,0,0,.07-.23C116.14,101.47,116.14,101.19,115.28,101.19Z"/><path class="cls-1" d="M89.9,100l-2.82,4.32a1.05,1.05,0,0,1-.18.79c-.58.65-1.18,1.29-1.79,1.93a2.59,2.59,0,0,1,.45.12l.34.14-.1,1.16,2.27-1.25.85,1.43-2.83,1.62.18.11-.06.69a3.15,3.15,0,0,0,1.72-1.15,8.23,8.23,0,0,1,.76-1c.14-.16.28-.31.41-.47a33.34,33.34,0,0,0,2.09-2.92l-2.27,2.77-1.25-4.68,1.6-.35.41,1.42.1-.11a5.67,5.67,0,0,0,.53-.66,1,1,0,0,1,.74-.52h0a1.22,1.22,0,0,1,.92.5l.1.11a20.36,20.36,0,0,0,1.69-4l-1.7,3.75Z"/><path class="cls-1" d="M56.88,107.81l-.68.33a1.17,1.17,0,0,1-.05.3,1.08,1.08,0,0,1-.3.46l-.07.07-.12.14,1.22.89Z"/><path class="cls-1" d="M80.12,116.59l.78-.46v-2.56l-.59.3v-.7a1.2,1.2,0,0,1-.7.5c-.35.11-.7.25-1,.39l.15,0-.24,1.28,1.53-.33.16.37a1.1,1.1,0,0,1,.06,1A.74.74,0,0,1,80.12,116.59Z"/><path class="cls-1" d="M48.25,30.88l0,0,0,0a3.21,3.21,0,0,1-.3.21c-.27.17-.36.22-.36.48a1.9,1.9,0,0,1-.47,1.08,2.65,2.65,0,0,0-.27.42A1.66,1.66,0,0,0,47,34.48a2.61,2.61,0,0,0,1.61-2.15A1.92,1.92,0,0,0,48.25,30.88Z"/><path class="cls-1" d="M54.43,43l.09.06,4.64-.46.81-.07c.84-.08,1.62-.15,2.37-.29s2-.72,1.89-2l0-.33c0-.16,0-.29,0-.42a2.11,2.11,0,0,0-1.8-1.93l-.5,0a8.17,8.17,0,0,0-2.93.59l-4,1.55c-1.08.37-1.74.66-1.77,1.67a.86.86,0,0,1-.1.37c0,.18,0,.23,0,.23C53.51,42.36,54,42.7,54.43,43Z"/><path class="cls-1" d="M83.76,112.13l-1.55.78h.2l.11.77,1.3-.77.3.47.17-1.08q.08-.57.18-1.11l-.08,0v.12A1,1,0,0,1,83.76,112.13Z"/><path class="cls-1" d="M27.13,46.43c-.49,0-.82.23-.84.59a.51.51,0,0,0,.15.41.84.84,0,0,0,.65.25h2.54a2.59,2.59,0,0,1,.05,5.18c-.31,0-.63,0-.94,0H22.08L22,52.71v.19h-.18c-.49,0-.84.32-.82.68s.35.59.85.59h19.1a4.12,4.12,0,0,0,.51,0c.37-.06.53-.22.56-.56a.56.56,0,0,0-.47-.63,2,2,0,0,0-.5,0c-1.71,0-2.87-1-2.88-2.52A2.76,2.76,0,0,1,41,47.69H43.3a1.69,1.69,0,0,0,1.1-.29.46.46,0,0,0,.12-.38c0-.16,0-.59-1.2-.59Z"/><path class="cls-1" d="M0,0V173H19.33c-.4,0-.73-.46-.73-1s.33-1,.73-1H123.81c.4,0,.72.46.72,1s-.32,1-.72,1h19.33V130.71a1,1,0,0,1-1,1H1a1,1,0,0,1,0-2H58.21A27.5,27.5,0,0,1,51,127.54a8.25,8.25,0,0,1-1.57-1.06,2.66,2.66,0,0,1-1-2.23v-.48a38.48,38.48,0,0,0,0-4,3.5,3.5,0,0,1,2.1-3.52,19.17,19.17,0,0,1,5.25-1.88,20,20,0,0,1-5.25-8,29.86,29.86,0,0,1-1.55-6.47,33.15,33.15,0,0,1,.11-7.19v-.12c0-.61.11-1.22.18-1.84l.2-.07h0l-.19,0c.09-.9.19-1.83.25-2.75l.06-1a29.6,29.6,0,0,0,.1-4.21c-.33-4.43-1.94-7.77-4.92-10.2a16.68,16.68,0,0,0-4-2.27,5.25,5.25,0,0,1-3.33-3.12c-.61-2,0-3.42,1.74-4.14a6.22,6.22,0,0,1,2.44-.49,8,8,0,0,1,2.39.39l.18,0a1.12,1.12,0,0,0,.5-.19,6.1,6.1,0,0,1,2.94-.76,7.26,7.26,0,0,1,1.93.28l.15,0v-.1a15.16,15.16,0,0,1,1.39-5.42c.4-.94.87-1.87,1.32-2.77l.48-1a4.1,4.1,0,0,1-3-3.47,5.24,5.24,0,0,1,.3-3.81,3.73,3.73,0,0,1,.44-.57,3.8,3.8,0,0,0,.29-.35,7.48,7.48,0,0,0,.59-1.09,4.11,4.11,0,0,0,.26-1.11.72.72,0,0,0,0-.38l-.37-.47a10.58,10.58,0,0,0-2.12-2.2A15.2,15.2,0,0,1,46.65,37l-.17-.21a5.51,5.51,0,0,1-1.14-2,3.94,3.94,0,0,1,.11-2.94,4.35,4.35,0,0,1,2.62-2.12l1.39-.47.11-.4L50,29h.1a.77.77,0,0,1,.65.35,1.1,1.1,0,0,1,.09.62v.58l-1,.09-.46-.73-.45.34h0a2.09,2.09,0,0,0,.28.24A2.05,2.05,0,0,1,50.22,32a4,4,0,0,1-2.28,4,7.36,7.36,0,0,0,3.24,2.73,2.69,2.69,0,0,0,.79.11,3.94,3.94,0,0,0,1.18-.19c1.18-.39,2.39-.87,3.46-1.29.74-.29,1.47-.58,2.21-.85a8.31,8.31,0,0,1,2.94-.55A7.06,7.06,0,0,1,63,36a3,3,0,0,1,2.24,1.57A4.44,4.44,0,0,1,65.5,42a4.18,4.18,0,0,1-3.54,2c-.79.08-1.59.13-2.39.18s-1.76.11-2.65.21a10.35,10.35,0,0,0-4.35,1.15,2.6,2.6,0,0,0-1.18,2.9,7.32,7.32,0,0,1,.26.88A4.78,4.78,0,0,0,52,50.44c.39.68,1.21,1,2.74,1.22l.76.08-.43.72a25.94,25.94,0,0,1,5.57-4.89C63,46,65.47,44.48,67.83,43l2.25-1.4a21.73,21.73,0,0,0,7.61-7.55,14.4,14.4,0,0,0,2-6.43,9.38,9.38,0,0,1-3.55,1.93l-.42.12-3.4-7.57.55-.15.76-.2a16.79,16.79,0,0,0,1.7-.49c1.31-.46,2.5-.93,3.64-1.42A2,2,0,0,0,80.24,18v-.17l1,0,0,.17c0,.35.15.39.72.48a9.8,9.8,0,0,1,7.67,5.89,23.29,23.29,0,0,1,1.38,4,12.81,12.81,0,0,1-.52,5.64c-.56,1.41-1.16,2.81-1.75,4.21-.45,1.08-.91,2.15-1.35,3.23-.7,1.71-1.32,3.26-1.86,4.84C84.63,48.87,84,51,83.41,53s-1.12,4.3-1.75,7.18c-.32,1.43-.54,2.91-.75,4.35l0,.25c-.17,1.15-.31,2.31-.44,3.46l-.11.9c0,.35,0,.6.56.91A34.87,34.87,0,0,0,87.13,73a19.53,19.53,0,0,0,5.11,1.19q.39,0,.78.09a8,8,0,0,0,.94.08h.22c.85-.07,1.72-.2,2.56-.33l1-.16-.5-1.3c-.35-.92-.71-1.83-1-2.75l-.09-.25c-.39-1.11-.8-2.23-1.1-3.37-.55-2.07-1-4-1.36-5.79a13.38,13.38,0,0,1-.19-2.27l0-.6a1,1,0,0,1,.61-.86c.67-.29,1.35-.55,2-.81l1.52-.55-1-1.9c-.31-.65-.61-1.28-.9-1.92a29.56,29.56,0,0,1-2-6.46,23.29,23.29,0,0,1-.42-6,1.1,1.1,0,0,1,.68-.85c1.13-.45,2-.78,2.85-1.06C97,37,97,37,97,36.89l-.12-1.07c-.12-1-.23-2.09-.38-3.12A20.28,20.28,0,0,0,95.93,30c-1.26-4.76-3.21-8.18-6.14-10.77l-.26-.2a1.66,1.66,0,0,1-.78-.91,1.42,1.42,0,0,1,.26-1,3,3,0,0,0,.18-.37,9.38,9.38,0,0,0,.12-3.85c-.27.22-.53.43-.79.62a16.72,16.72,0,0,1-6,2.83c-1.85.46-3.76.8-5.55,1.1a35.08,35.08,0,0,1-3.52.34,35.83,35.83,0,0,0-7.48,1,12.25,12.25,0,0,0-6.3,3.59,8.05,8.05,0,0,0-1.81,3.4A2.55,2.55,0,0,1,56,28c-.09,0-.74.33-3.21,1.58l-.45.23a1.52,1.52,0,0,1-.65.21c-.31,0-.51-.23-.71-.58L50.67,29l.45-.24,1.06-.54c.82-.41,2.54-1.27,2.7-1.38.54-.36,1.08-.73,1.6-1.11a2.18,2.18,0,0,1,.35-2c.08-.14.14-.24.19-.35a10.75,10.75,0,0,1,6-5.24,21,21,0,0,1,5.85-1.5l2.52-.22q.91-.06,1.83-.15l.35,0a42.08,42.08,0,0,0,8.09-1.29,17.49,17.49,0,0,0,6.63-3.34,9,9,0,0,0,.85-.89l.44-.5.56-.62.28.79A12.43,12.43,0,0,1,91,16.48a6.54,6.54,0,0,1-.22.82l-.1.3c0,.13,0,.16.1.28A19.56,19.56,0,0,1,96,25.1,25.08,25.08,0,0,1,97.85,31l0,.28c.18,1,.38,2.14.5,3.24l0,.19.14,2.4v.19a1.26,1.26,0,0,1-1,1.29c-.75.28-1.55.58-2.38.84-.31.1-.39.16-.36.47,1.11,11,5.67,16,5.67,16l-1.39.58-.8.32-1,.36c-.72.27-1.42.52-2.1.8a.6.6,0,0,0-.17.22,11.61,11.61,0,0,0,.18,1.49l.06.36a45,45,0,0,0,2.28,8.52l.81,2.12c.42,1.12.85,2.24,1.26,3.36a1,1,0,0,1-.41,1.08,5.75,5.75,0,0,1-2.72.79l-3,.21v.09a11.49,11.49,0,0,0,.15,1.23c.2,1,.41,2.06.62,3.09l0,.15c.17.85.35,1.7.52,2.55.11.55.2,1.09.29,1.63s.15.91.24,1.35a40.94,40.94,0,0,1,.79,7.13A22.39,22.39,0,0,1,90.82,109c-1.07,1.32-2.24,2.59-3.37,3.82l-.11.11-1.12,1.22.61.16a19.13,19.13,0,0,1,5.48,1.94,6,6,0,0,1,1.47,1.18,2.56,2.56,0,0,1,.56,1.46c0,1,0,2,0,3,0,.81,0,1.61,0,2.42a3,3,0,0,1-1.92,2.85,18.89,18.89,0,0,1-3.68,1.5c-1.48.39-3,.73-4.57,1h57.94a1,1,0,0,1,1,1V0ZM29.65,156.55A3.75,3.75,0,0,1,28,155.19a3.55,3.55,0,0,1-.57-2h2.76a1.74,1.74,0,0,0,.48,1.36,2.23,2.23,0,0,0,1.54.43,1.84,1.84,0,0,0,1.08-.29,1,1,0,0,0,.39-.83,1.13,1.13,0,0,0-.42-.94,5.24,5.24,0,0,0-1.51-.7,13.46,13.46,0,0,1-1.75-.7,3.31,3.31,0,0,1-2.22-3,2.67,2.67,0,0,1,.55-1.68,3.63,3.63,0,0,1,1.56-1.13,6.13,6.13,0,0,1,2.28-.4,5.22,5.22,0,0,1,2.21.44A3.55,3.55,0,0,1,35.86,147a3.27,3.27,0,0,1,.54,1.85H33.65a1.37,1.37,0,0,0-.43-1.08,1.63,1.63,0,0,0-1.15-.38,1.87,1.87,0,0,0-1.17.32,1,1,0,0,0-.43.83,1,1,0,0,0,.47.8,6.24,6.24,0,0,0,1.66.73,10.89,10.89,0,0,1,1.95.82,3.27,3.27,0,0,1,1.85,2.94,2.81,2.81,0,0,1-1.13,2.36,5,5,0,0,1-3.1.85A6,6,0,0,1,29.65,156.55Zm78.46,10.72H35c-.38,0-.69-.45-.69-1s.31-1,.69-1h73.08c.38,0,.68.45.68,1S108.49,167.27,108.11,167.27ZM38,156.9V145.47h2.74V156.9Zm4.66,0V145.47h2.75l4,7.11v-7.11H52.2V156.9H49.46l-4.05-7.11v7.11Zm14.43-2.82a2.08,2.08,0,0,0,1.85.85,2.34,2.34,0,0,0,1.6-.47v-1.78H58.62v-1.89h4.67v4.69a4.54,4.54,0,0,1-1.86,1.14,8,8,0,0,1-2.68.43,4.78,4.78,0,0,1-3.59-1.37,5.57,5.57,0,0,1-1.43-3.82v-1a6.92,6.92,0,0,1,.59-2.94A4.44,4.44,0,0,1,56,146a4.86,4.86,0,0,1,2.57-.68,5,5,0,0,1,3.31,1,4.12,4.12,0,0,1,1.38,2.91H60.63a2.19,2.19,0,0,0-.61-1.37,2,2,0,0,0-1.34-.4,1.79,1.79,0,0,0-1.6.88,4.78,4.78,0,0,0-.57,2.51v.69A4.7,4.7,0,0,0,57.09,154.08ZM64,156.9l4.19-11.43h2.59L75,156.9H72l-.66-2.14H67.6l-.66,2.14Zm11.83,0V145.47h4.56a5.21,5.21,0,0,1,2.32.49,3.66,3.66,0,0,1,1.56,1.37,3.73,3.73,0,0,1,.55,2A3.33,3.33,0,0,1,83.63,152a5,5,0,0,1-3.29,1H78.58v3.88ZM86,151.6V151a6.75,6.75,0,0,1,.61-3,4.57,4.57,0,0,1,1.77-2,5,5,0,0,1,2.61-.69,4.89,4.89,0,0,1,2.59.69,4.62,4.62,0,0,1,1.77,2A6.54,6.54,0,0,1,96,150.9v.52a6.67,6.67,0,0,1-.62,3,4.53,4.53,0,0,1-1.76,2,5.29,5.29,0,0,1-5.19,0,4.5,4.5,0,0,1-1.76-1.92A6.51,6.51,0,0,1,86,151.6Zm20.62,5.18v.12h-3l-2-4h-1.5v4H97.38V145.47h4.5a5.06,5.06,0,0,1,3.17.9,3.05,3.05,0,0,1,1.15,2.55,3.75,3.75,0,0,1-.48,2,3.56,3.56,0,0,1-1.51,1.27Zm9.16-9.18h-5.14V150H115v2h-4.34v2.73h5.12v2.12h-7.87V145.47h7.89ZM22.2,135.42h98.74a1,1,0,0,1,0,2H22.2a1,1,0,0,1,0-2ZM46.35,47a2.29,2.29,0,0,1-.65,1.66,2.85,2.85,0,0,1-2,.78H41.07a1,1,0,0,0-1,.7.68.68,0,0,0,.06.59.83.83,0,0,0,.55.36,3.55,3.55,0,0,0,.46,0l.33,0a2.42,2.42,0,0,1,2.44,2.46,2.45,2.45,0,0,1-2.57,2.34H21.84a2.5,2.5,0,0,1-2.61-2,2.37,2.37,0,0,1,.49-2,2.73,2.73,0,0,1,2.11-.91H29a1.81,1.81,0,0,0,1.25-.35.69.69,0,0,0,.17-.5q0-.84-1.41-.84H27.17a2.48,2.48,0,0,1-2.71-2.34,2.24,2.24,0,0,1,.64-1.67,2.91,2.91,0,0,1,2.11-.79H43.66A2.46,2.46,0,0,1,46.35,47ZM61.11,25.22a1.48,1.48,0,1,1,1,2.59h0a1.42,1.42,0,0,1-1-.42,1.47,1.47,0,0,1,0-2.17Zm-8.72,7.3,0-.11.22-1a1,1,0,0,1,0-.94c.19-.28.48-.32.88-.38l2.31-.38,1.64-.27c.26,0,.52-.06.8-.08l.87-.07.09,1.6-4.2.67,3.33.75.08.29a1,1,0,0,1-.16,1,.85.85,0,0,1-.65.25,2,2,0,0,1-.36,0l-2.57-.59,3.23,1.61-.13.4a1.24,1.24,0,0,1-.58.81.8.8,0,0,1-.3.06,1,1,0,0,1-.42-.11c-1-.48-2-1-3-1.49l-1.59-.8ZM128.93,7.75a.89.89,0,0,1,.63.27.85.85,0,0,1,.27.64.89.89,0,0,1-.27.64l-6.79,6.79a.89.89,0,0,1-.64.27.85.85,0,0,1-.64-.27.89.89,0,0,1,0-1.27l6.8-6.8A.89.89,0,0,1,128.93,7.75Zm-12,4.7,3.81-8.23a.91.91,0,0,1,.51-.47,1.12,1.12,0,0,1,.31,0,1,1,0,0,1,.38.08.9.9,0,0,1,.47.51.92.92,0,0,1,0,.69l-3.82,8.23a.89.89,0,0,1-.82.53.85.85,0,0,1-.38-.09.91.91,0,0,1-.47-.51A.87.87,0,0,1,116.9,12.45Zm-4.59,18a7.93,7.93,0,1,1,7.93-7.93A7.94,7.94,0,0,1,112.31,30.43Zm1.78,2.19v11a.91.91,0,0,1-1.81,0v-11a.91.91,0,0,1,1.81,0Zm-6.14.12-4.81,8.33a.9.9,0,0,1-.78.45.87.87,0,0,1-.45-.12.9.9,0,0,1-.33-1.23l4.8-8.33a.93.93,0,0,1,.79-.45.9.9,0,0,1,.78,1.35ZM112.28.9a.91.91,0,0,1,1.81,0v11a.91.91,0,0,1-1.81,0ZM103.18,4a1,1,0,0,1,.45-.12.83.83,0,0,1,.22,0,.89.89,0,0,1,.56.42L109,12.19a.91.91,0,0,1-.33,1.24.87.87,0,0,1-.45.12.9.9,0,0,1-.78-.45l-4.54-7.86A.91.91,0,0,1,103.18,4ZM94.79,9.08a.93.93,0,0,1-.31-.62.94.94,0,0,1,.22-.66.88.88,0,0,1,.62-.3h0a.94.94,0,0,1,.65.22l8.28,7.2a.89.89,0,0,1,.31.61.91.91,0,0,1-.22.66.91.91,0,0,1-1.28.09Zm22.46,93.86a2.36,2.36,0,0,1-1.69.64h-2.07a.71.71,0,0,0-.74.48.45.45,0,0,0,0,.38.58.58,0,0,0,.37.25,2.06,2.06,0,0,0,.35,0h.27a2,2,0,0,1,2,2.06,2.06,2.06,0,0,1-2.15,2H98.19A2.07,2.07,0,0,1,96,107.13a2,2,0,0,1,.41-1.65,2.21,2.21,0,0,1,1.75-.76h5.69a1.34,1.34,0,0,0,.92-.24.44.44,0,0,0,.11-.33c0-.14,0-.57-1-.57h-1.45a2.07,2.07,0,0,1-2.26-2,1.9,1.9,0,0,1,.54-1.39,2.41,2.41,0,0,1,1.75-.67h13.09a2,2,0,0,1,2.24,2A1.91,1.91,0,0,1,117.25,102.94Zm5.35-61.8a.93.93,0,0,1-1.19-.46l-3.93-8.78a.92.92,0,0,1,0-.69.83.83,0,0,1,.47-.5.77.77,0,0,1,.37-.08,1.12,1.12,0,0,1,.31.05.94.94,0,0,1,.52.48l3.92,8.78A.92.92,0,0,1,122.6,41.14Zm6.69-5.64a.92.92,0,0,1-1.28,0L121.69,29a.94.94,0,0,1-.26-.65.9.9,0,0,1,.28-.63.85.85,0,0,1,.62-.26.91.91,0,0,1,.65.27l6.33,6.51a.85.85,0,0,1,.25.64A.89.89,0,0,1,129.29,35.5Zm4.06-8a.89.89,0,0,1-.83.56,1,1,0,0,1-.35-.07l-8.86-3.73a.87.87,0,0,1-.49-.49.92.92,0,0,1,0-.69.94.94,0,0,1,.49-.49,1,1,0,0,1,.35-.07,1.09,1.09,0,0,1,.35.07l8.86,3.73a.91.91,0,0,1,.49.49A.87.87,0,0,1,133.35,27.53Zm.13-7.82-9.1-.43a.9.9,0,0,1-.56-1.57.88.88,0,0,1,.6-.23l9.1.42a.91.91,0,0,1,0,1.81Z"/><path class="cls-1" d="M91,154.9a1.8,1.8,0,0,0,1.61-.88,4.82,4.82,0,0,0,.57-2.55v-.53a4.79,4.79,0,0,0-.57-2.58,1.83,1.83,0,0,0-1.63-.89c-1.38,0-2.11,1-2.18,3.11v.84a5,5,0,0,0,.55,2.58A1.84,1.84,0,0,0,91,154.9Z"/><path class="cls-1" d="M52.38,104.74v-.3a1.84,1.84,0,0,1-.36.28l-.1.07a3.92,3.92,0,0,0,.54,1.95l0-.27a1.18,1.18,0,0,1-.1-.5C52.39,105.57,52.39,105.17,52.38,104.74Z"/><path class="cls-1" d="M46.47,67.87a26.2,26.2,0,0,0,2.1,1.84,13,13,0,0,1,3,3.64l.17-3c0-.4,0-.81.1-1.2L51,69.1,51,68.74c-.09-.38-.16-.75-.23-1.11a19.86,19.86,0,0,0-.58-2.36,2.58,2.58,0,0,0-.93-1.36,3.36,3.36,0,0,0-1.56-.38,4.84,4.84,0,0,0-1.94.46A1.56,1.56,0,0,0,45,65.71,4.82,4.82,0,0,0,46.47,67.87Z"/><path class="cls-1" d="M52.38,103.33v-.48l0,0v-1.66l-.49.45-.08.52-.59.07.14.11a3.93,3.93,0,0,1,.79.71A1.88,1.88,0,0,1,52.38,103.33Z"/><path class="cls-1" d="M52.81,98.34a1.21,1.21,0,0,0-.16-.16l-.15,0a1.16,1.16,0,0,1-1.16,1h-.18l1.3.92.27.14.27.19v-2Z"/><path class="cls-1" d="M53.4,86.52l0-.59c-.06-.82-.16-1.65-.26-2.46L53,82.72a22.19,22.19,0,0,0-1.85-6.53,12.94,12.94,0,0,0-3.9-5.36,23.1,23.1,0,0,1-2.41-2.19,4.49,4.49,0,0,1-1.38-4.27L43,64.29a8.56,8.56,0,0,0-1.55-.2,3.14,3.14,0,0,0-.83.11c-.83.21-1.44.42-1.69,1.06a1.89,1.89,0,0,0,.46,2A6.23,6.23,0,0,0,42,68.91a14.58,14.58,0,0,1,5.16,3.53c2.59,2.77,3.94,6.29,4.25,11.09a16.07,16.07,0,0,1-.1,2.6c0,.25,0,.48-.06.71,0,.6-.1,1.2-.17,1.8v.09c-.05.53-.11,1.06-.15,1.59l-.24,3-.27,3.36a1.16,1.16,0,0,0,.34,1.11,1.53,1.53,0,0,1,1.49-1.6l.28,0,.48.58a1.55,1.55,0,0,1,0-.22,9.16,9.16,0,0,1,0-1c0-.7.12-1.4.19-2.1.12-1.27.24-2.54.29-3.79A24.15,24.15,0,0,0,53.4,86.52Z"/><path class="cls-1" d="M63.44,117.35l.39-.14-1.53-1.8a1.12,1.12,0,0,1-.41.12l.48.77-.37.35C62.46,116.9,62.94,117.13,63.44,117.35Z"/><path class="cls-1" d="M84.27,37a50.45,50.45,0,0,1-6.84,10.26c-1,1.24-2.06,2.45-3.1,3.67l-.16.2c-.88,1-1.75,2.05-2.62,3.09A17.06,17.06,0,0,0,68.1,61a27.34,27.34,0,0,0-.54,3.38c0,.37-.09.74-.14,1.1,1-.41,2-.8,3-1.18l1.86-.72.5-.22a1.76,1.76,0,0,1-.2-1.34l.14-.78a18,18,0,0,1,.63-2.68,48.2,48.2,0,0,1,4.27-8.87c.37-.63,1.19-2,1.19-2a91.62,91.62,0,0,0,5.1-9.23A27.45,27.45,0,0,0,86.55,30a8.26,8.26,0,0,0-1.82-6.69,10.54,10.54,0,0,1,1.57,5.24A17.74,17.74,0,0,1,84.27,37Z"/><path class="cls-1" d="M83.26,32.86a17.72,17.72,0,0,1-3.68,6.49A45.1,45.1,0,0,1,66.34,49.51a24.34,24.34,0,0,0-5.11,3.37c-3.63,3.33-5.91,7.65-7.18,13.61a26.25,26.25,0,0,0-.5,3.38c-.12,1.43-.19,2.88-.25,4.27l-.06,1.16c1.85-.5,3.66-1,5.47-1.46l2.12-.53c1.34-.34,2.68-.67,4-1l.5-.13.14,0V69.94a34,34,0,0,1,.67-8.06,21.35,21.35,0,0,1,4-8.53c1.11-1.39,2.28-2.76,3.41-4.08l.13-.15c.81-.94,1.61-1.88,2.4-2.84a42.86,42.86,0,0,0,7.57-12,12.68,12.68,0,0,0,1-6.55,9.51,9.51,0,0,0-1.84-4.37L82.42,23a1.42,1.42,0,0,1,.08.18A13.29,13.29,0,0,1,83.26,32.86Z"/><polygon class="cls-1" points="54.08 103.06 53.98 103.11 53.84 103.58 53.29 103.58 54.08 104.23 54.08 103.06"/><path class="cls-1" d="M80.35,21l-.26.17a19.88,19.88,0,0,1-5.36,2.07l-.11,0,.8,1.8c.34.76.69,1.53,1,2.3a1.34,1.34,0,0,0,.16.28,2.65,2.65,0,0,1,.32-.15A6.08,6.08,0,0,0,80.45,22,3.91,3.91,0,0,0,80.35,21Z"/><path class="cls-1" d="M51.34,62.78l.07.45a3.05,3.05,0,0,1,.05.41,2.21,2.21,0,0,0,.11.58,9.1,9.1,0,0,1,.69,2.57c.19-.93.4-1.79.57-2.5a27.83,27.83,0,0,1,3.34-8,20.17,20.17,0,0,1,6.65-6.75c1.41-.86,2.84-1.7,4.26-2.53l2.13-1.25L71.93,44a32.92,32.92,0,0,0,6.88-6.4,15.36,15.36,0,0,0,3.07-6,11.39,11.39,0,0,0-.33-6.27L81.46,25a1.87,1.87,0,0,0-.13.65A15.94,15.94,0,0,1,80.09,33a20.57,20.57,0,0,1-7.72,9.11c-1.61,1.08-3.29,2.1-4.91,3.09l-1.94,1.19a50.48,50.48,0,0,0-7,5,22.67,22.67,0,0,0-6.33,10,1,1,0,0,1-.93.82c-.15,0-.29.07-.3.35v.23Z"/><path class="cls-1" d="M51.74,120.74a24.11,24.11,0,0,0,6.45,1.94c1.4.27,2.91.49,4.61.67,1.47.16,3,.27,5,.36.46,0,.93,0,1.39,0l2.27,0h.48v.08l1-.06c1.12-.07,2.28-.14,3.43-.18a57.18,57.18,0,0,0,7.05-.69,30.1,30.1,0,0,0,6.36-1.57,10.66,10.66,0,0,0,2.67-1.52A1.15,1.15,0,0,0,93,119a1.18,1.18,0,0,0-.54-.81,10,10,0,0,0-2.47-1.41,40,40,0,0,0-4.23-1.23l-.32-.09a1.27,1.27,0,0,0-.41-.1.34.34,0,0,0-.21.08,23.15,23.15,0,0,1-5.8,3.65,18.65,18.65,0,0,1-5.44,1.5,23.72,23.72,0,0,1-2.55.16,14.25,14.25,0,0,1-3.3-.37,43.17,43.17,0,0,1-4.5-1.32,23.59,23.59,0,0,1-5.91-3.44.44.44,0,0,0-.21-.07l-.34.09c-1.29.35-2.62.72-3.9,1.15a5.73,5.73,0,0,0-2.62,1.58c-.38.46-.37.69-.21,1A3.91,3.91,0,0,0,51.74,120.74Z"/><path class="cls-1" d="M56.88,106.59l-.37-1.85-.13.07a1,1,0,0,1-.25,0,.94.94,0,0,1-.34-.07c0,.07,0,.41,0,.41l-.19.19-.33.21,1.63,1.2Z"/><path class="cls-1" d="M57,113.16c0-.14-.29-.94-.29-.94l-.25-.73-.07.09-.26-.13v.15l-.31.12-.19.07C56,112.25,56.49,112.71,57,113.16Z"/><path class="cls-1" d="M92,125.68c.61-.48.85-.84.87-1a21.45,21.45,0,0,0,0-2.89v-.35l-.07,0c-.53.31-1.09.63-1.67.9a30.1,30.1,0,0,1-8,2.06,53.31,53.31,0,0,1-6.65.7c-1.77.06-3.67.12-5.64.12a62.68,62.68,0,0,1-9.34-.61c-2-.3-4.2-.64-6.32-1.14a25.65,25.65,0,0,1-3.79-1.3L51,122a5.25,5.25,0,0,1-1.08-.61V122c0,.75,0,1.51,0,2.24a1.82,1.82,0,0,0,.37,1A6.83,6.83,0,0,0,53.67,127a42.13,42.13,0,0,0,4.56,1.1,59.9,59.9,0,0,0,6.09.85c2,.14,4.13.28,6.23.28.9,0,1.73,0,2.54-.08l2.4-.12h.17c1.82-.08,3.69-.17,5.53-.39a66.4,66.4,0,0,0,7-1.33A9.45,9.45,0,0,0,92,125.68Z"/><path class="cls-1" d="M54.4,106.09a1.05,1.05,0,0,1-.36.08l-.08.6-.14,0,.78.58c0-.23,0-1.42,0-1.42Z"/><path class="cls-1" d="M53.8,109.31l.09.14c.1.17.2.34.31.5,0-.09-.15-.69-.2-.9A.56.56,0,0,1,53.8,109.31Z"/><path class="cls-1" d="M55.2,101.1v-.44l-.58-.29-.08.8H54l1.25.86C55.21,101.72,55.2,101.42,55.2,101.1Z"/><path class="cls-1" d="M55.2,102.45l-.26.14.33.14A.82.82,0,0,1,55.2,102.45Z"/></g></g></svg>