<svg xmlns="http://www.w3.org/2000/svg" viewBox="0 0 143.14 173"><defs><style>.cls-1{fill:#fff;}</style></defs><title>Asset 4</title><g id="Layer_2" data-name="Layer 2"><g id="Layer_1-2" data-name="Layer 1"><polygon class="cls-1" points="68.28 22.97 65.4 20.57 66.77 23.75 68.28 22.97"/><path class="cls-1" d="M70.45,38.7c.35.32,1.28.26,2.87,0v-1.2H70.2C70.19,38.2,70.26,38.53,70.45,38.7Z"/><path class="cls-1" d="M75.39,38.82l.92-.06V34.9C75.17,36.66,74.93,38.2,75.39,38.82Z"/><path class="cls-1" d="M59.6,51.88a1.55,1.55,0,0,0,0,.4v.07c6.76-1.79,12-5.54,16.53-11.79h0a1.76,1.76,0,0,0-.48,0c-4,.72-7.27-.62-10.33-4.23l-.54-.65c-.56-.68-.8-1-1.11-1a2.56,2.56,0,0,0-1,.43c-.31.19-.7.41-1.2.67-.34.18-.67.38-1,.58a11.88,11.88,0,0,1-1.84,1,1.83,1.83,0,0,0-1.19,1,1.73,1.73,0,0,0,.33,1.43C60.12,43.61,60,47.86,59.6,51.88Z"/><path class="cls-1" d="M66.33,27c.52-.12,1-.26,1.53-.39a15.18,15.18,0,0,1,3.91-.69h0a14.45,14.45,0,0,1,3.88.73c.5.15,1,.29,1.52.41-.09-.13-.17-.27-.25-.41a3.43,3.43,0,0,0-1-1.18,7.94,7.94,0,0,0-8.34-.21C66.71,25.8,66.17,26.27,66.33,27Z"/><path class="cls-1" d="M63,32.3a3.69,3.69,0,0,0,1.69,1.11l.6.27c.38-4.68.25-4.85-4.19-6.4l-.19.08c.17.43.33.87.49,1.31A20,20,0,0,0,63,32.3Z"/><path class="cls-1" d="M58.37,15.78v-1.9H57.24C57.27,15.34,57.34,15.5,58.37,15.78Z"/><path class="cls-1" d="M57.44,18.85c.11-.14.23-.3.37-.45l-1-1-.17.18a2.56,2.56,0,0,0-.63.93,1,1,0,0,0,.1.9.62.62,0,0,0,.61.11C57,19.47,57.18,19.18,57.44,18.85Z"/><path class="cls-1" d="M58.47,35.44l3.13-1.71a2.25,2.25,0,0,1-.08-.24,3,3,0,0,0-.27-.66c-2.08-3.39-1.92-7.1-1.54-9.95a26.37,26.37,0,0,0,.16-3.08v0l-.39,5.05-.25,0c-2.33.23-2.33.23-2.58,2.34l0,.22c-.29,2.45.54,4.61,1.41,6.89C58.19,34.67,58.33,35.05,58.47,35.44Z"/><path class="cls-1" d="M56.33,6.35a3.68,3.68,0,0,0,2.82.06.58.58,0,0,0,.37-.47c.12-.57-.27-1.77-1.71-3.44C56.44,3.89,55.91,5.21,56,5.87A.62.62,0,0,0,56.33,6.35Z"/><polygon class="cls-1" points="71.76 19.01 71.09 22.55 72.42 22.48 71.76 19.01"/><path class="cls-1" d="M58.93,12c.69,0,1.34,0,1.48-.18s.05-.82-.09-1.59H55.41V12h1C57.26,12,58.09,12.05,58.93,12Z"/><path class="cls-1" d="M64.19,26c-.26-.23-.8-.29-1.74-.17l2,.88A1,1,0,0,0,64.19,26Z"/><path class="cls-1" d="M80.69,26c-.35,0-.65,0-.89,0s-.63,0-.72.14-.11.35-.08.73Z"/><path class="cls-1" d="M89.65,25.36h18.17a3.64,3.64,0,1,0-2.72-6.05,1,1,0,0,1-1.43.09,1,1,0,0,1-.09-1.44,5.7,5.7,0,0,1,2.56-1.65,4.58,4.58,0,0,0-9-.33,1,1,0,0,1-1.19.8,1,1,0,0,1-.81-1.19,6.83,6.83,0,0,1,.46-1.43,2.9,2.9,0,0,0-1.33-.33,3,3,0,0,0-3,3,2.84,2.84,0,0,0,.1.72,5,5,0,0,1,1.79,1.07,1,1,0,1,1-1.39,1.49,3,3,0,0,0-2.06-.82,3,3,0,1,0,0,6.05Z"/><rect class="cls-1" x="80.54" y="114.87" width="4.59" height="10.1"/><path class="cls-1" d="M33.72,42.13H44a2.37,2.37,0,0,0,0-4.74,2.42,2.42,0,0,0-1.44.48,1,1,0,0,1-1.42-.18,1,1,0,0,1,.19-1.43,4.59,4.59,0,0,1,.66-.42,4,4,0,0,0-7.37-1.41,4.91,4.91,0,0,1,2.15,1A1,1,0,1,1,35.52,37a2.83,2.83,0,0,0-1.8-.64,2.89,2.89,0,1,0,0,5.77Z"/><polygon class="cls-1" points="77.74 21.42 75.72 23.3 76.74 23.83 77.74 21.42"/><rect class="cls-1" x="69.22" y="114.92" width="4.65" height="10"/><path class="cls-1" d="M1,129.69H49.66v-19.4L47.42,110v-8.49l2.2-.25V95.33h3.9V88.52h5.6L60.55,67.3H57.38l-.08-.18a4.83,4.83,0,0,1-.19-2.66c.15-1.24.28-2.41-.9-3.46l-.13-.11,0-.17c.17-.94.35-1.9.53-2.87.43-2.29.87-4.66,1.25-7.05.45-2.85.66-6.17-1.26-9.21a5.49,5.49,0,0,1-.58-1.52c-.06-.2-.11-.41-.18-.61l0-.13A2.86,2.86,0,0,1,55.67,37a1.77,1.77,0,0,1,1.16-.74v-.06a.52.52,0,0,0,0-.11c-2.41-4.78-2.06-9.78-1.48-13.6a2.26,2.26,0,0,0-.26-1.08,3.75,3.75,0,0,1-.31-1.1,19,19,0,0,1,0-3.92,7.13,7.13,0,0,1,.65-1.9c.09-.19.17-.38.26-.58l-2.06-.33V8.71l1.84-.31C53.09,5.19,55,3,56.84.81l.51-.59L57.53,0H0V130.71A1,1,0,0,1,1,129.69ZM32.35,34.53a6.06,6.06,0,0,1,5.7-4,6.12,6.12,0,0,1,6,4.84h0a4.41,4.41,0,0,1,0,8.82H33.72a4.92,4.92,0,0,1-1.37-9.64Z"/><rect class="cls-1" x="57.99" y="114.9" width="4.65" height="10.09"/><polygon class="cls-1" points="78.92 49.54 77.24 51.98 77.97 52.95 79.67 50.23 78.92 49.54"/><path class="cls-1" d="M80.59,48.57a1.34,1.34,0,0,1,.81-.84.66.66,0,0,1,.23,0,2,2,0,0,1,1.11.54,3.39,3.39,0,0,0,.49.34,17,17,0,0,1,1.93,1.1l.47.29c.53-3.22-1.26-7.16-3.81-8.4-.14.45-.27.9-.4,1.36-.38,1.34-.78,2.73-1.29,4C79.84,47.7,79.84,48.12,80.59,48.57Z"/><path class="cls-1" d="M81.92,66.57c-2.47-1.6-5-3-6.92-4.11a1.42,1.42,0,0,0-1.14,0A28.52,28.52,0,0,1,63.2,66.72c-.74.14-1,.4-1,1.15-.32,5.26-.67,10.52-1,15.79l-.31,4.67.1,0,.12.05H67.7c4.74,0,9.49,0,14.23,0a1,1,0,0,0,.66-.16,1.41,1.41,0,0,0,.18-.92q0-3,0-6c0-4.37,0-8.89-.05-13.33A2.06,2.06,0,0,0,81.92,66.57Z"/><polygon class="cls-1" points="75.45 60.68 83.3 65.33 89.77 54.45 81.94 49.77 75.45 60.68"/><path class="cls-1" d="M51.3,114.13c0,3.57,0,8,0,11.58a18.68,18.68,0,0,0,.27,3.65c.2.2.58.29,1.27.28q13.58,0,27.14,0H90.73c.28,0,.56,0,.84-.07h.14V110.22H51.29C51.29,111.53,51.3,112.83,51.3,114.13Zm27.54-.95H86.9v13.45H78.84Zm-11.26,0h8v13.47h-8Zm-11.3,0h8v13.44h-8Z"/><path class="cls-1" d="M76,29.19a2.71,2.71,0,0,0-.79-.82,7.73,7.73,0,0,0-3.44-.82,8.53,8.53,0,0,0-3.74.91,1.39,1.39,0,0,0-.62.87c.07.29.14.59.2.89A15.23,15.23,0,0,0,69,34.31,3.09,3.09,0,0,0,71.65,36a3.28,3.28,0,0,0,2.86-1.69,16.35,16.35,0,0,0,1.32-3.12c.17-.5.34-1,.54-1.52C76.25,29.5,76.13,29.35,76,29.19Z"/><polygon class="cls-1" points="96.97 148.67 95.74 152.63 98.2 152.63 96.97 148.67"/><path class="cls-1" d="M62.42,147.6h-.93v7.17h1a2.15,2.15,0,0,0,1.82-.84,4.16,4.16,0,0,0,.63-2.51v-.49a4.1,4.1,0,0,0-.63-2.49A2.18,2.18,0,0,0,62.42,147.6Z"/><path class="cls-1" d="M105.88,70.19a2.11,2.11,0,0,0-1.34.47,1,1,0,0,1-1.27-1.59,4.23,4.23,0,0,1,1.53-.76,3.06,3.06,0,0,0-2.43-1.2,3.1,3.1,0,0,0-3,2.36,4.17,4.17,0,0,1,.44.29,1,1,0,1,1-1.24,1.61,1.7,1.7,0,0,0-1-.35,1.73,1.73,0,0,0,0,3.45h8.35a2.14,2.14,0,0,0,0-4.28Z"/><path class="cls-1" d="M57.53,0l.23.16c3.1,2.15,3.75,4.25,2.47,8.22l1.91.31v4.85l-1.8.34a2.54,2.54,0,0,0,.56,2.84,4.12,4.12,0,0,1,.69,2.72c0,1.09-.06,2.19-.15,3.35,0,.4-.06.8-.09,1.22l3.67.17c-.18-.43-.35-.85-.53-1.27-.6-1.44-1.17-2.81-1.7-4.2a3.18,3.18,0,0,1-.11-1.23,4.21,4.21,0,0,0,0-.5l0-.5.45.21.49.18a3.11,3.11,0,0,1,1.11.58C66,18.57,67.13,19.74,68.39,21l1,1c.09-.44.17-.87.25-1.3.31-1.64.6-3.19,1-4.73a2.71,2.71,0,0,1,.63-1.07l.31-.4.26-.4.25.41c.08.13.18.26.27.39a2.67,2.67,0,0,1,.55,1c.34,1.55.64,3.12,1,4.78L74.1,22l1-1c1.23-1.22,2.39-2.38,3.6-3.49a3.13,3.13,0,0,1,1.21-.6,4,4,0,0,0,.52-.18l.48-.2,0,.51c0,.17,0,.35,0,.53a3.78,3.78,0,0,1-.17,1.25c-.51,1.32-1.06,2.63-1.65,4l-.53,1.25h2.42l1,0a12.71,12.71,0,0,1,1.75,0,4.77,4.77,0,0,1,1.28.35l.08,0A5.05,5.05,0,0,1,89.2,17.3a3.4,3.4,0,0,1,0-.45,5.06,5.06,0,0,1,5.06-5.05,5,5,0,0,1,2.44.65,6.61,6.61,0,0,1,11.49,3.62,5.66,5.66,0,0,1-.34,11.32H89.65a5.06,5.06,0,0,1-4.19-2.22l-.24.25a3.6,3.6,0,0,1-1,.83c-1.33.68-2.74,1.33-4.31,2A2.67,2.67,0,0,0,78,31.11c.06,1.7,0,3.41,0,5.06,0,.63,0,1.26,0,1.88l.12.08.12.08a10.13,10.13,0,0,0,1.1.2,5.9,5.9,0,0,1,2.37.71c4.06,2.69,6,6.22,5.68,10.51a1.89,1.89,0,0,0,1.21,2.18,23.86,23.86,0,0,1,2.15,1.25l1,.64.26.16-.15.26c-.45.76-.89,1.53-1.31,2.29a46.76,46.76,0,0,1-3,4.86A17.4,17.4,0,0,0,84.3,73c.18,3.28.15,6.62.13,9.85,0,1.49,0,3,0,4.48,0,.24,0,.48.06.78l0,.25h4.95v6.85h4v6l2.23.26V110l-2.15.28v19.45h48.59a1,1,0,0,1,0,2H1a1,1,0,0,1-1-1V173H143.14V0Zm48.35,76.51H97.53A3.76,3.76,0,0,1,97.4,69a5.1,5.1,0,0,1,9.74-.63,4.17,4.17,0,0,1-1.26,8.14ZM22.2,135.42h98.74a1,1,0,0,1,0,2H22.2a1,1,0,0,1,0-2ZM119.58,150v2h-4.33v2.73h5.12v2.12H112.5V145.47h7.88v2.13h-5.13V150Zm-11.47,15.24c.38,0,.68.45.68,1s-.3,1-.68,1H35c-.38,0-.69-.45-.69-1s.31-1,.69-1Zm-72.92-8.35V145.47h2.75v11.42ZM39,147.6v-2.13h9.55v2.13H45.16v9.29H42.41V147.6ZM56.83,150v2H52.5v2.73h5.12v2.12H49.75V145.47h7.88v2.13H52.5V150Zm1.91,6.89V145.47h3.68a5.39,5.39,0,0,1,2.72.69A4.81,4.81,0,0,1,67,148.09a5.84,5.84,0,0,1,.68,2.81v.52a5.93,5.93,0,0,1-.66,2.82,4.78,4.78,0,0,1-1.87,1.94,5.21,5.21,0,0,1-2.68.71Zm19.85-4a5.63,5.63,0,0,0-1.5-.69,15.29,15.29,0,0,1-1.76-.7,3.34,3.34,0,0,1-2.22-3,2.72,2.72,0,0,1,.55-1.67,3.53,3.53,0,0,1,1.57-1.13,6,6,0,0,1,2.27-.41,5.38,5.38,0,0,1,2.21.44A3.56,3.56,0,0,1,81.23,147a3.28,3.28,0,0,1,.54,1.86H79a1.38,1.38,0,0,0-.43-1.08,1.66,1.66,0,0,0-1.16-.39,1.84,1.84,0,0,0-1.16.33,1,1,0,0,0,0,1.62,5.66,5.66,0,0,0,1.65.74,10.21,10.21,0,0,1,2,.82,3.27,3.27,0,0,1,1.85,2.94,2.79,2.79,0,0,1-1.13,2.35,5,5,0,0,1-3.1.86,6.18,6.18,0,0,1-2.51-.5,3.84,3.84,0,0,1-1.7-1.36,3.57,3.57,0,0,1-.56-2h2.76a1.73,1.73,0,0,0,.47,1.35,2.25,2.25,0,0,0,1.54.44,1.73,1.73,0,0,0,1.08-.3,1,1,0,0,0,.4-.82A1.13,1.13,0,0,0,78.59,152.91Zm13.56-5.31H88.72v9.29H86V147.6H82.6v-2.13h9.55Zm3.52-2.13h2.59l4.22,11.42h-3l-.66-2.13H95.08l-.66,2.13H91.48Zm12.24,2.13v9.29h-2.75V147.6h-3.37v-2.13h9.55v2.13Zm-74.65-2.13v11.42H30.52l-4.05-7.11v7.11H23.72V145.47h2.75l4,7.11v-7.11Zm-19,10.5A3.9,3.9,0,0,1,13,153v-7.53h2.77v7.59c0,1.25.62,1.87,1.75,1.87a1.68,1.68,0,0,0,1.29-.47,2.2,2.2,0,0,0,.44-1.53v-7.46H22V153a4.32,4.32,0,0,1-.54,2.2,3.48,3.48,0,0,1-1.55,1.41,5.4,5.4,0,0,1-2.39.49A4.73,4.73,0,0,1,14.23,156Zm109.58,17H19.33c-.4,0-.73-.46-.73-1s.33-1,.73-1H123.81c.4,0,.72.46.72,1S124.21,173,123.81,173Zm.87-23.66a5.75,5.75,0,0,0,1.66.74,10.09,10.09,0,0,1,1.94.82,3.25,3.25,0,0,1,1.85,2.94,2.76,2.76,0,0,1-1.13,2.35,5,5,0,0,1-3.1.86,6.18,6.18,0,0,1-2.51-.5,3.81,3.81,0,0,1-1.69-1.36,3.57,3.57,0,0,1-.57-2h2.76a1.77,1.77,0,0,0,.47,1.35,2.25,2.25,0,0,0,1.54.44,1.73,1.73,0,0,0,1.08-.3,1,1,0,0,0,.4-.82,1.13,1.13,0,0,0-.43-1,5.33,5.33,0,0,0-1.5-.69,15.29,15.29,0,0,1-1.76-.7,3.34,3.34,0,0,1-2.22-3,2.67,2.67,0,0,1,.56-1.67,3.5,3.5,0,0,1,1.56-1.13,6.09,6.09,0,0,1,2.28-.41,5.33,5.33,0,0,1,2.2.44,3.56,3.56,0,0,1,1.52,1.25,3.28,3.28,0,0,1,.54,1.86h-2.74a1.35,1.35,0,0,0-.43-1.08,1.66,1.66,0,0,0-1.16-.39,1.84,1.84,0,0,0-1.16.33,1,1,0,0,0-.43.83A1,1,0,0,0,124.68,149.34Z"/><rect class="cls-1" x="51.41" y="97.15" width="40.38" height="4.02"/><path class="cls-1" d="M87.82,94.22a20.49,20.49,0,0,1,.05-2.61,1.53,1.53,0,0,0-.19-1.19c-.21-.23-.64-.33-1.41-.32-7.39,0-14.9,0-22.17,0H55.44v5.09h32.4C87.84,94.87,87.83,94.55,87.82,94.22Z"/><path class="cls-1" d="M75.41,51c3.24-3.7,4.81-7.65,4.46-11.19l-.51.23a3.05,3.05,0,0,0-1.27.8C73.17,48,67.17,52.28,59.74,54.09a1.56,1.56,0,0,0-.93.88c-.26,1.17-.42,2.35-.59,3.61l-.15,1.11C64.06,59.64,70.82,56.27,75.41,51Z"/><path class="cls-1" d="M73.8,60.07l.07-.12,2.44-4.12L77,54.62l-1-1.31c-4.22,4.17-9.63,6.76-17,8.15l-.27,4.15c6.06-.51,10.74-2.13,14.69-5.07A1.58,1.58,0,0,0,73.8,60.07Z"/><path class="cls-1" d="M94,103l-.29,0c-.33,0-.62,0-.91,0H50.07a1.08,1.08,0,0,0-.41,0c-.46.28-.63.5-.64.57-.05,1.23-.05,2.45,0,3.75v1H94Z"/></g></g></svg>