<svg xmlns="http://www.w3.org/2000/svg" viewBox="0 0 143.14 173"><defs><style>.cls-1{fill:#fff;}</style></defs><title>Asset 6</title><g id="Layer_2" data-name="Layer 2"><g id="Layer_1-2" data-name="Layer 1"><path class="cls-1" d="M34.54,21.08a1.67,1.67,0,0,0-1.29,2.75,1.7,1.7,0,0,0,1.15.57,1.64,1.64,0,0,0,1.81-1.49,1.7,1.7,0,0,0-.39-1.24A1.67,1.67,0,0,0,34.54,21.08Z"/><path class="cls-1" d="M51.86,11.07a1.63,1.63,0,0,0-.57.1,1.69,1.69,0,0,0-.95.87,1.72,1.72,0,0,0-.05,1.28,1.66,1.66,0,0,0,.88.94,1.61,1.61,0,0,0,1.27.07,1.68,1.68,0,0,0-.58-3.26Z"/><path class="cls-1" d="M35.82,112.09a1.66,1.66,0,0,0-.21-2.36,1.6,1.6,0,0,0-1.07-.39,1.67,1.67,0,0,0-1.08,3A1.73,1.73,0,0,0,35.82,112.09Z"/><path class="cls-1" d="M21.25,97.29a1.64,1.64,0,0,0,2.05-1.17A1.68,1.68,0,0,0,21.67,94a1.68,1.68,0,0,0-1.62,1.24,1.66,1.66,0,0,0,1.2,2Z"/><path class="cls-1" d="M22.52,36.62a1.78,1.78,0,0,0-.84-.22,1.69,1.69,0,0,0-1.46.84,1.73,1.73,0,0,0-.17,1.28,1.7,1.7,0,0,0,3.08.4,1.71,1.71,0,0,0,.17-1.27A1.73,1.73,0,0,0,22.52,36.62Z"/><path class="cls-1" d="M108.6,21.08a1.67,1.67,0,0,0-1.29.59,1.68,1.68,0,0,0,.2,2.37,1.75,1.75,0,0,0,2.38-.21,1.69,1.69,0,0,0-.21-2.36A1.65,1.65,0,0,0,108.6,21.08Z"/><path class="cls-1" d="M121.45,36.4a1.72,1.72,0,0,0-.83.22,1.66,1.66,0,0,0,.41,3.06,1.66,1.66,0,0,0,2-1.17,1.62,1.62,0,0,0-.17-1.27A1.69,1.69,0,0,0,121.45,36.4Z"/><path class="cls-1" d="M51.3,122.6a1.72,1.72,0,0,0,2.14-1,1.68,1.68,0,0,0-1-2.15,1.65,1.65,0,0,0-.58-.1,1.68,1.68,0,0,0-.56,3.26Z"/><path class="cls-1" d="M71.57,7.6a1.67,1.67,0,0,0-1.68,1.68A1.66,1.66,0,0,0,71.56,11h0a1.68,1.68,0,1,0,0-3.35Z"/><path class="cls-1" d="M91.85,11.17a1.65,1.65,0,0,0-.58-.1,1.67,1.67,0,0,0-1.57,1.1,1.65,1.65,0,0,0,0,1.29,1.69,1.69,0,0,0,1,.87A1.65,1.65,0,0,0,92,14.26a1.67,1.67,0,0,0-.12-3.09Z"/><path class="cls-1" d="M128.59,58.53a1.68,1.68,0,0,0-.28-3.33l-.3,0a1.66,1.66,0,0,0-1.36,1.94A1.66,1.66,0,0,0,128.59,58.53Z"/><path class="cls-1" d="M20.63,111.3a2.79,2.79,0,0,0-.58.07.75.75,0,0,1-.36.1h0a2.77,2.77,0,0,0-1.21.84.69.69,0,0,1-.46.24.66.66,0,0,1-.5-.16.64.64,0,0,1-.24-.46.66.66,0,0,1,.16-.5A4.11,4.11,0,0,1,19,110.29a3.29,3.29,0,0,0-6.3-.88.68.68,0,1,1-1.26-.52,3.42,3.42,0,0,1,.21-.43,2.27,2.27,0,0,0-2.37,0,2.24,2.24,0,0,0-.84,2.92,3.71,3.71,0,0,1,1.08.68.66.66,0,0,1,.22.48.62.62,0,0,1-.18.48.6.6,0,0,1-.47.22.69.69,0,0,1-.49-.17,2.19,2.19,0,0,0-1.5-.58,2.22,2.22,0,1,0,0,4.44H20.63a2.81,2.81,0,0,0,0-5.62Z"/><path class="cls-1" d="M71.57,65.58a1.3,1.3,0,0,1,1.27,1L73.51,70a3.67,3.67,0,1,0-3.89,0l.67-3.35A1.31,1.31,0,0,1,71.57,65.58Z"/><path class="cls-1" d="M71.58,102.47a35.68,35.68,0,0,0,5.68-.46l-5.69-28.5L65.87,102A36.06,36.06,0,0,0,71.58,102.47Z"/><path class="cls-1" d="M71.57,118.84a52.26,52.26,0,0,1-8.91-.78l-2.33,11.63H82.8l-2.33-11.63A52.23,52.23,0,0,1,71.57,118.84Zm0,9.93a4.28,4.28,0,1,1,4.28-4.28A4.28,4.28,0,0,1,71.57,128.77Z"/><path class="cls-1" d="M80.33,104.06l.63,3.15a41.41,41.41,0,1,0-18.78,0l.63-3.16c-1.18-.28-2.35-.6-3.49-1a1.31,1.31,0,0,1-.82-1.65,1.32,1.32,0,0,1,1.65-.82c1,.36,2.1.65,3.17.91l5.77-28.86a6.27,6.27,0,1,1,5,0l5.78,28.87A35.45,35.45,0,0,0,99.51,88.94a1.25,1.25,0,0,1,.87-.49,1.31,1.31,0,0,1,1.44,1.14,1.31,1.31,0,0,1-.27,1A38.05,38.05,0,0,1,80.33,104.06Zm-34.26-56A31.88,31.88,0,0,0,43.6,81.79a1.33,1.33,0,0,1,.09,1,1.29,1.29,0,0,1-.63.76A1.31,1.31,0,0,1,41.3,83,34.48,34.48,0,0,1,44,46.51a1.3,1.3,0,0,1,2.1,1.54ZM71.58,31.26A35.66,35.66,0,0,0,36,66.88a1.3,1.3,0,1,1-2.6,0A38.26,38.26,0,0,1,71.58,28.66a1.3,1.3,0,0,1,0,2.6Z"/><path class="cls-1" d="M71.57,122.82a1.68,1.68,0,1,0,1.68,1.67A1.68,1.68,0,0,0,71.57,122.82Z"/><path class="cls-1" d="M111.94,5.91a.86.86,0,0,1-.31.59.84.84,0,0,1-.63.2.82.82,0,0,1-.58-.31,3.26,3.26,0,1,0-2.5,5.35h10.47a2.57,2.57,0,1,0-1.73-4.46A.86.86,0,1,1,115.49,6a4.13,4.13,0,0,1,1.09-.72,4.34,4.34,0,0,0-7.82-1.71,5,5,0,0,1,3,1.7A.86.86,0,0,1,111.94,5.91Z"/><path class="cls-1" d="M64.72,107.72a41.39,41.39,0,0,0,13.69,0l-.64-3.16a38.49,38.49,0,0,1-6.19.51,39.17,39.17,0,0,1-6.23-.5Z"/><path class="cls-1" d="M14.83,75.21a1.51,1.51,0,0,0-.3,0,1.68,1.68,0,0,0,.6,3.31,1.67,1.67,0,0,0,1.08-.69,1.65,1.65,0,0,0,.28-1.25A1.68,1.68,0,0,0,14.83,75.21Z"/><path class="cls-1" d="M91.27,119.34a1.69,1.69,0,0,0-.58.1,1.67,1.67,0,0,0-.12,3.09,1.67,1.67,0,1,0,.7-3.19Z"/><path class="cls-1" d="M14.54,58.53a1.65,1.65,0,0,0,1.26-.28,1.69,1.69,0,0,0,.41-2.33,1.65,1.65,0,0,0-1.09-.7l-.28,0a1.68,1.68,0,0,0-1.66,1.39,1.68,1.68,0,0,0,1.36,1.94Z"/><path class="cls-1" d="M63.17,115.51a48.64,48.64,0,0,0,16.79,0l-1-5.24a43.94,43.94,0,0,1-14.71,0Z"/><path class="cls-1" d="M61.66,109.76a44,44,0,1,1,19.81,0l1,5.24a49.36,49.36,0,1,0-21.9,0Z"/><path class="cls-1" d="M128.58,75.23l-.29,0a1.68,1.68,0,1,0,1,3.05,1.69,1.69,0,0,0,.69-1.08,1.76,1.76,0,0,0-.28-1.26A1.73,1.73,0,0,0,128.58,75.23Z"/><path class="cls-1" d="M122.3,94.23a1.78,1.78,0,0,0-.84-.22,1.68,1.68,0,0,0-.84,3.13,1.76,1.76,0,0,0,2.3-.62,1.69,1.69,0,0,0-.62-2.29Z"/><path class="cls-1" d="M118.46,147.47c-1.38,0-2.11,1-2.18,3.11v.84a5,5,0,0,0,.55,2.58,1.84,1.84,0,0,0,1.66.9,1.8,1.8,0,0,0,1.61-.88,4.91,4.91,0,0,0,.57-2.55v-.53a4.79,4.79,0,0,0-.57-2.58A1.83,1.83,0,0,0,118.46,147.47Z"/><path class="cls-1" d="M55.34,147.6h-.93v7.18h1a2.12,2.12,0,0,0,1.82-.85,4.13,4.13,0,0,0,.63-2.5v-.5a4.12,4.12,0,0,0-.63-2.49A2.17,2.17,0,0,0,55.34,147.6Z"/><path class="cls-1" d="M112.31,0a6,6,0,0,1,6,4.89h.13a4.3,4.3,0,0,1,0,8.59H107.92a5,5,0,0,1-1.18-9.82A6.07,6.07,0,0,1,112.31,0H0V130.71a1,1,0,0,1,1-1h56.7l2.43-12.14a52,52,0,1,1,22.92,0l2.42,12.14h56.71a1,1,0,0,1,0,2H1a1,1,0,0,1-1-1V173H19.33c-.4,0-.73-.46-.73-1s.33-1,.73-1H123.81c.4,0,.72.46.72,1s-.32,1-.72,1h19.33V0ZM10.62,56.13a4.3,4.3,0,0,1,5-3.47,4.35,4.35,0,0,1,2.78,1.77,4.29,4.29,0,0,1-3.52,6.73,3.51,3.51,0,0,1-.74-.07,4.28,4.28,0,0,1-3.47-5Zm7.72,23.21a4.24,4.24,0,0,1-2.76,1.76,4.56,4.56,0,0,1-.75.06,4.28,4.28,0,1,1,4.22-5A4.22,4.22,0,0,1,18.34,79.34Zm2.29,38.94H7.08a3.58,3.58,0,0,1-.19-7.16,3.62,3.62,0,0,1,5.55-3.75A4.66,4.66,0,0,1,20.31,110l.32,0a4.17,4.17,0,1,1,0,8.34Zm27.22,1.28a4.27,4.27,0,0,1,4-2.82,4.38,4.38,0,0,1,1.47.26,4.28,4.28,0,1,1-5.48,2.56ZM31.26,108.27a4.25,4.25,0,0,1,3.28-1.54,4.28,4.28,0,0,1,3.27,7,4.28,4.28,0,0,1-6.55-5.5ZM21.67,91.41a4.28,4.28,0,0,1,2.15,8,4.24,4.24,0,0,1-2.14.58,4.28,4.28,0,1,1,0-8.56Zm3.71-51.19a4.29,4.29,0,0,1-3.71,2.14,4.21,4.21,0,0,1-2.13-.58A4.28,4.28,0,1,1,25.81,37,4.21,4.21,0,0,1,25.38,40.22ZM37.29,26a4.28,4.28,0,0,1-5.51-6.56,4.33,4.33,0,0,1,2.76-1A4.28,4.28,0,0,1,37.29,26Zm16-9.26A4.28,4.28,0,0,1,48,10.94a4.28,4.28,0,0,1,3.87-2.47,4.28,4.28,0,0,1,1.47,8.3Zm18.24-3.22h0a4.28,4.28,0,0,1-3-7.3,4.28,4.28,0,1,1,3,7.3Zm23.72.66a4.29,4.29,0,0,1-4,2.82,4.34,4.34,0,0,1-1.47-.26,4.29,4.29,0,0,1-2.55-5.49,4.28,4.28,0,1,1,8,2.93Zm37.23,41.92a4.29,4.29,0,0,1-3.48,5,3.51,3.51,0,0,1-.74.07,4.28,4.28,0,1,1,4.22-5ZM111.88,25.5a4.28,4.28,0,0,1-7.55-2.38,4.29,4.29,0,0,1,4.27-4.65,4.27,4.27,0,0,1,4.26,3.91A4.25,4.25,0,0,1,111.88,25.5Zm9.58,16.86a4.3,4.3,0,0,1-3.71-2.14,4.3,4.3,0,0,1,1.57-5.85,4.28,4.28,0,0,1,5.84,1.57,4.28,4.28,0,0,1-3.7,6.42ZM92.74,125a4.28,4.28,0,0,1-5.35-5.83,4.3,4.3,0,0,1,3.88-2.47,4.28,4.28,0,0,1,1.47,8.3Zm18.61-10.75a4.28,4.28,0,1,1,1.51-2.91A4.25,4.25,0,0,1,111.35,114.29Zm13.82-16.46a4.32,4.32,0,0,1-3.72,2.14,4.28,4.28,0,0,1-3.7-6.42,4.28,4.28,0,0,1,7.42,4.28Zm7.35-20.2a4.29,4.29,0,0,1-4.22,3.54,3.64,3.64,0,0,1-.74-.07,4.27,4.27,0,1,1,5-3.47ZM22.2,135.42h98.74a1,1,0,0,1,0,2H22.2a1,1,0,0,1,0-2Zm73.41,18.66a2.06,2.06,0,0,0,1.84.85,2.32,2.32,0,0,0,1.6-.47v-1.78H97.13v-1.89h4.67v4.69a4.41,4.41,0,0,1-1.86,1.14,7.93,7.93,0,0,1-2.68.43,4.78,4.78,0,0,1-3.59-1.37,5.57,5.57,0,0,1-1.43-3.82v-1a6.77,6.77,0,0,1,.6-2.94,4.42,4.42,0,0,1,1.7-1.94,4.86,4.86,0,0,1,2.57-.68,5,5,0,0,1,3.32,1,4.15,4.15,0,0,1,1.37,2.91H99.14a2.19,2.19,0,0,0-.61-1.37,2,2,0,0,0-1.33-.4,1.78,1.78,0,0,0-1.6.88,4.68,4.68,0,0,0-.58,2.51v.69A4.61,4.61,0,0,0,95.61,154.08Zm-4.9-8.61V156.9H88l-4-7.11v7.11H81.17V145.47h2.75l4,7.11v-7.11Zm-11.45,0V156.9H76.51V145.47ZM75.62,156.9H72.36l-2.43-4.26-1.13,1.24v3H66.05V145.47H68.8v5l1-1.45,2.46-3.59h3.4l-3.85,5.06Zm-15-6v.53a5.92,5.92,0,0,1-.66,2.81,4.81,4.81,0,0,1-1.87,1.95,5.39,5.39,0,0,1-2.68.71H51.66V145.47h3.68a5.39,5.39,0,0,1,2.72.69A4.84,4.84,0,0,1,60,148.1,5.8,5.8,0,0,1,60.63,150.9ZM49.75,150v2H45.42v2.73h5.12v2.12H42.67V145.47h7.88v2.13H45.42V150ZM14.92,153a4.3,4.3,0,0,1-.54,2.2,3.56,3.56,0,0,1-1.55,1.42,5.55,5.55,0,0,1-2.4.48A4.72,4.72,0,0,1,7.15,156a3.87,3.87,0,0,1-1.23-3v-7.54H8.69v7.59c0,1.25.61,1.87,1.74,1.87a1.67,1.67,0,0,0,1.3-.47,2.2,2.2,0,0,0,.44-1.53v-7.46h2.75Zm11.26,4H23.44l-4.05-7.11v7.11H16.64V145.47h2.75l4,7.11v-7.11h2.75Zm4.67,0H28.11V145.47h2.74ZM32,145.47h9.55v2.13H38.08v9.3H35.33v-9.3H32Zm76.15,21.8H35c-.38,0-.69-.45-.69-1s.31-1,.69-1h73.08c.38,0,.68.45.68,1S108.49,167.27,108.11,167.27Zm4.27-15.84a5.81,5.81,0,0,1-.67,2.81,4.85,4.85,0,0,1-1.86,1.95,5.45,5.45,0,0,1-2.69.71H103.4V145.47h3.68a5.37,5.37,0,0,1,2.72.69,4.77,4.77,0,0,1,1.89,1.94,5.92,5.92,0,0,1,.69,2.8Zm11.08,0a6.81,6.81,0,0,1-.62,3,4.53,4.53,0,0,1-1.76,2,5.29,5.29,0,0,1-5.19,0,4.5,4.5,0,0,1-1.76-1.92,6.51,6.51,0,0,1-.66-2.86V151a6.75,6.75,0,0,1,.61-3,4.57,4.57,0,0,1,1.77-2,5,5,0,0,1,2.61-.69,4.89,4.89,0,0,1,2.59.69,4.62,4.62,0,0,1,1.77,2,6.54,6.54,0,0,1,.64,2.93Zm13.75,5.48h-2.76v-2.67l.27-5.46L132,156.9h-1.82l-2.77-8.14.26,5.47v2.67h-2.75V145.47h3.62l2.55,7.95,2.54-7.95h3.62Z"/><path class="cls-1" d="M107.08,147.6h-.92v7.18h1a2.12,2.12,0,0,0,1.82-.85,4.06,4.06,0,0,0,.64-2.5v-.5a4,4,0,0,0-.64-2.49A2.17,2.17,0,0,0,107.08,147.6Z"/><path class="cls-1" d="M108.59,109.34a1.62,1.62,0,0,0-1.07.39,1.68,1.68,0,0,0,2.16,2.57,1.68,1.68,0,0,0,.59-1.14,1.68,1.68,0,0,0-1.68-1.82Z"/></g></g></svg>