<svg xmlns="http://www.w3.org/2000/svg" viewBox="0 0 143.14 173"><defs><style>.cls-1{fill:#4a4a4a;}</style></defs><title>Asset 10</title><g id="Layer_2" data-name="Layer 2"><g id="Layer_1-2" data-name="Layer 1"><path class="cls-1" d="M86.9,113.18H78.84v13.45H86.9ZM85.13,125H80.54v-10.1h4.59Z"/><path class="cls-1" d="M64.32,113.22h-8v13.44h8ZM62.64,125H58V114.9h4.65Z"/><path class="cls-1" d="M75.6,113.22h-8v13.47h8Zm-1.73,11.7H69.22v-10h4.65Z"/><path class="cls-1" d="M33.72,44.17H44a4.41,4.41,0,0,0,0-8.82h0a6.12,6.12,0,0,0-6-4.84,6.06,6.06,0,0,0-5.7,4,4.92,4.92,0,0,0,1.37,9.64Zm0-7.81a2.83,2.83,0,0,1,1.8.64,1,1,0,1,0,1.27-1.59,4.91,4.91,0,0,0-2.15-1A4,4,0,0,1,42,35.84a4.59,4.59,0,0,0-.66.42,1,1,0,0,0-.19,1.43,1,1,0,0,0,1.42.18A2.42,2.42,0,0,1,44,37.39a2.37,2.37,0,0,1,0,4.74H33.72a2.89,2.89,0,1,1,0-5.77Z"/><path class="cls-1" d="M102.37,65.07a5.14,5.14,0,0,0-5,3.93,3.76,3.76,0,0,0,.13,7.51h8.35a4.17,4.17,0,0,0,1.26-8.14A5.09,5.09,0,0,0,102.37,65.07ZM108,72.33a2.14,2.14,0,0,1-2.14,2.14H97.53a1.73,1.73,0,0,1,0-3.45,1.7,1.7,0,0,1,1,.35,1,1,0,1,0,1.24-1.61,4.17,4.17,0,0,0-.44-.29,3.1,3.1,0,0,1,3-2.36,3.06,3.06,0,0,1,2.43,1.2,4.23,4.23,0,0,0-1.53.76,1,1,0,0,0,1.27,1.59,2.11,2.11,0,0,1,1.34-.47A2.14,2.14,0,0,1,108,72.33Z"/><path class="cls-1" d="M142.16,129.69H93.57V110.24l2.15-.28v-8.5l-2.23-.26v-6h-4V88.4H84.51l0-.25c0-.3-.06-.54-.06-.78,0-1.49,0-3,0-4.48,0-3.23,0-6.57-.13-9.85a17.4,17.4,0,0,1,3.34-11.77,46.76,46.76,0,0,0,3-4.86c.42-.76.86-1.53,1.31-2.29l.15-.26-.26-.16-1-.64a23.86,23.86,0,0,0-2.15-1.25,1.89,1.89,0,0,1-1.21-2.18c.29-4.29-1.62-7.82-5.68-10.51a5.9,5.9,0,0,0-2.37-.71,10.13,10.13,0,0,1-1.1-.2l-.12-.08-.12-.08c0-.62,0-1.25,0-1.88,0-1.65,0-3.36,0-5.06A2.67,2.67,0,0,1,80,28.23c1.57-.65,3-1.3,4.31-2a3.6,3.6,0,0,0,1-.83l.24-.25a5.06,5.06,0,0,0,4.19,2.22h18.17a5.66,5.66,0,0,0,.34-11.32,6.61,6.61,0,0,0-11.49-3.62,5,5,0,0,0-2.44-.65,5.06,5.06,0,0,0-5.06,5.05,3.4,3.4,0,0,0,0,.45A5.05,5.05,0,0,0,85,24.37l-.08,0A4.77,4.77,0,0,0,83.66,24a12.71,12.71,0,0,0-1.75,0l-1,0H78.51L79,22.84c.59-1.38,1.14-2.69,1.65-4a3.78,3.78,0,0,0,.17-1.25c0-.18,0-.36,0-.53l0-.51-.48.2a4,4,0,0,1-.52.18,3.13,3.13,0,0,0-1.21.6c-1.21,1.11-2.37,2.27-3.6,3.49l-1,1-.26-1.34c-.31-1.66-.61-3.23-1-4.78a2.67,2.67,0,0,0-.55-1c-.09-.13-.19-.26-.27-.39l-.25-.41-.26.4-.31.4A2.71,2.71,0,0,0,70.62,16c-.35,1.54-.64,3.09-1,4.73-.08.43-.16.86-.25,1.3l-1-1c-1.26-1.23-2.44-2.4-3.67-3.52a3.11,3.11,0,0,0-1.11-.58l-.49-.18-.45-.21,0,.5a4.21,4.21,0,0,1,0,.5,3.18,3.18,0,0,0,.11,1.23c.53,1.39,1.1,2.76,1.7,4.2.18.42.35.84.53,1.27L61.35,24c0-.42.06-.82.09-1.22.09-1.16.17-2.26.15-3.35a4.12,4.12,0,0,0-.69-2.72,2.54,2.54,0,0,1-.56-2.84l1.8-.34V8.69l-1.91-.31c1.28-4,.63-6.07-2.47-8.22L57.53,0l-.18.22-.51.59C55,3,53.09,5.19,55.49,8.4l-1.84.31v4.91l2.06.33c-.09.2-.17.39-.26.58a7.13,7.13,0,0,0-.65,1.9,19,19,0,0,0,0,3.92,3.75,3.75,0,0,0,.31,1.1,2.26,2.26,0,0,1,.26,1.08c-.58,3.82-.93,8.82,1.48,13.6a.52.52,0,0,1,0,.11v.06a1.77,1.77,0,0,0-1.16.74,2.86,2.86,0,0,0,.16,2.29l0,.13c.07.2.12.41.18.61a5.49,5.49,0,0,0,.58,1.52c1.92,3,1.71,6.36,1.26,9.21-.38,2.39-.82,4.76-1.25,7.05-.18,1-.36,1.93-.53,2.87l0,.17.13.11c1.18,1,1,2.22.9,3.46a4.83,4.83,0,0,0,.19,2.66l.08.18h3.17L59.12,88.52h-5.6v6.81h-3.9v5.88l-2.2.25V110l2.24.34v19.4H1a1,1,0,0,0,0,2H142.16a1,1,0,0,0,0-2ZM89.65,19.31a3,3,0,0,1,2.06.82,1,1,0,1,0,1.39-1.49,5,5,0,0,0-1.79-1.07,2.84,2.84,0,0,1-.1-.72,3,3,0,0,1,3-3,2.9,2.9,0,0,1,1.33.33,6.83,6.83,0,0,0-.46,1.43,1,1,0,0,0,.81,1.19A1,1,0,0,0,97.1,16a4.58,4.58,0,0,1,9,.33A5.7,5.7,0,0,0,103.58,18a1,1,0,0,0,.09,1.44,1,1,0,0,0,1.43-.09,3.63,3.63,0,1,1,2.72,6.05H89.65a3,3,0,1,1,0-6.05ZM79.08,26.06c.09-.1.34-.14.72-.14s.54,0,.89,0L79,26.79C79,26.41,79,26.15,79.08,26.06ZM89.77,54.45,83.3,65.33l-7.85-4.65,6.49-10.91Zm-7,33a1.41,1.41,0,0,1-.18.92,1,1,0,0,1-.66.16c-4.74,0-9.49,0-14.23,0H61.08L61,88.38l-.1,0,.31-4.67c.34-5.27.69-10.53,1-15.79,0-.75.28-1,1-1.15a28.52,28.52,0,0,0,10.66-4.28,1.42,1.42,0,0,1,1.14,0c1.92,1.07,4.45,2.51,6.92,4.11A2.06,2.06,0,0,1,82.71,68c.05,4.44.05,9,.05,13.33Q82.76,84.39,82.77,87.4ZM77.24,52l1.68-2.44.75.69L78,53Zm2.89-5c.51-1.32.91-2.71,1.29-4,.13-.46.26-.91.4-1.36,2.55,1.24,4.34,5.18,3.81,8.4l-.47-.29a17,17,0,0,0-1.93-1.1,3.39,3.39,0,0,1-.49-.34,2,2,0,0,0-1.11-.54.66.66,0,0,0-.23,0,1.34,1.34,0,0,0-.81.84C79.84,48.12,79.84,47.7,80.13,47ZM77.74,21.42l-1,2.41-1-.54Zm-6-2.41.66,3.47-1.33.07ZM76,25.49a3.43,3.43,0,0,1,1,1.18c.08.14.16.28.25.41-.51-.12-1-.26-1.52-.41a14.45,14.45,0,0,0-3.88-.73h0a15.18,15.18,0,0,0-3.91.69c-.5.13-1,.27-1.53.39-.16-.75.38-1.22,1.33-1.74A7.94,7.94,0,0,1,76,25.49Zm-.17,5.68a16.35,16.35,0,0,1-1.32,3.12A3.28,3.28,0,0,1,71.65,36,3.09,3.09,0,0,1,69,34.31a15.23,15.23,0,0,1-1.34-4.09c-.06-.3-.13-.6-.2-.89a1.39,1.39,0,0,1,.62-.87,8.53,8.53,0,0,1,3.74-.91,7.73,7.73,0,0,1,3.44.82,2.71,2.71,0,0,1,.79.82c.11.16.23.31.35.46C76.17,30.17,76,30.67,75.83,31.17Zm.48,3.73v3.86l-.92.06C74.93,38.2,75.17,36.66,76.31,34.9Zm-3,2.63v1.2c-1.59.23-2.52.29-2.87,0-.19-.17-.26-.5-.25-1.17ZM68.28,23l-1.51.78L65.4,20.57ZM64.19,26a1,1,0,0,1,.25.71l-2-.88C63.39,25.74,63.93,25.8,64.19,26Zm-3.08,1.25c4.44,1.55,4.57,1.72,4.19,6.4l-.6-.27A3.69,3.69,0,0,1,63,32.3a20,20,0,0,1-1.6-3.63c-.16-.44-.32-.88-.49-1.31ZM57.81,2.5c1.44,1.67,1.83,2.87,1.71,3.44a.58.58,0,0,1-.37.47,3.68,3.68,0,0,1-2.82-.06A.62.62,0,0,1,56,5.87C55.91,5.21,56.44,3.89,57.81,2.5ZM55.41,12V10.27h4.91c.14.77.24,1.41.09,1.59s-.79.18-1.48.18-1.67,0-2.56,0Zm3,1.84v1.9c-1-.28-1.1-.44-1.13-1.9ZM56.15,19.4a1,1,0,0,1-.1-.9,2.56,2.56,0,0,1,.63-.93l.17-.18,1,1c-.14.15-.26.31-.37.45-.26.33-.49.62-.68.66A.62.62,0,0,1,56.15,19.4Zm.48,8,0-.22c.25-2.11.25-2.11,2.58-2.34l.25,0,.39-5.05v0a26.37,26.37,0,0,1-.16,3.08c-.38,2.85-.54,6.56,1.54,10a3,3,0,0,1,.27.66,2.25,2.25,0,0,0,.08.24l-3.13,1.71c-.14-.39-.28-.77-.43-1.15C57.17,32,56.34,29.85,56.63,27.4Zm1.12,12.31a1.73,1.73,0,0,1-.33-1.43,1.83,1.83,0,0,1,1.19-1,11.88,11.88,0,0,0,1.84-1c.33-.2.66-.4,1-.58.5-.26.89-.48,1.2-.67a2.56,2.56,0,0,1,1-.43c.31,0,.55.28,1.11,1l.54.65c3.06,3.61,6.34,5,10.33,4.23a1.76,1.76,0,0,1,.48,0h0c-4.5,6.25-9.77,10-16.53,11.79v-.07a1.55,1.55,0,0,1,0-.4C60,47.86,60.12,43.61,57.75,39.71Zm.47,18.87c.17-1.26.33-2.44.59-3.61a1.56,1.56,0,0,1,.93-.88C67.17,52.28,73.17,48,78.09,40.88a3.05,3.05,0,0,1,1.27-.8l.51-.23c.35,3.54-1.22,7.49-4.46,11.19-4.59,5.23-11.35,8.6-17.34,8.65Zm.55,7L59,61.46c7.34-1.39,12.75-4,17-8.15l1,1.31-.72,1.21L73.87,60l-.07.12a1.58,1.58,0,0,1-.34.47C69.51,63.48,64.83,65.1,58.77,65.61ZM55.44,90.13H64.1c7.27,0,14.78,0,22.17,0,.77,0,1.2.09,1.41.32a1.53,1.53,0,0,1,.19,1.19,20.49,20.49,0,0,0-.05,2.61c0,.33,0,.65,0,1H55.44Zm-4,7H91.79v4H51.41ZM49,108.33v-1c0-1.3,0-2.52,0-3.75,0-.07.18-.29.64-.57a1.08,1.08,0,0,1,.41,0H92.79c.29,0,.58,0,.91,0l.29,0v5.29Zm42.73,21.2h-.14c-.28,0-.56.06-.84.07H79.94q-13.57,0-27.14,0c-.69,0-1.07-.08-1.27-.28a18.68,18.68,0,0,1-.27-3.65c.06-3.6.05-8,0-11.58,0-1.3,0-2.6,0-3.91H91.71Z"/><path class="cls-1" d="M121.87,136.43a1,1,0,0,0-.93-1H22.2a1,1,0,0,0,0,2h98.74A1,1,0,0,0,121.87,136.43Z"/><path class="cls-1" d="M123.81,171H19.33c-.4,0-.73.46-.73,1s.33,1,.73,1H123.81c.4,0,.72-.46.72-1S124.21,171,123.81,171Z"/><path class="cls-1" d="M34.34,166.25c0,.57.31,1,.69,1h73.08c.38,0,.68-.45.68-1s-.3-1-.68-1H35C34.65,165.24,34.34,165.69,34.34,166.25Z"/><path class="cls-1" d="M21.46,155.15A4.32,4.32,0,0,0,22,153v-7.48H19.25v7.46a2.2,2.2,0,0,1-.44,1.53,1.68,1.68,0,0,1-1.29.47c-1.13,0-1.72-.62-1.75-1.87v-7.59H13V153a3.9,3.9,0,0,0,1.23,3,4.73,4.73,0,0,0,3.29,1.08,5.4,5.4,0,0,0,2.39-.49A3.48,3.48,0,0,0,21.46,155.15Z"/><polygon class="cls-1" points="26.47 145.47 23.72 145.47 23.72 156.89 26.47 156.89 26.47 149.78 30.52 156.89 33.26 156.89 33.26 145.47 30.51 145.47 30.51 152.58 26.47 145.47"/><rect class="cls-1" x="35.19" y="145.47" width="2.75" height="11.42"/><polygon class="cls-1" points="45.16 156.89 45.16 147.6 48.59 147.6 48.59 145.47 39.04 145.47 39.04 147.6 42.41 147.6 42.41 156.89 45.16 156.89"/><polygon class="cls-1" points="57.63 147.6 57.63 145.47 49.75 145.47 49.75 156.89 57.62 156.89 57.62 154.77 52.5 154.77 52.5 152.04 56.83 152.04 56.83 150 52.5 150 52.5 147.6 57.63 147.6"/><path class="cls-1" d="M67.05,154.24a5.93,5.93,0,0,0,.66-2.82v-.52a5.84,5.84,0,0,0-.68-2.81,4.81,4.81,0,0,0-1.89-1.93,5.39,5.39,0,0,0-2.72-.69H58.74v11.42H62.5a5.21,5.21,0,0,0,2.68-.71A4.78,4.78,0,0,0,67.05,154.24Zm-2.15-2.82a4.16,4.16,0,0,1-.63,2.51,2.15,2.15,0,0,1-1.82.84h-1V147.6h.93a2.18,2.18,0,0,1,1.85.84,4.1,4.1,0,0,1,.63,2.49Z"/><path class="cls-1" d="M77.54,155a2.25,2.25,0,0,1-1.54-.44,1.73,1.73,0,0,1-.47-1.35H72.77a3.57,3.57,0,0,0,.56,2,3.84,3.84,0,0,0,1.7,1.36,6.18,6.18,0,0,0,2.51.5,5,5,0,0,0,3.1-.86,2.79,2.79,0,0,0,1.13-2.35,3.27,3.27,0,0,0-1.85-2.94,10.21,10.21,0,0,0-2-.82,5.66,5.66,0,0,1-1.65-.74,1,1,0,0,1,0-1.62,1.84,1.84,0,0,1,1.16-.33,1.66,1.66,0,0,1,1.16.39,1.38,1.38,0,0,1,.43,1.08h2.74a3.28,3.28,0,0,0-.54-1.86,3.56,3.56,0,0,0-1.52-1.25,5.38,5.38,0,0,0-2.21-.44,6,6,0,0,0-2.27.41,3.53,3.53,0,0,0-1.57,1.13,2.72,2.72,0,0,0-.55,1.67,3.34,3.34,0,0,0,2.22,3,15.29,15.29,0,0,0,1.76.7,5.63,5.63,0,0,1,1.5.69,1.13,1.13,0,0,1,.43,1,1,1,0,0,1-.4.82A1.73,1.73,0,0,1,77.54,155Z"/><polygon class="cls-1" points="82.6 147.6 85.97 147.6 85.97 156.89 88.72 156.89 88.72 147.6 92.15 147.6 92.15 145.47 82.6 145.47 82.6 147.6"/><path class="cls-1" d="M94.42,156.89l.66-2.13h3.78l.66,2.13h3l-4.22-11.42H95.67l-4.19,11.42ZM97,148.67l1.23,4H95.74Z"/><polygon class="cls-1" points="111.34 145.47 101.79 145.47 101.79 147.6 105.16 147.6 105.16 156.89 107.91 156.89 107.91 147.6 111.34 147.6 111.34 145.47"/><polygon class="cls-1" points="120.38 147.6 120.38 145.47 112.5 145.47 112.5 156.89 120.37 156.89 120.37 154.77 115.25 154.77 115.25 152.04 119.58 152.04 119.58 150 115.25 150 115.25 147.6 120.38 147.6"/><path class="cls-1" d="M125.8,147.39a1.66,1.66,0,0,1,1.16.39,1.35,1.35,0,0,1,.43,1.08h2.74a3.28,3.28,0,0,0-.54-1.86,3.56,3.56,0,0,0-1.52-1.25,5.33,5.33,0,0,0-2.2-.44,6.09,6.09,0,0,0-2.28.41,3.5,3.5,0,0,0-1.56,1.13,2.67,2.67,0,0,0-.56,1.67,3.34,3.34,0,0,0,2.22,3,15.29,15.29,0,0,0,1.76.7,5.33,5.33,0,0,1,1.5.69,1.13,1.13,0,0,1,.43,1,1,1,0,0,1-.4.82,1.73,1.73,0,0,1-1.08.3,2.25,2.25,0,0,1-1.54-.44,1.77,1.77,0,0,1-.47-1.35h-2.76a3.57,3.57,0,0,0,.57,2,3.81,3.81,0,0,0,1.69,1.36,6.18,6.18,0,0,0,2.51.5,5,5,0,0,0,3.1-.86,2.76,2.76,0,0,0,1.13-2.35,3.25,3.25,0,0,0-1.85-2.94,10.09,10.09,0,0,0-1.94-.82,5.75,5.75,0,0,1-1.66-.74,1,1,0,0,1-.47-.79,1,1,0,0,1,.43-.83A1.84,1.84,0,0,1,125.8,147.39Z"/></g></g></svg>