<svg xmlns="http://www.w3.org/2000/svg" viewBox="0 0 143.14 173"><defs><style>.cls-1{fill:#4a4a4a;}</style></defs><title>Asset 13</title><g id="Layer_2" data-name="Layer 2"><g id="Layer_1-2" data-name="Layer 1"><polygon class="cls-1" points="49.25 147.6 49.25 145.47 41.61 145.47 41.61 156.9 44.36 156.9 44.36 152.35 48.8 152.35 48.8 150.23 44.36 150.23 44.36 147.6 49.25 147.6"/><path class="cls-1" d="M58.73,150.9a3.75,3.75,0,0,0,.48-2,3.07,3.07,0,0,0-1.14-2.55,5.09,5.09,0,0,0-3.18-.9H50.4V156.9h2.75v-4h1.49l2,4h3v-.12l-2.39-4.61A3.44,3.44,0,0,0,58.73,150.9Zm-2.66-.58a1.54,1.54,0,0,1-1.18.42H53.15v-3.15h1.74a1.56,1.56,0,0,1,1.18.42,1.65,1.65,0,0,1,.4,1.16A1.55,1.55,0,0,1,56.07,150.32Z"/><path class="cls-1" d="M67.36,154.76,68,156.9h3l-4.22-11.43H64.18L60,156.9h2.94l.66-2.14Zm-1.89-6.09,1.23,4H64.25Z"/><polygon class="cls-1" points="78.62 156.9 81.36 156.9 81.36 145.47 78.61 145.47 78.61 152.58 74.57 145.47 71.82 145.47 71.82 156.9 74.57 156.9 74.57 149.79 78.62 156.9"/><path class="cls-1" d="M86.08,148.24a1.63,1.63,0,0,1,1.51-.77,2.17,2.17,0,0,1,1.5.45,2,2,0,0,1,.53,1.5h2.74a4.32,4.32,0,0,0-1.43-3,4.92,4.92,0,0,0-3.34-1.09,4.65,4.65,0,0,0-2.54.69,4.34,4.34,0,0,0-1.69,1.94,6.92,6.92,0,0,0-.58,2.94v.56a6.08,6.08,0,0,0,1.29,4.15,4.53,4.53,0,0,0,3.55,1.46,5.56,5.56,0,0,0,2.43-.5,3.88,3.88,0,0,0,1.65-1.41,4.26,4.26,0,0,0,.64-2.11H89.6a1.91,1.91,0,0,1-.53,1.42,2.12,2.12,0,0,1-1.45.45,1.68,1.68,0,0,1-1.58-.79,5.39,5.39,0,0,1-.46-2.61v-.81A4.85,4.85,0,0,1,86.08,148.24Z"/><polygon class="cls-1" points="101.53 147.6 101.53 145.47 93.64 145.47 93.64 156.9 101.51 156.9 101.51 154.78 96.4 154.78 96.4 152.05 100.73 152.05 100.73 150.01 96.4 150.01 96.4 147.6 101.53 147.6"/><path class="cls-1" d="M142.16,129.69H103L88.29,103.57a1,1,0,0,0,.59-.92V96.47a1,1,0,0,0-1-1H85.28L79.67,76.16h.12a1,1,0,0,0,1-1V72a1,1,0,0,0-1-1H79L75,22.13a1,1,0,0,0,.17-.52v-4a1,1,0,0,0-.49-.85V14.63a1,1,0,0,0-1-1H72.54V1a1,1,0,0,0-2.06,0V13.6H69.41a1,1,0,0,0-1,1v2.11a1,1,0,0,0-.49.85v4a1,1,0,0,0,.24.64L64.29,71h-1a1,1,0,0,0-1,1v3.09a1,1,0,0,0,1,1h.11L57.83,95.44H55.26a1,1,0,0,0-1,1v6.18a1,1,0,0,0,.6.92L40.07,129.69H1a1,1,0,0,0,0,2H142.16a1,1,0,0,0,0-2ZM49.42,117.32h6.8l-2.3,4.82H46.7Zm3.89-6.89H59.5l-2.3,4.83H50.59Zm9.45-2.05,2.24-4.7H78.11l2.24,4.7Zm.76,2.05A17.86,17.86,0,0,0,61,112.15l.82-1.72Zm17.82,0,.71,1.5a17.76,17.76,0,0,0-2.29-1.5Zm5.56,6.89h6.79l2.73,4.82H89.2Zm-1-2.06-2.3-4.83H89.8l2.73,4.83Zm-3.29-6.88-2.24-4.7H86l2.65,4.7Zm4.19-6.76H56.29v-1H86.82Zm-24.1,2.06-2.24,4.7h-6l2.66-4.7Zm-5.27,15.83h0c0-.09,4.57-9.08,14.11-9.08,9.85,0,13.92,8.68,14.09,9h0l4.86,10.19H52.61Zm35.34,10.16-2.61-5.47h7.4l3.09,5.47ZM60.94,92.12h4.54L65,95.32H60ZM62.43,87h3.8l-.45,3H61.54Zm1.48-5.09H67l-.45,3H63Zm5.16,0h5l2,13.39h-9Zm8.57,10.19h4.53l.93,3.2h-5Zm-.31-2.05-.45-3h3.81l.89,3ZM80.09,85H76.58l-.45-3h3.08ZM78.3,74.09h-14v-1H78.76v1H78.3ZM76.91,71h-2l-.09-2.42h1.94ZM69,53.67H67.72l.18-2.23h1.17Zm-1.43,2h1.36L68.85,58H67.39ZM68.78,60l-.07,2.23H67.05L67.22,60Zm-.14,4.29-.08,2.23H66.71l.18-2.23Zm5.5-12.86h1.17l.18,2.23H74.22Zm.47,12.86h1.75l.18,2.23H74.69Zm-.08-2.06L74.45,60H76l.18,2.23ZM74.38,58l-.08-2.24h1.36L75.84,58Zm-.32-8.58L74,47.15h1l.18,2.23Zm-.15-4.29-.72-19.5,1.6,19.5Zm-.83-24.51H70v-2h3.13Zm-3.15,5-.65,19.48H68.4Zm-.72,21.54-.07,2.23H68.06l.18-2.23ZM66.55,68.59h1.94L68.41,71h-2Zm5-30.73L72,50.29a.42.42,0,0,0,0,.12,1,1,0,0,0,0,.17l.15,4.09v0s0,0,0,0l.15,4.09a1.1,1.1,0,0,0,0,.16,1.72,1.72,0,0,0,0,.24L72.8,71H70.47Zm-1.14-22.2h2.15v.9H70.44Zm7.09,60.5,1.08,3.71H64.51l1.08-3.71ZM86.82,97.5v1H56.29v-1ZM45.54,124.2h7.39l-2.6,5.47H42.45Z"/><path class="cls-1" d="M121.87,136.43a1,1,0,0,0-.93-1H22.2a1,1,0,0,0,0,2h98.74A1,1,0,0,0,121.87,136.43Z"/><path class="cls-1" d="M123.81,171H19.33c-.4,0-.73.46-.73,1s.33,1,.73,1H123.81c.4,0,.72-.46.72-1S124.21,171,123.81,171Z"/><path class="cls-1" d="M34.34,166.25c0,.57.31,1,.69,1h73.08c.38,0,.68-.45.68-1s-.3-1-.68-1H35C34.65,165.24,34.34,165.69,34.34,166.25Z"/><path class="cls-1" d="M94.22,41.21h18.09A5.63,5.63,0,0,0,112.65,30a6.57,6.57,0,0,0-11.43-3.61,5,5,0,0,0-2.43-.65,5,5,0,0,0-5,5,3.75,3.75,0,0,0,0,.47,5,5,0,0,0,.42,10Zm0-8a3,3,0,0,1,2.06.81,1,1,0,1,0,1.38-1.48,5.09,5.09,0,0,0-1.79-1.06,3.46,3.46,0,0,1-.09-.72,3,3,0,0,1,3-3,2.81,2.81,0,0,1,1.33.34,6.67,6.67,0,0,0-.47,1.41,1,1,0,0,0,.81,1.19,1,1,0,0,0,1.18-.8,4.55,4.55,0,0,1,9,.34,5.65,5.65,0,0,0-2.53,1.63,1,1,0,0,0,1.52,1.35,3.62,3.62,0,1,1,2.7,6H94.22a3,3,0,0,1,0-6Z"/><path class="cls-1" d="M34.57,57.91H44.82a4.39,4.39,0,1,0,0-8.77h0a6,6,0,0,0-11.6-.8,4.88,4.88,0,0,0,1.37,9.57Zm0-7.76a2.84,2.84,0,0,1,1.79.62,1,1,0,0,0,1.42-.15,1,1,0,0,0-.15-1.43,5,5,0,0,0-2.14-1,4,4,0,0,1,7.33,1.41,4.59,4.59,0,0,0-.66.42,1,1,0,1,0,1.23,1.61,2.36,2.36,0,1,1,1.43,4.23H34.57a2.87,2.87,0,1,1,0-5.73Z"/><path class="cls-1" d="M106.89,78.72a5.14,5.14,0,0,0-5,3.91,3.74,3.74,0,0,0,.13,7.47h8.31a4.14,4.14,0,0,0,1.25-8.1A5.06,5.06,0,0,0,106.89,78.72ZM112.51,86a2.14,2.14,0,0,1-2.13,2.13h-8.31a1.72,1.72,0,0,1,0-3.44,1.67,1.67,0,0,1,1,.35,1,1,0,0,0,1.24-1.6,4.17,4.17,0,0,0-.44-.29,3.09,3.09,0,0,1,3-2.35,3.05,3.05,0,0,1,2.42,1.2,4,4,0,0,0-1.53.75,1,1,0,1,0,1.27,1.58A2.14,2.14,0,0,1,112.51,86Z"/></g></g></svg>