<svg xmlns="http://www.w3.org/2000/svg" viewBox="0 0 143.14 173"><defs><style>.cls-1{fill:#4a4a4a;}</style></defs><title>Asset 9</title><g id="Layer_2" data-name="Layer 2"><g id="Layer_1-2" data-name="Layer 1"><path class="cls-1" d="M52.56,156.5A3.44,3.44,0,0,0,54,155.17a3.79,3.79,0,0,0,.5-1.94v-7.84H51.74v7.84a2.09,2.09,0,0,1-.31,1.2,1.23,1.23,0,0,1-1.79.07,1.89,1.89,0,0,1-.27-1.14H46.61a3.43,3.43,0,0,0,1,2.67,4.15,4.15,0,0,0,2.9.94A4.33,4.33,0,0,0,52.56,156.5Z"/><path class="cls-1" d="M62.53,154.68l.67,2.13h3l-4.22-11.42H59.35l-4.19,11.42H58.1l.66-2.13Zm-1.89-6.09,1.23,4H59.42Z"/><path class="cls-1" d="M73.86,145.87a5.3,5.3,0,0,0-2.31-.48H67v11.42h2.75v-3.87H71.5a4.94,4.94,0,0,0,3.28-1,3.31,3.31,0,0,0,1.2-2.67,3.72,3.72,0,0,0-.56-2A3.62,3.62,0,0,0,73.86,145.87Zm-1.1,4.54a1.67,1.67,0,0,1-1.21.4H69.74v-3.29h1.84a1.52,1.52,0,0,1,1.17.48,1.84,1.84,0,0,1,.43,1.28A1.47,1.47,0,0,1,72.76,150.41Z"/><path class="cls-1" d="M78.76,154.68h3.77l.67,2.13h3l-4.22-11.42H79.35l-4.19,11.42H78.1Zm1.88-6.09,1.24,4H79.42Z"/><polygon class="cls-1" points="93.79 156.81 96.53 156.81 96.53 145.39 93.78 145.39 93.78 152.5 89.74 145.39 86.99 145.39 86.99 156.81 89.74 156.81 89.74 149.71 93.79 156.81"/><path class="cls-1" d="M121.87,136.43a1,1,0,0,0-.93-1H22.2a1,1,0,0,0,0,2h98.74A1,1,0,0,0,121.87,136.43Z"/><path class="cls-1" d="M123.81,171H19.33c-.4,0-.73.46-.73,1s.33,1,.73,1H123.81c.4,0,.72-.46.72-1S124.21,171,123.81,171Z"/><path class="cls-1" d="M34.34,166.25c0,.57.31,1,.69,1h73.08c.38,0,.68-.45.68-1s-.3-1-.68-1H35C34.65,165.24,34.34,165.69,34.34,166.25Z"/><path class="cls-1" d="M142.16,129.69H109a62.74,62.74,0,0,0,22.58-60.16,61.61,61.61,0,0,0-22.92-38.34A61.69,61.69,0,0,0,72,17.63c-1,0-2-.16-3-.28l-1.28-.15a1.12,1.12,0,0,1-.34-.11,1.52,1.52,0,0,1-.86-1.7A1.7,1.7,0,0,1,68.06,14h3.49a2.58,2.58,0,0,0,2.52-1.63A2.49,2.49,0,0,0,73.84,10a2.73,2.73,0,0,0-2.27-1.16c-1.63,0-3.28,0-4.89,0H64.06V8c0-1.1,0-2.17,0-3.23a.44.44,0,0,1,.19-.27A1.39,1.39,0,0,0,65,3.26V2.77c0-.44,0-.88,0-1.32A1.34,1.34,0,0,0,63.54,0h-.21c-.66,0-1.35,0-2,0a1.77,1.77,0,0,0-1,.36c-.47.4-.56,1.75-.49,2.5,0,.52.16,1.18.52,1.39s.48.63.48,1.1V8.83H51.43A4.39,4.39,0,0,0,50.24,9a2.53,2.53,0,0,0-1.79,2.66A2.55,2.55,0,0,0,51,14c.63,0,1.27,0,1.9,0h1.24a1.6,1.6,0,0,1,1.57,1.2,1.58,1.58,0,0,1-.26,1.39,1.8,1.8,0,0,1-1.43.67H44.76A2.62,2.62,0,0,0,42,19.77a2.41,2.41,0,0,0,.69,1.76,3,3,0,0,0,2.13.84h.54c-.4.2-.81.38-1.2.56l-.36.16c-.74.33-1.53.7-2.29,1.08a63.6,63.6,0,0,0-24.87,22.3c-.23.35-.37.49-.7.45a1.54,1.54,0,0,0-1.64.9,1.73,1.73,0,0,0,.17,1.86.42.42,0,0,1,0,.31c-.47,1.15-1,2.07-2.38,1.71a.19.19,0,0,0-.13,0,1.65,1.65,0,0,0-1.58,1.52A1.69,1.69,0,0,0,11.62,55l.27.07a63.06,63.06,0,0,0-3,42.44,61.87,61.87,0,0,0,21.24,32.15H1a1,1,0,0,0,0,2H142.16a1,1,0,0,0,0-2ZM64.24,10H65c2.18,0,4.44,0,6.66,0a1.36,1.36,0,0,1,0,2.72c-.73,0-1.47,0-2.19,0H68.19a3,3,0,0,0-2.94,2.91,2.69,2.69,0,0,0,2.6,2.73h.89A1.38,1.38,0,0,1,70,19.74a1.29,1.29,0,0,1-1.18,1.4c-.92,0-1.86,0-2.77,0H65a3.45,3.45,0,0,1,0-.73,1.69,1.69,0,0,0-.59-1.67,3.58,3.58,0,0,0,.67-2.33,3,3,0,0,0-.7-1.88A1.7,1.7,0,0,0,65,12.87c0-.38,0-.79,0-1.25a1.4,1.4,0,0,0-.78-1.43.48.48,0,0,1-.06-.11Zm2.85,36.43c.79,0,1.29.42,1.3,1.08a1,1,0,0,1-.3.78,1.34,1.34,0,0,1-1,.37H57.73a1.15,1.15,0,0,1-1.27-1.12,1,1,0,0,1,.3-.75,1.34,1.34,0,0,1,1-.36h9.37Zm-2.33-1.23V37.27a.8.8,0,0,1,.63.15.78.78,0,0,1,.25.62c0,1.83,0,3.65,0,5.48v1.7Zm3.91,27.64.22.1a2.32,2.32,0,0,0,.56.21,2.61,2.61,0,0,0,.63,0h0l-.15.38-.56,1.33-.63,1.44c-.44,1-.89,2.06-1.31,3.1a.6.6,0,0,1-.65.44c-3.18,0-6.08,0-8.85,0-.39,0-.43-.16-.55-.51l-.06-.18h6a.93.93,0,0,1,.23,0,.76.76,0,0,0,1-.42l.09-.22-.23-.06c-.1,0-.2-.06-.3-.09a2.88,2.88,0,0,0-.72-.15H57.82c-.9,0-1,0-1.16-.84H62.1a1.08,1.08,0,0,0,.5-.18l.16-.09.45-.21-.46-.17-.18-.08a1.29,1.29,0,0,0-.49-.16l-3.77,0H57.08c-.86,0-.94,0-1.16-.82h.45l10.87,0h.09a.76.76,0,0,0,.33,0,.66.66,0,0,0,.26-.18l.07-.06.17-.14L68,75.09,67.94,75a.5.5,0,0,0-.31-.24,4.29,4.29,0,0,0-.71,0H65.43l-9.57,0c-.3,0-.4-.06-.47-.29s-.26-.68-.41-1l-.09-.23.44,0H63a.35.35,0,0,0,.22,0l.4-.19.51-.25-.36-.19-.15-.09a.92.92,0,0,0-.46-.2c-1.07,0-2.15,0-3.12,0H54.68v-.65H70.32v.66h-.1a6.66,6.66,0,0,0-.77,0,2,2,0,0,0-.55.17l-.21.08-.51.18ZM56.84,104.74a2,2,0,0,0-2,1.89,1.69,1.69,0,0,0,.47,1.24,2.14,2.14,0,0,0,1.51.6c.57,0,.7.21.73.53a.36.36,0,0,1-.1.3.86.86,0,0,1-.65.22H43.47c-.27,0-.72-.09-.72-.52s.44-.53.7-.53h4.66a5.94,5.94,0,0,0,.72,0,1.87,1.87,0,0,0,1.74-1.89,1.84,1.84,0,0,0-1.89-1.81H47.05a.56.56,0,0,1-.62-.53.39.39,0,0,1,.11-.3.66.66,0,0,1,.52-.22H58.61a.71.71,0,0,1,.5.15.53.53,0,0,1,.12.37c0,.34-.2.51-.59.52h-1.8Zm.53,1.2-.1,1.34H57c-.45,0-.72,0-.89-.28a1,1,0,0,1,0-.74.7.7,0,0,1,.72-.34h.5Zm-1.1-3.48a2,2,0,0,1,0-.25l.35-4.75.69-9.4c.1-1.51.19-3,.28-4.52l.11-1.84c0-.12,0-.22,0-.31s0-.3,0-.32a1.29,1.29,0,0,1,.43,0H59l-1.33,21.42Zm2.11-32.18.69-18.68c.48-.06.82-.09.91,0a2.31,2.31,0,0,1,.06.94l-.21,7.07c-.08,2.5-.15,5-.23,7.49,0,.76-.06,1.52-.1,2.29l0,.9Zm2,0L61,51.59a1.92,1.92,0,0,1,.89,0,2.06,2.06,0,0,1,.1.94V70.28Zm2.52,0V51.58c.46,0,.8-.06.89,0s.1.42.12.94c.12,4.15.26,8.29.39,12.43l.16,5.07v.23Zm2.46,0-.6-18.69H65a3.07,3.07,0,0,1,.69,0,.61.61,0,0,1,.17.31c0,.76.05,1.53.08,2.29,0,.6,0,1.2,0,1.8.12,3.19.25,6.38.37,9.58l.18,4.48v.21ZM63.6,50.41H57c-.44,0-.49,0-.49-.24a.3.3,0,0,1,.06-.21,1,1,0,0,1,.52-.09h11a1,1,0,0,1,.29.28.45.45,0,0,1-.24.23,2.57,2.57,0,0,1-.69,0H63.6Zm-4.43-5.9V41.67c0-1.16,0-2.33,0-3.5a1,1,0,0,1,.27-.74.91.91,0,0,1,.67-.17v8h-1Zm4.64-22.86a.38.38,0,0,1-.07.27.43.43,0,0,1-.31.08H61.79a1.74,1.74,0,0,1-.68-.05,1.92,1.92,0,0,1-.06-.81v-.43a1.94,1.94,0,0,1,.09-.89c.09-.09.42-.09.92-.09H63.5a.41.41,0,0,1,.25.06.35.35,0,0,1,.06.24v1.62Zm-1,1.51v1.71l-.25,0a3.53,3.53,0,0,1-.52-.05,4.31,4.31,0,0,1,0-1.56c.12,0,.36,0,.53-.06Zm-1.77,5v-.54c0-.34,0-.68,0-1v-.3c0-.22.08-.3.31-.3h2.11c.14,0,.22,0,.26.07a.39.39,0,0,1,.07.28c0,.26,0,.53,0,.8v.34c0,.27,0,.5,0,.7a1.61,1.61,0,0,1-.05.69,2.18,2.18,0,0,1-.89.07H61.8a1.69,1.69,0,0,1-.7,0A1.82,1.82,0,0,1,61.05,28.2Zm2.67,9.07v8h-.78v-8ZM62,35.56V30.75a1.78,1.78,0,0,1,0-.56,1.47,1.47,0,0,1,.55,0l.27,0V36H62C62,35.84,62,35.7,62,35.56Zm0,9.66-.86,0v-8l0,0a1.87,1.87,0,0,1,.73,0A2,2,0,0,1,62,38Zm1.82-27.83a.44.44,0,0,1-.06.31.41.41,0,0,1-.33.08c-.68,0-1.36,0-2,0a.37.37,0,0,1-.26-.06.38.38,0,0,1-.07-.27v-.14c0-.49,0-1,0-1.49a.39.39,0,0,1,.07-.26.41.41,0,0,1,.23-.06H63a1.7,1.7,0,0,1,.71.05,1.87,1.87,0,0,1,.06.8v1Zm0-5.34v1.16a.35.35,0,0,1-.07.28.33.33,0,0,1-.25.07h-2c-.14,0-.28,0-.34-.06a.44.44,0,0,1-.06-.26v-.06c0-.52,0-1,0-1.56a.33.33,0,0,1,.07-.27.33.33,0,0,1,.23-.06h1.72a1.8,1.8,0,0,1,.68,0A1.69,1.69,0,0,1,63.81,12.05Zm-1.79-2V4.72h.8v5.35Zm-1-7.43V1.86c0-.11,0-.22,0-.33a.38.38,0,0,1,.06-.25.37.37,0,0,1,.26-.07h0c.7,0,1.4,0,2.11,0a.39.39,0,0,1,.24.06.35.35,0,0,1,.06.24V3.13a.35.35,0,0,1-.07.28.37.37,0,0,1-.25.07H61.81a1.84,1.84,0,0,1-.7,0A1.83,1.83,0,0,1,61.05,2.64ZM44.73,21.18a1.69,1.69,0,0,1-1.24-.45,1.24,1.24,0,0,1-.35-.93c0-.85.63-1.37,1.61-1.37h9.09a2.84,2.84,0,0,0,2.31-4.74,3,3,0,0,0-2.12-.9c-1,0-2.09,0-3.13,0a1.23,1.23,0,0,1-1.16-.82,1.14,1.14,0,0,1,.19-1.34A1.93,1.93,0,0,1,51,10c2.55,0,5.14,0,7.64,0h2.09a.78.78,0,0,1-.18.21,1.37,1.37,0,0,0-.71,1.27v.32c0,.34,0,.7,0,1a1.79,1.79,0,0,0,.63,1.68,3.05,3.05,0,0,0-.69,2.07,3.06,3.06,0,0,0,.68,2.11c-.46.44-.49.69-.64,2.43h0l-.41,0ZM11.57,53.3c0-.39.42-.43.6-.43h.75c1.5,0,3,0,4.49,0A1.86,1.86,0,0,0,19,49.91a1.89,1.89,0,0,0-1.46-.77c-.32,0-.65,0-1,0H16c-.36,0-.8-.09-.81-.49a.41.41,0,0,1,.12-.34.91.91,0,0,1,.67-.22H27.34a.79.79,0,0,1,.59.2.45.45,0,0,1,.11.32c0,.24-.1.52-.65.53h-.75c-.36,0-.71,0-1.06,0a2.05,2.05,0,0,0-1.7,1,1.77,1.77,0,0,0-.13,1.67,1.86,1.86,0,0,0,2,1.11.65.65,0,0,1,.45.14.49.49,0,0,1,.13.36c0,.13,0,.51-.57.54H12.25a.9.9,0,0,1-.3,0A1.1,1.1,0,0,1,11.57,53.3Zm4-1.63.09-.16c.21-.39.4-.74.61-1.08a.41.41,0,0,1,.22-.1,7.35,7.35,0,0,1,1.05,0,.63.63,0,0,1,.67.64.59.59,0,0,1-.14.46.69.69,0,0,1-.5.23c-.5,0-1,0-1.56,0Zm17.43,78A61.29,61.29,0,0,1,13.65,55.47c.13-.3.26-.38.62-.38H25.59a1.73,1.73,0,0,0,1.87-1.34,1.7,1.7,0,0,0-1.42-2,2.17,2.17,0,0,0-.36,0h-.2c-.44,0-.65-.21-.67-.6a.73.73,0,0,1,.17-.52.75.75,0,0,1,.51-.22c.35,0,.7,0,1.06,0h1A1.67,1.67,0,0,0,29.19,49a1.65,1.65,0,0,0-1-1.9,2.61,2.61,0,0,0-.95-.14H18.34l.76-1.07c.61-.86,1.25-1.75,1.91-2.6A61.43,61.43,0,0,1,49.93,22.52a2.62,2.62,0,0,1,.88-.15h8.72a1.54,1.54,0,0,1,1.29,1.32,2.09,2.09,0,0,1,0,.25c0,.18,0,.37,0,.55a.59.59,0,0,1-.32.63,1.67,1.67,0,0,0-.61,1.09,14.36,14.36,0,0,0,0,2.63,1.89,1.89,0,0,0,.42.85l.2.27a1.2,1.2,0,0,0,.17.21l.11.1c0,1.57,0,3.15,0,4.76v1h-.66A2,2,0,0,0,58,38.15c0,1.5,0,3,0,4.49v2.59a2.46,2.46,0,0,0-2.36,1.13A2.29,2.29,0,0,0,55.78,49l-.15.19a1.38,1.38,0,0,0-.19,1.57,1.32,1.32,0,0,0,1.29.8h1.06c0,.28,0,.56,0,.83,0,.72,0,1.4,0,2.08q-.24,6.35-.49,12.68l-.1,2.54c0,.61,0,.61-.65.61H53.46v.22c0,.3,0,.6,0,.89a5.35,5.35,0,0,0,.34,2.39c.74,1.67,1.43,3.39,2.1,5.07l.52,1.32a1.68,1.68,0,0,1,.14.78q-.69,10.07-1.4,20.12l-.06.89c0,.14,0,.28,0,.43v.1H47a1.64,1.64,0,0,0-1.69,1.31,1.69,1.69,0,0,0,1,1.93,2.59,2.59,0,0,0,.82.16c.3,0,.6,0,.9,0h.44a1.09,1.09,0,0,1,.8.25.52.52,0,0,1,.15.43c0,.44-.32.67-.93.67H43.4a1.7,1.7,0,0,0-1.74,1.16,1.73,1.73,0,0,0,.18,1.49,1.68,1.68,0,0,0,1.28.74c.24,0,.49,0,.73,0H54.43l-1.69,19Zm20.93,0,.34-3.78q.66-7.45,1.31-14.9c0-.32.08-.35.31-.33s.58,0,.9,0H57l-.1,1.22c-.07,1-.14,2-.23,3q-.61,7.23-1.25,14.47l0,.28Zm2.42,0c.08-.94.17-1.87.25-2.79q.49-6,1-12l.29-3.46a2.26,2.26,0,0,1,.51-1.56,1.58,1.58,0,0,0,.15-1.58,2.83,2.83,0,0,1-.27-1.91l0-.21a2.13,2.13,0,0,1,0-.25c1.44-.31,2.17-.69,2.14-1.81,0-.94-.57-1.43-1.87-1.69L59.9,81.08h1.39v.41L61,88.81q-.31,9.15-.66,18.29c-.18,4.58-.39,9.23-.59,13.73L59.6,125c-.08,1.64-.15,3.18-.23,4.68Zm4,0,1.95-48.6h.28l2,48.6Zm5.09,0-2-48.64h.31c.42,0,.79,0,1.1,0a.56.56,0,0,1,.13.29c.08,1.28.16,2.55.23,3.82.08,1.45.17,2.9.26,4.35l.14,2.15c.32,4.83.64,9.82,1,14.72s.77,9.94,1.17,14.78l.23,2.79c.13,1.65.28,3.29.43,4.93,0,.27.05.53.07.8Zm4,0c-1.53-17.21-2.69-33.15-3.53-48.6h1l3.9,48.6Zm4.12-47.33a2.64,2.64,0,0,0-1.12-.27c-.39,0-.79,0-1.17,0s-.51,0-.76,0c-.56,0-.92-.32-.92-.78a.81.81,0,0,1,.92-.79q7,0,14.07,0c.62,0,1,.29,1,.78s-.39.78-1,.79H83.36c-.31,0-.61,0-.92,0a2.19,2.19,0,0,0-2.29,2.16,2.08,2.08,0,0,0,2.22,2.12h.14a1.23,1.23,0,0,1,.34,0,.72.72,0,0,1,.6.81.69.69,0,0,1-.65.69,7.31,7.31,0,0,1-.94,0H68.74l-.07-1.55h0l.42,0h1.15c.81,0,1.64,0,2.47,0a2.12,2.12,0,0,0,.85-4ZM72.1,129.69,68.74,89.1H82.61a2,2,0,0,0,1.7-.83,2,2,0,0,0,.23-1.77,1.85,1.85,0,0,0-1.65-1.29H82.4c-.66,0-1.06-.37-1.07-.89a1.05,1.05,0,0,1,1-1.06H83.6c.44,0,.88,0,1.31,0a1.92,1.92,0,0,0,1.36-.61,2,2,0,0,0,.49-1.45,1.91,1.91,0,0,0-1.93-1.84H70.49a1.93,1.93,0,0,0-1.85,1.09,1.71,1.71,0,0,0,.26,2.09,2.8,2.8,0,0,0,1.45.71,6.91,6.91,0,0,0,1.36,0l.66,0c.69,0,1.11.37,1.12,1s-.4,1-1.09,1H68.85a.39.39,0,0,1-.26,0,.35.35,0,0,1,0-.22,8.45,8.45,0,0,0-.1-1.47,8.84,8.84,0,0,1,1-5.82,19.63,19.63,0,0,0,.81-1.83c.24-.58.48-1.19.77-1.75a6.49,6.49,0,0,0,.48-3.54v-.2H67.67L67,51.6h.13c.21,0,.4,0,.59,0a1.63,1.63,0,0,0,1.74-.79A1.55,1.55,0,0,0,69.09,49a2.74,2.74,0,0,0,.27-2.52,3.07,3.07,0,0,0-2.46-1.29v0c0-.15,0-.31,0-.46l0-6.2c0-1.78-.7-2.48-2.49-2.5l-.3,0V34.74c0-1.23,0-2.45,0-3.67,0-.09,0-.17,0-.26,0-.51,0-.81.46-1s.46-1,.46-1a19.37,19.37,0,0,0,0-2.55,1.56,1.56,0,0,0-.58-1.11.63.63,0,0,1-.33-.69v-.08a1.3,1.3,0,0,0,0-.48c-.16-.48,0-.69.45-1a2.51,2.51,0,0,0,.45-.47.85.85,0,0,1,.16,0h3a3.2,3.2,0,0,0,2.39-.76,3.13,3.13,0,0,0,.7-2.3l.64,0c.63,0,1.25.05,1.87.09A60.12,60.12,0,0,1,95.39,25c16.25,7.83,27.24,20.38,32.65,37.3A61.09,61.09,0,0,1,116,120.66a61.77,61.77,0,0,1-9.75,9Z"/><path class="cls-1" d="M114.16,35.14h18a2.07,2.07,0,0,0,2.13-2,2,2,0,0,0-2-2.12H132a2.52,2.52,0,0,1-.48,0,1,1,0,0,1-.66-.45,1,1,0,0,1-.1-.83,1.18,1.18,0,0,1,1.21-.87h2.4a2.29,2.29,0,0,0,1.67-.64,1.93,1.93,0,0,0,.56-1.45,2.07,2.07,0,0,0-2.23-2H119.13a2.4,2.4,0,0,0-1.74.66,2,2,0,0,0-.56,1.46,2.08,2.08,0,0,0,2.26,2h1.69c.69,0,1.52.19,1.55,1.09a1,1,0,0,1-.25.71,1.79,1.79,0,0,1-1.31.41h-6.62a2.22,2.22,0,0,0-1.73.75,2.09,2.09,0,0,0,1.74,3.41Zm0-3h6.42l.86,0a2.26,2.26,0,0,0,0-4.5c-.44,0-.89,0-1.32,0s-.69,0-1,0a1.05,1.05,0,0,1-.77-.32.85.85,0,0,1-.22-.62.93.93,0,0,1,1-.85h15c1.36,0,1.37.64,1.37.85a.78.78,0,0,1-.21.58,1.65,1.65,0,0,1-1.17.35h-2.11a2.34,2.34,0,0,0-2.4,2.36,2.22,2.22,0,0,0,2.41,2.18,2.27,2.27,0,0,1,.53,0,.82.82,0,0,1,.62.92.78.78,0,0,1-.72.78,3.23,3.23,0,0,1-.63,0H114.16a.92.92,0,0,1-1-.83A.94.94,0,0,1,114.12,32.17Z"/></g></g></svg>