<?xml version="1.0" encoding="utf-8"?>
<!-- Generator: Adobe Illustrator 22.1.0, SVG Export Plug-In . SVG Version: 6.00 Build 0)  -->
<svg version="1.1" id="Layer_1" xmlns="http://www.w3.org/2000/svg" xmlns:xlink="http://www.w3.org/1999/xlink" x="0px" y="0px"
	 viewBox="0 0 240 47.3" style="enable-background:new 0 0 240 47.3;" xml:space="preserve">
<style type="text/css">
	.st0{fill:#F4436C;}
	.st1{fill:#111C4E;}
</style>
<title>Asset 1</title>
<g>
	<g>
		<path class="st0" d="M67.1,16.6c-0.9-0.9-2-1.3-3.1-1.3h-9.9v15.4c-0.1,0.8,0.4,1.3,1.2,1.4c0.8,0.1,1.3-0.4,1.4-1.2
			c0-0.1,0-0.1,0-0.2v-5.8H64c0.5,0,1.2-0.1,1.7-0.3c0.5-0.2,1-0.5,1.4-0.9c0.3-0.3,0.7-0.9,0.9-1.4c0.3-0.5,0.3-1.1,0.3-1.6v-0.9
			c0-0.5-0.1-1.2-0.3-1.6C67.9,17.6,67.5,17.1,67.1,16.6z M65.8,20.5c0,1-0.9,1.7-1.7,1.7h-7.3v-4.5H64c0.4,0,0.9,0.2,1.3,0.5
			c0.3,0.3,0.5,0.9,0.5,1.3V20.5z"/>
		<path class="st0" d="M90.1,16.9c-0.4-0.4-1-0.9-1.5-1.1c-0.7-0.3-1.3-0.3-2-0.3h-6.5c-1.3,0-2.6,0.5-3.5,1.5
			c-0.9,0.9-1.5,2.2-1.5,3.5V27c0,0.7,0.1,1.4,0.3,2c0.3,0.5,0.7,1.1,1.1,1.5s1,0.9,1.5,1.1c0.7,0.3,1.3,0.3,2,0.3h6.5
			c0.7,0,1.3-0.1,2-0.3c1.2-0.4,2.1-1.5,2.7-2.7c0.3-0.7,0.3-1.3,0.3-2v-6.5C91.5,19.2,91.1,17.9,90.1,16.9L90.1,16.9z M88.9,27.1
			c0,0.3-0.1,0.7-0.2,0.9c-0.3,0.5-0.8,1-1.3,1.3c-0.3,0.1-0.7,0.2-0.9,0.2H80c-0.3,0-0.7-0.1-0.9-0.2C78.6,29,78,28.5,77.8,28
			c-0.1-0.3-0.2-0.7-0.2-0.9v-6.5c0-0.3,0.1-0.7,0.2-0.9c0.3-0.5,0.8-1,1.3-1.3c0.3-0.1,0.7-0.2,0.9-0.2h6.5c0.3,0,0.7,0.1,0.9,0.2
			c0.5,0.3,1,0.8,1.3,1.3c0.1,0.3,0.2,0.7,0.2,0.9V27.1z"/>
		<path class="st0" d="M111.2,16.6c-0.9-0.9-2-1.3-3.2-1.3h-9.9v15.4c0,0.8,0.5,1.3,1.3,1.3c0.8,0,1.3-0.5,1.3-1.3v-5.8h7.3
			c0.5,0,1.2-0.1,1.7-0.3c0.5-0.2,1-0.5,1.4-0.9c0.3-0.3,0.8-0.9,0.9-1.4c0.3-0.5,0.3-1.1,0.3-1.6v-0.9c0-0.5-0.1-1.2-0.3-1.7
			C111.9,17.6,111.6,16.9,111.2,16.6z M109.9,20.5c0,0.4-0.2,0.9-0.5,1.3c-0.3,0.3-0.9,0.5-1.3,0.5h-7.2v-4.4h7.2
			c0.4,0,0.9,0.2,1.3,0.5c0.3,0.3,0.5,0.9,0.5,1.3V20.5z"/>
		<path class="st0" d="M134.4,15.7L134.4,15.7c-0.8,0-1.3,0.5-1.3,1.3l0,0v10c0,0.7-0.3,1.3-0.8,1.7c-0.4,0.4-1.1,0.8-1.7,0.8h-6.5
			c-1.3-0.1-2.4-1.1-2.4-2.5V17c0-0.8-0.5-1.3-1.3-1.3c-0.8,0-1.3,0.5-1.3,1.3v10c0,0.7,0.1,1.3,0.3,2c0.3,0.5,0.7,1.1,1.1,1.5
			c0.9,0.9,2.2,1.5,3.5,1.5h6.5c0.7,0,1.3-0.1,2-0.3c0.7-0.3,1.1-0.7,1.5-1.1c0.4-0.4,0.9-1,1.1-1.5c0.3-0.7,0.3-1.3,0.3-2v-10
			C135.6,16.3,135.1,15.7,134.4,15.7z"/>
		<path class="st0" d="M153.9,29.4h-7.2c-0.4,0-0.9-0.2-1.3-0.5c-0.3-0.3-0.5-0.9-0.5-1.3V17.4c0-0.8-0.5-1.3-1.3-1.3
			c-0.8,0-1.3,0.5-1.3,1.3v10.1c0,0.5,0.1,1.2,0.3,1.7c0.2,0.5,0.5,1,0.9,1.4c0.3,0.3,0.9,0.8,1.4,0.9c0.5,0.3,1.1,0.3,1.7,0.3h7.2
			c0.8,0,1.3-0.5,1.3-1.3C155.2,29.9,154.6,29.4,153.9,29.4L153.9,29.4z"/>
		<path class="st0" d="M175.9,23.6c-0.3-0.3-0.9-0.8-1.5-0.9c-0.5-0.2-1.1-0.3-1.7-0.3h-7.8c-0.4,0-0.9-0.2-1.3-0.5
			c-0.3-0.3-0.5-0.9-0.5-1.3v-0.9c0-0.4,0.2-0.9,0.5-1.3c0.3-0.3,0.9-0.5,1.3-0.5h9.6c0.8,0.1,1.3-0.4,1.4-1.2
			c0.1-0.8-0.4-1.3-1.2-1.4c-0.1,0-0.1,0-0.2,0h-9.6c-0.5,0-1.2,0.1-1.7,0.3c-0.5,0.2-1,0.5-1.4,0.9c-0.3,0.3-0.8,0.9-0.9,1.4
			c-0.3,0.5-0.3,1.1-0.3,1.7v0.9c0,0.5,0.1,1.2,0.3,1.6c0.2,0.5,0.5,1,0.9,1.4c0.3,0.3,0.9,0.8,1.4,0.9c0.5,0.3,1.1,0.3,1.7,0.3h7.7
			c1,0,1.9,0.8,1.9,1.7l0,0v0.9c0,0.4-0.2,0.9-0.5,1.3c-0.3,0.3-0.9,0.5-1.3,0.5h-9.6c-0.8,0-1.3,0.5-1.3,1.3s0.5,1.3,1.3,1.3h9.6
			c0.5,0,1.2-0.1,1.7-0.3c0.5-0.2,1-0.5,1.4-0.9c0.3-0.3,0.8-0.9,0.9-1.4c0.2-0.5,0.3-1.1,0.3-1.6v-0.8
			C177.2,25.6,176.8,24.5,175.9,23.6L175.9,23.6z"/>
		<path class="st0" d="M195.5,15.3H184c-0.8,0.1-1.2,0.7-1.2,1.4c0.1,0.7,0.5,1.1,1.2,1.2h4.5v12.9c-0.1,0.8,0.4,1.3,1.2,1.4
			c0.8,0.1,1.3-0.4,1.4-1.2c0-0.1,0-0.1,0-0.2V17.9h4.5c0.8-0.1,1.2-0.7,1.2-1.4C196.6,15.9,196.2,15.4,195.5,15.3L195.5,15.3z"/>
		<circle class="st0" cx="209.5" cy="25.6" r="2.1"/>
		<path class="st0" d="M238.9,15.5L238.9,15.5c-0.8,0-1.3,0.5-1.3,1.3l0,0v4.7c0,0.7-0.3,1.3-0.8,1.7c-0.4,0.4-1.1,0.8-1.7,0.8h-6.5
			c-0.7,0-1.3-0.3-1.7-0.8c-0.4-0.5-0.8-1.1-0.8-1.7v-4.7c0-0.8-0.5-1.3-1.3-1.3c-0.8,0-1.3,0.5-1.3,1.3v4.7c0,0.7,0.1,1.4,0.3,2
			c0.3,0.7,0.7,1.1,1.1,1.5c0.4,0.4,1,0.9,1.5,1.1c0.7,0.3,1.3,0.3,2,0.3h2v4.1c0.1,0.8,0.7,1.3,1.4,1.2c0.7-0.1,1.1-0.5,1.2-1.2
			v-4.1h2c0.7,0,1.3-0.1,2-0.3c0.7-0.3,1.1-0.7,1.5-1.1c0.4-0.4,0.9-1,1.1-1.5c0.3-0.7,0.3-1.3,0.3-2v-4.7
			C240.2,16.1,239.6,15.5,238.9,15.5z"/>
		<path class="st0" d="M213.8,17.8c-0.8-1.6-2.4-2.7-4.3-2.7l0,0c-1.9,0-3.5,1.1-4.3,2.7l-5.3,12.4c-0.3,0.7,0,1.4,0.7,1.6
			c0.7,0.3,1.4,0,1.6-0.7l0,0l5.3-12.3c0.3-0.8,1-1.2,1.9-1.2l0,0c0.9,0,1.5,0.4,1.9,1.2l5.3,12.3c0.3,0.7,1,1,1.7,0.7
			c0.7-0.3,1-1,0.7-1.7l0,0L213.8,17.8z"/>
	</g>
	<g>
		<circle class="st1" cx="20.3" cy="20.3" r="5"/>
		<path class="st1" d="M40.5,19.4c-0.1-2.6-0.7-5.2-1.9-7.7c-1.2-2.5-2.8-4.6-4.7-6.4c0.3,0.5,0.6,1.1,0.9,1.6
			c0.9,1.9,1.4,3.8,1.6,5.8c0.7,7.2-3.2,14.4-10.1,17.6c-0.7,0.3-1.4,0.6-2.2,0.8c-0.8,0.3-1.6,0.5-2.4,0.6c0,0,0,0,0,0
			c-0.5,0.1-1,0.1-1.5,0.2l3.8,8.2c0,0,0,0,0,0l1.2,2.7c-0.2,0.4-0.2,0.9,0,1.3c0.3,0.7,1.2,1,1.9,0.7c0.7-0.3,1-1.2,0.7-1.9
			c-0.2-0.5-0.8-0.8-1.3-0.8l-1-2.2c1.1-0.3,2.2-0.7,3.3-1.2C36.5,35.1,40.9,27.4,40.5,19.4z"/>
		<path class="st0" d="M36.4,12.8c-0.2-2-0.7-3.9-1.6-5.8c-0.3-0.6-0.6-1.1-0.9-1.6c-5.9-5.4-14.6-7-22.2-3.4
			c-5,2.3-8.6,6.4-10.4,11.2C-0.5,18-0.5,23.7,1.9,28.8c2.4,5.2,6.7,8.9,11.7,10.6c-2.4-1.7-4.4-4-5.7-6.9c-0.9-1.9-1.4-3.8-1.6-5.8
			c-0.6-6,2-11.9,6.8-15.6l0,0c0.7-0.5,1.4-1,2.2-1.4c5.8-2.7,12.7-0.2,15.4,5.6c2.7,5.8,0.2,12.7-5.6,15.4c-0.3,0.2-0.7,0.3-1,0.4
			c0.7-0.2,1.5-0.5,2.2-0.8C33.2,27.1,37.1,20,36.4,12.8z"/>
		<path class="st1" d="M20,45.2c-0.2-0.5-0.7-0.8-1.2-0.8l-1.9-4.2c0,0,0,0,0,0l-4.4-9.5l-2.6-5.6c-2.3-5-0.8-10.8,3.4-14l0,0
			c-4.8,3.7-7.4,9.6-6.8,15.6c0.2,2,0.7,3.9,1.6,5.8c1.3,2.9,3.3,5.2,5.7,6.9c0.4,0.2,0.9,0.3,1.4,0.4l2.4,5.3
			c-0.2,0.4-0.3,0.9-0.1,1.4c0.3,0.7,1.2,1,1.9,0.7C20,46.8,20.3,46,20,45.2z"/>
	</g>
</g>
</svg>
