<?xml version="1.0" encoding="UTF-8"?>
<svg width="28px" height="33px" viewBox="0 0 28 33" version="1.1" xmlns="http://www.w3.org/2000/svg" xmlns:xlink="http://www.w3.org/1999/xlink">
    <!-- Generator: Sketch 52 (66869) - http://www.bohemiancoding.com/sketch -->
    <title>populstay-logo-full-colour</title>
    <desc>Created with Sketch.</desc>
    <g id="Welcome" stroke="none" stroke-width="1" fill="none" fill-rule="evenodd">
        <g id="PopulStay---Website" transform="translate(-706.000000, -6392.000000)" fill-rule="nonzero">
            <g id="Roadmap" transform="translate(0.000000, 6172.000000)">
                <g id="populstay-logo-full-colour" transform="translate(706.000000, 220.000000)">
                    <circle id="Oval" fill="#111C4E" cx="13.8634146" cy="13.8634146" r="3.41463415"></circle>
                    <path d="M27.6585366,13.2487805 C27.5902439,11.4731707 27.1804878,9.69756098 26.3609756,7.9902439 C25.5414634,6.28292683 24.4487805,4.84878049 23.1512195,3.6195122 C23.3560976,3.96097561 23.5609756,4.37073171 23.7658537,4.71219512 C24.3804878,6.0097561 24.7219512,7.30731707 24.8585366,8.67317073 C25.3365854,13.5902439 22.6731707,18.5073171 17.9609756,20.6926829 C17.4829268,20.897561 17.004878,21.102439 16.4585366,21.2390244 C15.9121951,21.4439024 15.3658537,21.5804878 14.8195122,21.6487805 C14.8195122,21.6487805 14.8195122,21.6487805 14.8195122,21.6487805 C14.4780488,21.7170732 14.1365854,21.7170732 13.795122,21.7853659 L16.3902439,27.3853659 C16.3902439,27.3853659 16.3902439,27.3853659 16.3902439,27.3853659 L17.2097561,29.2292683 C17.0731707,29.502439 17.0731707,29.8439024 17.2097561,30.1170732 C17.4146341,30.595122 18.0292683,30.8 18.5073171,30.595122 C18.9853659,30.3902439 19.1902439,29.7756098 18.9853659,29.297561 C18.8487805,28.9560976 18.4390244,28.7512195 18.097561,28.7512195 L17.4146341,27.2487805 C18.1658537,27.0439024 18.9170732,26.7707317 19.6682927,26.4292683 C24.9268293,23.9707317 27.9317073,18.7121951 27.6585366,13.2487805 Z" id="Shape" fill="#111C4E"></path>
                    <path d="M24.8585366,8.74146341 C24.7219512,7.37560976 24.3804878,6.07804878 23.7658537,4.7804878 C23.5609756,4.37073171 23.3560976,4.02926829 23.1512195,3.68780488 C19.1219512,-5.16253706e-15 13.1804878,-1.09268293 7.9902439,1.36585366 C4.57560976,2.93658537 2.11707317,5.73658537 0.887804878,9.01463415 C-0.341463415,12.2926829 -0.341463415,16.1853659 1.29756098,19.6682927 C2.93658537,23.2195122 5.87317073,25.7463415 9.28780488,26.9073171 C7.64878049,25.7463415 6.28292683,24.1756098 5.39512195,22.195122 C4.7804878,20.897561 4.43902439,19.6 4.30243902,18.2341463 C3.89268293,14.1365854 5.66829268,10.1073171 8.94634146,7.5804878 C9.42439024,7.23902439 9.90243902,6.89756098 10.4487805,6.62439024 C14.4097561,4.7804878 19.1219512,6.48780488 20.9658537,10.4487805 C22.8097561,14.4097561 21.102439,19.1219512 17.1414634,20.9658537 C16.9365854,21.102439 16.6634146,21.1707317 16.4585366,21.2390244 C16.9365854,21.102439 17.4829268,20.897561 17.9609756,20.6926829 C22.6731707,18.5073171 25.3365854,13.6585366 24.8585366,8.74146341 Z" id="Shape" fill="#F4436C"></path>
                    <path d="M13.6585366,30.8682927 C13.5219512,30.5268293 13.1804878,30.3219512 12.8390244,30.3219512 L11.5414634,27.4536585 C11.5414634,27.4536585 11.5414634,27.4536585 11.5414634,27.4536585 L8.53658537,20.9658537 L6.76097561,17.1414634 C5.1902439,13.7268293 6.21463415,9.76585366 9.08292683,7.5804878 C5.80487805,10.1073171 4.02926829,14.1365854 4.43902439,18.2341463 C4.57560976,19.6 4.91707317,20.897561 5.53170732,22.195122 C6.4195122,24.1756098 7.78536585,25.7463415 9.42439024,26.9073171 C9.69756098,27.0439024 10.0390244,27.1121951 10.3804878,27.1804878 L12.0195122,30.8 C11.8829268,31.0731707 11.8146341,31.4146341 11.9512195,31.7560976 C12.1560976,32.2341463 12.7707317,32.4390244 13.2487805,32.2341463 C13.6585366,31.9609756 13.8634146,31.4146341 13.6585366,30.8682927 Z" id="Shape" fill="#111C4E"></path>
                </g>
            </g>
        </g>
    </g>
</svg>